<svg viewBox="0 0 1024 1024"  xmlns="http://www.w3.org/2000/svg">
<defs>
<g id="nouns131" transform="scale(3.2)" shape-rendering="crispEdges">
<rect width="140" height="10" x="90" y="210" fill="#c5b9a1" /><rect width="140" height="10" x="90" y="220" fill="#c5b9a1" /><rect width="140" height="10" x="90" y="230" fill="#c5b9a1" /><rect width="140" height="10" x="90" y="240" fill="#c5b9a1" /><rect width="20" height="10" x="90" y="250" fill="#c5b9a1" /><rect width="110" height="10" x="120" y="250" fill="#c5b9a1" /><rect width="20" height="10" x="90" y="260" fill="#c5b9a1" /><rect width="110" height="10" x="120" y="260" fill="#c5b9a1" /><rect width="20" height="10" x="90" y="270" fill="#c5b9a1" /><rect width="110" height="10" x="120" y="270" fill="#c5b9a1" /><rect width="20" height="10" x="90" y="280" fill="#c5b9a1" /><rect width="110" height="10" x="120" y="280" fill="#c5b9a1" /><rect width="20" height="10" x="90" y="290" fill="#c5b9a1" /><rect width="110" height="10" x="120" y="290" fill="#c5b9a1" /><rect width="20" height="10" x="90" y="300" fill="#c5b9a1" /><rect width="110" height="10" x="120" y="300" fill="#c5b9a1" /><rect width="20" height="10" x="90" y="310" fill="#c5b9a1" /><rect width="110" height="10" x="120" y="310" fill="#c5b9a1" /><rect width="10" height="10" x="190" y="210" fill="#76858b" /><rect width="10" height="10" x="190" y="220" fill="#76858b" /><rect width="20" height="10" x="90" y="230" fill="#76858b" /><rect width="110" height="10" x="120" y="230" fill="#76858b" /><rect width="10" height="10" x="130" y="240" fill="#76858b" /><rect width="10" height="10" x="130" y="250" fill="#76858b" /><rect width="20" height="10" x="90" y="260" fill="#76858b" /><rect width="40" height="10" x="120" y="260" fill="#76858b" /><rect width="60" height="10" x="170" y="260" fill="#76858b" /><rect width="10" height="10" x="190" y="270" fill="#76858b" /><rect width="10" height="10" x="190" y="280" fill="#76858b" /><rect width="20" height="10" x="90" y="290" fill="#76858b" /><rect width="110" height="10" x="120" y="290" fill="#76858b" /><rect width="10" height="10" x="130" y="300" fill="#76858b" /><rect width="10" height="10" x="130" y="310" fill="#76858b" /><rect width="80" height="10" x="120" y="20" fill="#fb4694" /><rect width="20" height="10" x="120" y="30" fill="#fb4694" /><rect width="10" height="10" x="140" y="30" fill="#ffffff" /><rect width="20" height="10" x="150" y="30" fill="#fb4694" /><rect width="10" height="10" x="170" y="30" fill="#fa6fe2" /><rect width="20" height="10" x="180" y="30" fill="#fb4694" /><rect width="30" height="10" x="130" y="40" fill="#fb4694" /><rect width="10" height="10" x="160" y="40" fill="#fa6fe2" /><rect width="20" height="10" x="170" y="40" fill="#fb4694" /><rect width="30" height="10" x="110" y="50" fill="#fff449" /><rect width="40" height="10" x="140" y="50" fill="#fb4694" /><rect width="30" height="10" x="180" y="50" fill="#fff449" /><rect width="20" height="10" x="90" y="60" fill="#fff449" /><rect width="20" height="10" x="110" y="60" fill="#eed811" /><rect width="20" height="10" x="130" y="60" fill="#fff449" /><rect width="20" height="10" x="150" y="60" fill="#fb4694" /><rect width="20" height="10" x="170" y="60" fill="#fff449" /><rect width="20" height="10" x="190" y="60" fill="#eed811" /><rect width="20" height="10" x="210" y="60" fill="#fff449" /><rect width="10" height="10" x="80" y="70" fill="#fff449" /><rect width="20" height="10" x="90" y="70" fill="#eed811" /><rect width="100" height="10" x="110" y="70" fill="#fff449" /><rect width="20" height="10" x="210" y="70" fill="#eed811" /><rect width="10" height="10" x="230" y="70" fill="#fff449" /><rect width="50" height="10" x="70" y="80" fill="#fff449" /><rect width="10" height="10" x="120" y="80" fill="#eed811" /><rect width="50" height="10" x="200" y="80" fill="#fff449" /><rect width="30" height="10" x="70" y="90" fill="#fff449" /><rect width="10" height="10" x="100" y="90" fill="#eed811" /><rect width="30" height="10" x="220" y="90" fill="#fff449" /><rect width="30" height="10" x="60" y="100" fill="#fff449" /><rect width="20" height="10" x="90" y="100" fill="#eed811" /><rect width="30" height="10" x="230" y="100" fill="#fff449" /><rect width="10" height="10" x="60" y="110" fill="#fff449" /><rect width="10" height="10" x="70" y="110" fill="#ffffff" /><rect width="10" height="10" x="80" y="110" fill="#fff449" /><rect width="10" height="10" x="90" y="110" fill="#eed811" /><rect width="30" height="10" x="230" y="110" fill="#fff449" /><rect width="30" height="10" x="60" y="120" fill="#fff449" /><rect width="10" height="10" x="90" y="120" fill="#eed811" /><rect width="30" height="10" x="230" y="120" fill="#fff449" /><rect width="30" height="10" x="60" y="130" fill="#fff449" /><rect width="10" height="10" x="90" y="130" fill="#eed811" /><rect width="30" height="10" x="230" y="130" fill="#fff449" /><rect width="30" height="10" x="60" y="140" fill="#fff449" /><rect width="10" height="10" x="90" y="140" fill="#eed811" /><rect width="10" height="10" x="230" y="140" fill="#fff449" /><rect width="10" height="10" x="240" y="140" fill="#ffffff" /><rect width="10" height="10" x="250" y="140" fill="#fff449" /><rect width="30" height="10" x="60" y="150" fill="#fff449" /><rect width="10" height="10" x="90" y="150" fill="#eed811" /><rect width="10" height="10" x="230" y="150" fill="#fff449" /><rect width="10" height="10" x="240" y="150" fill="#ffffff" /><rect width="10" height="10" x="250" y="150" fill="#fff449" /><rect width="30" height="10" x="60" y="160" fill="#fff449" /><rect width="10" height="10" x="90" y="160" fill="#eed811" /><rect width="30" height="10" x="230" y="160" fill="#fff449" /><rect width="30" height="10" x="70" y="170" fill="#fff449" /><rect width="20" height="10" x="100" y="170" fill="#eed811" /><rect width="30" height="10" x="220" y="170" fill="#fff449" /><rect width="50" height="10" x="70" y="180" fill="#fff449" /><rect width="80" height="10" x="120" y="180" fill="#eed811" /><rect width="50" height="10" x="200" y="180" fill="#fff449" /><rect width="160" height="10" x="80" y="190" fill="#fff449" /><rect width="140" height="10" x="90" y="200" fill="#fff449" /><rect width="100" height="10" x="110" y="210" fill="#fff449" /><rect width="60" height="10" x="100" y="110" fill="#9cb4b8" /><rect width="60" height="10" x="170" y="110" fill="#9cb4b8" /><rect width="10" height="10" x="100" y="120" fill="#9cb4b8" /><rect width="20" height="10" x="110" y="120" fill="#ffffff" /><rect width="20" height="10" x="130" y="120" fill="#000000" /><rect width="10" height="10" x="150" y="120" fill="#9cb4b8" /><rect width="10" height="10" x="170" y="120" fill="#9cb4b8" /><rect width="20" height="10" x="180" y="120" fill="#ffffff" /><rect width="20" height="10" x="200" y="120" fill="#000000" /><rect width="10" height="10" x="220" y="120" fill="#9cb4b8" /><rect width="40" height="10" x="70" y="130" fill="#9cb4b8" /><rect width="20" height="10" x="110" y="130" fill="#ffffff" /><rect width="20" height="10" x="130" y="130" fill="#000000" /><rect width="30" height="10" x="150" y="130" fill="#9cb4b8" /><rect width="20" height="10" x="180" y="130" fill="#ffffff" /><rect width="20" height="10" x="200" y="130" fill="#000000" /><rect width="10" height="10" x="220" y="130" fill="#9cb4b8" /><rect width="10" height="10" x="70" y="140" fill="#9cb4b8" /><rect width="10" height="10" x="100" y="140" fill="#9cb4b8" /><rect width="20" height="10" x="110" y="140" fill="#ffffff" /><rect width="20" height="10" x="130" y="140" fill="#000000" /><rect width="10" height="10" x="150" y="140" fill="#9cb4b8" /><rect width="10" height="10" x="170" y="140" fill="#9cb4b8" /><rect width="20" height="10" x="180" y="140" fill="#ffffff" /><rect width="20" height="10" x="200" y="140" fill="#000000" /><rect width="10" height="10" x="220" y="140" fill="#9cb4b8" /><rect width="10" height="10" x="70" y="150" fill="#9cb4b8" /><rect width="10" height="10" x="100" y="150" fill="#9cb4b8" /><rect width="20" height="10" x="110" y="150" fill="#ffffff" /><rect width="20" height="10" x="130" y="150" fill="#000000" /><rect width="10" height="10" x="150" y="150" fill="#9cb4b8" /><rect width="10" height="10" x="170" y="150" fill="#9cb4b8" /><rect width="20" height="10" x="180" y="150" fill="#ffffff" /><rect width="20" height="10" x="200" y="150" fill="#000000" /><rect width="10" height="10" x="220" y="150" fill="#9cb4b8" /><rect width="60" height="10" x="100" y="160" fill="#9cb4b8" /><rect width="60" height="10" x="170" y="160" fill="#9cb4b8" />
</g>
<g id="nouns132" transform="scale(3.2)" shape-rendering="crispEdges">
<rect width="140" height="10" x="90" y="210" fill="#fd8b5b" /><rect width="140" height="10" x="90" y="220" fill="#fd8b5b" /><rect width="140" height="10" x="90" y="230" fill="#fd8b5b" /><rect width="140" height="10" x="90" y="240" fill="#fd8b5b" /><rect width="20" height="10" x="90" y="250" fill="#fd8b5b" /><rect width="110" height="10" x="120" y="250" fill="#fd8b5b" /><rect width="20" height="10" x="90" y="260" fill="#fd8b5b" /><rect width="110" height="10" x="120" y="260" fill="#fd8b5b" /><rect width="20" height="10" x="90" y="270" fill="#fd8b5b" /><rect width="110" height="10" x="120" y="270" fill="#fd8b5b" /><rect width="20" height="10" x="90" y="280" fill="#fd8b5b" /><rect width="110" height="10" x="120" y="280" fill="#fd8b5b" /><rect width="20" height="10" x="90" y="290" fill="#fd8b5b" /><rect width="110" height="10" x="120" y="290" fill="#fd8b5b" /><rect width="20" height="10" x="90" y="300" fill="#fd8b5b" /><rect width="110" height="10" x="120" y="300" fill="#fd8b5b" /><rect width="20" height="10" x="90" y="310" fill="#fd8b5b" /><rect width="110" height="10" x="120" y="310" fill="#fd8b5b" /><rect width="20" height="10" x="110" y="210" fill="#000000" /><rect width="20" height="10" x="150" y="210" fill="#000000" /><rect width="20" height="10" x="190" y="210" fill="#000000" /><rect width="20" height="10" x="110" y="220" fill="#000000" /><rect width="20" height="10" x="150" y="220" fill="#000000" /><rect width="20" height="10" x="190" y="220" fill="#000000" /><rect width="20" height="10" x="90" y="230" fill="#000000" /><rect width="20" height="10" x="130" y="230" fill="#000000" /><rect width="20" height="10" x="170" y="230" fill="#000000" /><rect width="20" height="10" x="210" y="230" fill="#000000" /><rect width="20" height="10" x="90" y="240" fill="#000000" /><rect width="20" height="10" x="130" y="240" fill="#000000" /><rect width="20" height="10" x="170" y="240" fill="#000000" /><rect width="20" height="10" x="210" y="240" fill="#000000" /><rect width="10" height="10" x="120" y="250" fill="#000000" /><rect width="20" height="10" x="150" y="250" fill="#000000" /><rect width="20" height="10" x="190" y="250" fill="#000000" /><rect width="10" height="10" x="120" y="260" fill="#000000" /><rect width="20" height="10" x="150" y="260" fill="#000000" /><rect width="20" height="10" x="190" y="260" fill="#000000" /><rect width="20" height="10" x="90" y="270" fill="#000000" /><rect width="20" height="10" x="130" y="270" fill="#000000" /><rect width="20" height="10" x="170" y="270" fill="#000000" /><rect width="20" height="10" x="210" y="270" fill="#000000" /><rect width="20" height="10" x="90" y="280" fill="#000000" /><rect width="20" height="10" x="130" y="280" fill="#000000" /><rect width="20" height="10" x="170" y="280" fill="#000000" /><rect width="20" height="10" x="210" y="280" fill="#000000" /><rect width="10" height="10" x="120" y="290" fill="#000000" /><rect width="20" height="10" x="150" y="290" fill="#000000" /><rect width="20" height="10" x="190" y="290" fill="#000000" /><rect width="10" height="10" x="120" y="300" fill="#000000" /><rect width="20" height="10" x="150" y="300" fill="#000000" /><rect width="20" height="10" x="190" y="300" fill="#000000" /><rect width="20" height="10" x="90" y="310" fill="#000000" /><rect width="20" height="10" x="130" y="310" fill="#000000" /><rect width="20" height="10" x="170" y="310" fill="#000000" /><rect width="20" height="10" x="210" y="310" fill="#000000" /><rect width="10" height="10" x="140" y="50" fill="#fffdf2" /><rect width="10" height="10" x="160" y="50" fill="#fffdf2" /><rect width="10" height="10" x="180" y="50" fill="#fffdf2" /><rect width="30" height="10" x="150" y="60" fill="#fffdf2" /><rect width="30" height="10" x="150" y="70" fill="#fffdf2" /><rect width="10" height="10" x="140" y="80" fill="#fff0be" /><rect width="30" height="10" x="150" y="80" fill="#fffdf2" /><rect width="10" height="10" x="180" y="80" fill="#fff0be" /><rect width="10" height="10" x="100" y="90" fill="#fff0be" /><rect width="30" height="10" x="110" y="90" fill="#fffdf2" /><rect width="10" height="10" x="140" y="90" fill="#fff0be" /><rect width="30" height="10" x="150" y="90" fill="#fffdf2" /><rect width="10" height="10" x="180" y="90" fill="#fff0be" /><rect width="30" height="10" x="190" y="90" fill="#fffdf2" /><rect width="10" height="10" x="90" y="100" fill="#fffdf2" /><rect width="10" height="10" x="100" y="100" fill="#fff0be" /><rect width="30" height="10" x="110" y="100" fill="#fffdf2" /><rect width="10" height="10" x="140" y="100" fill="#fff0be" /><rect width="30" height="10" x="150" y="100" fill="#fffdf2" /><rect width="10" height="10" x="180" y="100" fill="#fff0be" /><rect width="30" height="10" x="190" y="100" fill="#fffdf2" /><rect width="10" height="10" x="220" y="100" fill="#fff0be" /><rect width="20" height="10" x="80" y="110" fill="#fffdf2" /><rect width="10" height="10" x="100" y="110" fill="#fff0be" /><rect width="30" height="10" x="110" y="110" fill="#fffdf2" /><rect width="10" height="10" x="140" y="110" fill="#fff0be" /><rect width="30" height="10" x="150" y="110" fill="#fffdf2" /><rect width="10" height="10" x="180" y="110" fill="#fff0be" /><rect width="30" height="10" x="190" y="110" fill="#fffdf2" /><rect width="10" height="10" x="220" y="110" fill="#fff0be" /><rect width="10" height="10" x="230" y="110" fill="#fffdf2" /><rect width="30" height="10" x="70" y="120" fill="#fffdf2" /><rect width="10" height="10" x="100" y="120" fill="#fff0be" /><rect width="30" height="10" x="110" y="120" fill="#fffdf2" /><rect width="10" height="10" x="140" y="120" fill="#fff0be" /><rect width="30" height="10" x="150" y="120" fill="#fffdf2" /><rect width="10" height="10" x="180" y="120" fill="#fff0be" /><rect width="30" height="10" x="190" y="120" fill="#fffdf2" /><rect width="10" height="10" x="220" y="120" fill="#fff0be" /><rect width="20" height="10" x="230" y="120" fill="#fffdf2" /><rect width="30" height="10" x="70" y="130" fill="#fffdf2" /><rect width="10" height="10" x="100" y="130" fill="#fff0be" /><rect width="30" height="10" x="110" y="130" fill="#fffdf2" /><rect width="10" height="10" x="140" y="130" fill="#fff0be" /><rect width="30" height="10" x="150" y="130" fill="#fffdf2" /><rect width="10" height="10" x="180" y="130" fill="#fff0be" /><rect width="30" height="10" x="190" y="130" fill="#fffdf2" /><rect width="10" height="10" x="220" y="130" fill="#fff0be" /><rect width="20" height="10" x="230" y="130" fill="#fffdf2" /><rect width="30" height="10" x="70" y="140" fill="#fffdf2" /><rect width="10" height="10" x="100" y="140" fill="#fff0be" /><rect width="30" height="10" x="110" y="140" fill="#fffdf2" /><rect width="10" height="10" x="140" y="140" fill="#fff0be" /><rect width="30" height="10" x="150" y="140" fill="#fffdf2" /><rect width="10" height="10" x="180" y="140" fill="#fff0be" /><rect width="30" height="10" x="190" y="140" fill="#fffdf2" /><rect width="10" height="10" x="220" y="140" fill="#fff0be" /><rect width="20" height="10" x="230" y="140" fill="#fffdf2" /><rect width="30" height="10" x="70" y="150" fill="#fffdf2" /><rect width="10" height="10" x="100" y="150" fill="#fff0be" /><rect width="30" height="10" x="110" y="150" fill="#fffdf2" /><rect width="10" height="10" x="140" y="150" fill="#fff0be" /><rect width="30" height="10" x="150" y="150" fill="#fffdf2" /><rect width="10" height="10" x="180" y="150" fill="#fff0be" /><rect width="30" height="10" x="190" y="150" fill="#fffdf2" /><rect width="10" height="10" x="220" y="150" fill="#fff0be" /><rect width="20" height="10" x="230" y="150" fill="#fffdf2" /><rect width="30" height="10" x="70" y="160" fill="#fffdf2" /><rect width="10" height="10" x="100" y="160" fill="#fff0be" /><rect width="30" height="10" x="110" y="160" fill="#fffdf2" /><rect width="10" height="10" x="140" y="160" fill="#fff0be" /><rect width="30" height="10" x="150" y="160" fill="#fffdf2" /><rect width="10" height="10" x="180" y="160" fill="#fff0be" /><rect width="30" height="10" x="190" y="160" fill="#fffdf2" /><rect width="10" height="10" x="220" y="160" fill="#fff0be" /><rect width="20" height="10" x="230" y="160" fill="#fffdf2" /><rect width="30" height="10" x="70" y="170" fill="#fffdf2" /><rect width="10" height="10" x="100" y="170" fill="#fff0be" /><rect width="10" height="10" x="110" y="170" fill="#fffdf2" /><rect width="10" height="10" x="120" y="170" fill="#8dd122" /><rect width="10" height="10" x="130" y="170" fill="#fffdf2" /><rect width="10" height="10" x="140" y="170" fill="#fff0be" /><rect width="30" height="10" x="150" y="170" fill="#fffdf2" /><rect width="10" height="10" x="180" y="170" fill="#fff0be" /><rect width="30" height="10" x="190" y="170" fill="#fffdf2" /><rect width="10" height="10" x="220" y="170" fill="#fff0be" /><rect width="20" height="10" x="230" y="170" fill="#fffdf2" /><rect width="30" height="10" x="70" y="180" fill="#fffdf2" /><rect width="10" height="10" x="100" y="180" fill="#fff0be" /><rect width="20" height="10" x="110" y="180" fill="#fffdf2" /><rect width="40" height="10" x="130" y="180" fill="#8dd122" /><rect width="10" height="10" x="170" y="180" fill="#fffdf2" /><rect width="10" height="10" x="180" y="180" fill="#fff0be" /><rect width="30" height="10" x="190" y="180" fill="#fffdf2" /><rect width="10" height="10" x="220" y="180" fill="#fff0be" /><rect width="20" height="10" x="230" y="180" fill="#fffdf2" /><rect width="20" height="10" x="80" y="190" fill="#fffdf2" /><rect width="10" height="10" x="100" y="190" fill="#fff0be" /><rect width="30" height="10" x="110" y="190" fill="#fffdf2" /><rect width="10" height="10" x="140" y="190" fill="#fff0be" /><rect width="30" height="10" x="150" y="190" fill="#fffdf2" /><rect width="10" height="10" x="180" y="190" fill="#fff0be" /><rect width="30" height="10" x="190" y="190" fill="#fffdf2" /><rect width="10" height="10" x="220" y="190" fill="#fff0be" /><rect width="10" height="10" x="230" y="190" fill="#fffdf2" /><rect width="10" height="10" x="90" y="200" fill="#fffdf2" /><rect width="10" height="10" x="100" y="200" fill="#fff0be" /><rect width="30" height="10" x="110" y="200" fill="#fffdf2" /><rect width="10" height="10" x="140" y="200" fill="#fff0be" /><rect width="30" height="10" x="150" y="200" fill="#fffdf2" /><rect width="10" height="10" x="180" y="200" fill="#fff0be" /><rect width="30" height="10" x="190" y="200" fill="#fffdf2" /><rect width="10" height="10" x="220" y="200" fill="#fff0be" /><rect width="60" height="10" x="100" y="110" fill="#4bea69" /><rect width="60" height="10" x="170" y="110" fill="#4bea69" /><rect width="10" height="10" x="100" y="120" fill="#4bea69" /><rect width="20" height="10" x="110" y="120" fill="#ffffff" /><rect width="20" height="10" x="130" y="120" fill="#000000" /><rect width="10" height="10" x="150" y="120" fill="#4bea69" /><rect width="10" height="10" x="170" y="120" fill="#4bea69" /><rect width="20" height="10" x="180" y="120" fill="#ffffff" /><rect width="20" height="10" x="200" y="120" fill="#000000" /><rect width="10" height="10" x="220" y="120" fill="#4bea69" /><rect width="40" height="10" x="70" y="130" fill="#4bea69" /><rect width="20" height="10" x="110" y="130" fill="#ffffff" /><rect width="20" height="10" x="130" y="130" fill="#000000" /><rect width="30" height="10" x="150" y="130" fill="#4bea69" /><rect width="20" height="10" x="180" y="130" fill="#ffffff" /><rect width="20" height="10" x="200" y="130" fill="#000000" /><rect width="10" height="10" x="220" y="130" fill="#4bea69" /><rect width="10" height="10" x="70" y="140" fill="#4bea69" /><rect width="10" height="10" x="100" y="140" fill="#4bea69" /><rect width="20" height="10" x="110" y="140" fill="#ffffff" /><rect width="20" height="10" x="130" y="140" fill="#000000" /><rect width="10" height="10" x="150" y="140" fill="#4bea69" /><rect width="10" height="10" x="170" y="140" fill="#4bea69" /><rect width="20" height="10" x="180" y="140" fill="#ffffff" /><rect width="20" height="10" x="200" y="140" fill="#000000" /><rect width="10" height="10" x="220" y="140" fill="#4bea69" /><rect width="10" height="10" x="70" y="150" fill="#4bea69" /><rect width="10" height="10" x="100" y="150" fill="#4bea69" /><rect width="20" height="10" x="110" y="150" fill="#ffffff" /><rect width="20" height="10" x="130" y="150" fill="#000000" /><rect width="10" height="10" x="150" y="150" fill="#4bea69" /><rect width="10" height="10" x="170" y="150" fill="#4bea69" /><rect width="20" height="10" x="180" y="150" fill="#ffffff" /><rect width="20" height="10" x="200" y="150" fill="#000000" /><rect width="10" height="10" x="220" y="150" fill="#4bea69" /><rect width="60" height="10" x="100" y="160" fill="#4bea69" /><rect width="60" height="10" x="170" y="160" fill="#4bea69" />
</g>
<g id="nouns133" transform="scale(3.2)" shape-rendering="crispEdges">
<rect width="140" height="10" x="90" y="210" fill="#d26451" /><rect width="140" height="10" x="90" y="220" fill="#d26451" /><rect width="140" height="10" x="90" y="230" fill="#d26451" /><rect width="140" height="10" x="90" y="240" fill="#d26451" /><rect width="20" height="10" x="90" y="250" fill="#d26451" /><rect width="110" height="10" x="120" y="250" fill="#d26451" /><rect width="20" height="10" x="90" y="260" fill="#d26451" /><rect width="110" height="10" x="120" y="260" fill="#d26451" /><rect width="20" height="10" x="90" y="270" fill="#d26451" /><rect width="110" height="10" x="120" y="270" fill="#d26451" /><rect width="20" height="10" x="90" y="280" fill="#d26451" /><rect width="110" height="10" x="120" y="280" fill="#d26451" /><rect width="20" height="10" x="90" y="290" fill="#d26451" /><rect width="110" height="10" x="120" y="290" fill="#d26451" /><rect width="20" height="10" x="90" y="300" fill="#d26451" /><rect width="110" height="10" x="120" y="300" fill="#d26451" /><rect width="20" height="10" x="90" y="310" fill="#d26451" /><rect width="110" height="10" x="120" y="310" fill="#d26451" /><rect width="10" height="10" x="190" y="240" fill="#4bea69" /><rect width="10" height="10" x="160" y="250" fill="#26b1f3" /><rect width="10" height="10" x="180" y="250" fill="#4bea69" /><rect width="10" height="10" x="200" y="250" fill="#4bea69" /><rect width="10" height="10" x="140" y="260" fill="#26b1f3" /><rect width="10" height="10" x="160" y="260" fill="#26b1f3" /><rect width="30" height="10" x="180" y="260" fill="#4bea69" /><rect width="10" height="10" x="120" y="270" fill="#26b1f3" /><rect width="10" height="10" x="140" y="270" fill="#26b1f3" /><rect width="10" height="10" x="160" y="270" fill="#26b1f3" /><rect width="10" height="10" x="180" y="270" fill="#4bea69" /><rect width="10" height="10" x="120" y="280" fill="#26b1f3" /><rect width="10" height="10" x="140" y="280" fill="#26b1f3" /><rect width="10" height="10" x="160" y="280" fill="#26b1f3" /><rect width="10" height="10" x="190" y="280" fill="#4bea69" /><rect width="10" height="10" x="130" y="290" fill="#26b1f3" /><rect width="10" height="10" x="150" y="290" fill="#26b1f3" /><rect width="20" height="10" x="150" y="10" fill="#ffc110" /><rect width="20" height="10" x="150" y="20" fill="#ffc110" /><rect width="80" height="10" x="120" y="30" fill="#ffc110" /><rect width="20" height="10" x="110" y="40" fill="#ffc110" /><rect width="10" height="10" x="130" y="40" fill="#ffffff" /><rect width="70" height="10" x="140" y="40" fill="#ffc110" /><rect width="20" height="10" x="100" y="50" fill="#ffc110" /><rect width="10" height="10" x="120" y="50" fill="#ffffff" /><rect width="90" height="10" x="130" y="50" fill="#ffc110" /><rect width="20" height="10" x="90" y="60" fill="#ffc110" /><rect width="10" height="10" x="110" y="60" fill="#ffffff" /><rect width="110" height="10" x="120" y="60" fill="#ffc110" /><rect width="140" height="10" x="90" y="70" fill="#ffc110" /><rect width="140" height="10" x="90" y="80" fill="#ffc110" /><rect width="160" height="10" x="80" y="90" fill="#ffc110" /><rect width="160" height="10" x="80" y="100" fill="#ffc110" /><rect width="160" height="10" x="80" y="110" fill="#ffc110" /><rect width="160" height="10" x="80" y="120" fill="#ffc110" /><rect width="160" height="10" x="80" y="130" fill="#ffc110" /><rect width="160" height="10" x="80" y="140" fill="#d08b11" /><rect width="160" height="10" x="80" y="150" fill="#d08b11" /><rect width="200" height="10" x="60" y="160" fill="#ffc110" /><rect width="10" height="10" x="60" y="170" fill="#ffc110" /><rect width="10" height="10" x="70" y="170" fill="#ffffff" /><rect width="180" height="10" x="80" y="170" fill="#ffc110" /><rect width="120" height="10" x="40" y="180" fill="#ffc110" /><rect width="30" height="10" x="160" y="180" fill="#e8705b" /><rect width="90" height="10" x="190" y="180" fill="#ffc110" /><rect width="240" height="10" x="40" y="190" fill="#ffc110" /><rect width="220" height="10" x="50" y="200" fill="#ffc110" /><rect width="60" height="10" x="100" y="110" fill="#e8705b" /><rect width="60" height="10" x="170" y="110" fill="#e8705b" /><rect width="10" height="10" x="100" y="120" fill="#e8705b" /><rect width="20" height="10" x="110" y="120" fill="#ffffff" /><rect width="20" height="10" x="130" y="120" fill="#000000" /><rect width="10" height="10" x="150" y="120" fill="#e8705b" /><rect width="10" height="10" x="170" y="120" fill="#e8705b" /><rect width="20" height="10" x="180" y="120" fill="#ffffff" /><rect width="20" height="10" x="200" y="120" fill="#000000" /><rect width="10" height="10" x="220" y="120" fill="#e8705b" /><rect width="40" height="10" x="70" y="130" fill="#e8705b" /><rect width="20" height="10" x="110" y="130" fill="#ffffff" /><rect width="20" height="10" x="130" y="130" fill="#000000" /><rect width="30" height="10" x="150" y="130" fill="#e8705b" /><rect width="20" height="10" x="180" y="130" fill="#ffffff" /><rect width="20" height="10" x="200" y="130" fill="#000000" /><rect width="10" height="10" x="220" y="130" fill="#e8705b" /><rect width="10" height="10" x="70" y="140" fill="#e8705b" /><rect width="10" height="10" x="100" y="140" fill="#e8705b" /><rect width="20" height="10" x="110" y="140" fill="#ffffff" /><rect width="20" height="10" x="130" y="140" fill="#000000" /><rect width="10" height="10" x="150" y="140" fill="#e8705b" /><rect width="10" height="10" x="170" y="140" fill="#e8705b" /><rect width="20" height="10" x="180" y="140" fill="#ffffff" /><rect width="20" height="10" x="200" y="140" fill="#000000" /><rect width="10" height="10" x="220" y="140" fill="#e8705b" /><rect width="10" height="10" x="70" y="150" fill="#e8705b" /><rect width="10" height="10" x="100" y="150" fill="#e8705b" /><rect width="20" height="10" x="110" y="150" fill="#ffffff" /><rect width="20" height="10" x="130" y="150" fill="#000000" /><rect width="10" height="10" x="150" y="150" fill="#e8705b" /><rect width="10" height="10" x="170" y="150" fill="#e8705b" /><rect width="20" height="10" x="180" y="150" fill="#ffffff" /><rect width="20" height="10" x="200" y="150" fill="#000000" /><rect width="10" height="10" x="220" y="150" fill="#e8705b" /><rect width="60" height="10" x="100" y="160" fill="#e8705b" /><rect width="60" height="10" x="170" y="160" fill="#e8705b" />
</g>
<g x_x="x" id="circles131"><g x_x="x" transform="translate(102,204) scale(0.8)"><g x_x="x"><use href="#nouns131" transform="translate(273 789) scale(0.152) rotate(148,512,512)"/>
<circle cx="351" cy="867" r="85" fill="red" opacity="0.333"/>
</g>
<g x_x="x"><use href="#nouns132" transform="translate(852 395) scale(0.080) rotate(354,512,512)"/>
<circle cx="893" cy="436" r="45" fill="green" opacity="0.333"/>
</g>
<g x_x="x"><use href="#nouns133" transform="translate(60 532) scale(0.146) rotate(13,512,512)"/>
<circle cx="135" cy="607" r="82" fill="yellow" opacity="0.333"/>
</g>
<g x_x="x"><use href="#nouns131" transform="translate(363 190) scale(0.160) rotate(370,512,512)"/>
<circle cx="445" cy="272" r="90" fill="blue" opacity="0.333"/>
</g>
<g x_x="x"><use href="#nouns132" transform="translate(640 506) scale(0.218) rotate(422,512,512)"/>
<circle cx="752" cy="618" r="123" fill="red" opacity="0.333"/>
</g>
<g x_x="x"><use href="#nouns133" transform="translate(575 170) scale(0.169) rotate(320,512,512)"/>
<circle cx="662" cy="257" r="95" fill="green" opacity="0.333"/>
</g>
<g x_x="x"><use href="#nouns131" transform="translate(238 242) scale(0.173) rotate(345,512,512)"/>
<circle cx="327" cy="331" r="97" fill="yellow" opacity="0.333"/>
</g>
<g x_x="x"><use href="#nouns132" transform="translate(440 293) scale(0.458) rotate(379,512,512)"/>
<circle cx="675" cy="528" r="258" fill="blue" opacity="0.333"/>
</g>
<g x_x="x"><use href="#nouns133" transform="translate(464 381) scale(0.351) rotate(369,512,512)"/>
<circle cx="644" cy="561" r="198" fill="red" opacity="0.333"/>
</g>
<g x_x="x"><use href="#nouns131" transform="translate(286 132) scale(0.398) rotate(383,512,512)"/>
<circle cx="490" cy="336" r="224" fill="green" opacity="0.333"/>
</g>
</g>
<g x_x="x" fill="#224455" transform="scale(0.348)"><path d="M485 491 c-17 -165 -78 -226 -180 -238 -101 -12 -94 11 -108 22 l-2 -24 s-60 -2 -82 -2 -81 1 -94 0 c0 0 0 395 5 482 5 86 1 257 1 284 0 0 59 8 94 7 s63 -8 72 -11 c0 0 14 -165 3 -221 0 0 137 29 202 -7 s106 -127 88 -291 Zm-261 171 c-40 -4 -31 -78 -32 -134 -4 -135 42 -138 66 -135 24 3 74 17 76 146 2 130 -69 126 -109 122 Z"/>
<path d="M31 43 s-9 170 -9 243 3 503 3 515 c0 0 65 3 83 6 s78 4 99 -7 c0 0 1 -286 1 -299 0 0 58 142 65 154 s67 148 67 148 c0 0 69 3 85 5 s70 1 78 -7 c0 0 1 -404 1 -434 s1 -316 0 -328 c0 0 -37 -11 -88 -11 s-93 8 -93 8 c0 0 -2 109 -1 145 s3 145 3 145 c0 0 -52 -116 -64 -147 s-53 -123 -58 -129 S110 24 31 43 Z" transform="translate(498 0)"/>
<path d="M434 288 c-59 -48 -100 -49 -175 -52 -75 -3 -153 6 -193 37 -40 31 -53 147 -47 257 6 110 8 179 56 226 48 47 111 56 204 55 60 -1 176 9 191 -132 15 -141 22 -343 -37 -391 Zm-120 255 c-5 52 4 111 -70 104 -74 -7 -50 -110 -50 -131 0 -88 15 -110 66 -105 51 5 59 79 54 132 Z" transform="translate(1024 0)"/>
<path d="M8 268 s5 143 1 233 -11 264 46 284 112 45 220 -18 c0 0 2 39 3 41 s19 9 92 4 80 -1 80 -1 c0 0 4 -306 0 -368 s-2 -185 -2 -185 c0 0 -58 3 -76 2 s-64 0 -88 10 c0 0 -11 105 -3 164 s17 185 -44 191 -54 -77 -58 -171 3 -149 -3 -193 c0 0 -69 -1 -86 -1 s-82 8 -82 8 Z" transform="translate(1522 0)"/>
<path d="M7 251 s-2 467 1 552 c0 0 65 -1 93 1 s63 -6 73 -10 c0 0 6 -136 -1 -222 s6 -135 47 -134 53 24 58 174 -1 165 3 188 c0 0 78 1 97 2 s58 -6 69 -7 c0 0 -4 -217 0 -283 s8 -202 -45 -235 -151 -23 -221 19 c0 0 1 -32 -5 -41 s-64 -3 -88 -1 -63 2 -82 -3 Z" transform="translate(1983 0)"/>
<path d="M5 624 s3 106 73 149 c70 44 225 71 329 11 105 -61 93 -231 24 -268 -69 -37 -142 -46 -175 -52 -33 -7 -52 -61 -34 -80 18 -20 39 -28 58 -18 19 11 30 32 27 59 0 0 55 18 117 14 62 -3 67 -10 67 -10 0 0 -1 -91 -36 -132 -35 -41 -47 -56 -173 -62 -126 -6 -163 13 -211 46 -48 34 -55 94 -55 120 -1 76 83 133 125 149 s121 26 150 49 c10 8 12 39 7 51 -6 13 -3 17 -21 25 -15 7 -75 9 -83 -53 0 0 -83 -5 -105 -3 -22 1 -71 1 -84 6 Z" transform="translate(2439 0)"/>
</g>
<g x_x="x" fill="#224455" transform="translate(567 922) scale(0.1)"><path d="M465 116 C394 31 297 11 210 33 c0 0 -158 46 -182 197 -12 25 -11 75 -13 176 -1 101 -2 235 57 302 59 68 139 115 268 76 s192 -254 197 -361 c5 -107 -2 -223 -73 -307 Zm-139 340 c-4 131 -26 153 -57 154 -32 1 -29 -11 -46 -55 -17 -43 -17 -154 -17 -154 11 -142 11 -194 64 -192 s61 115 57 247 Z"/>
<path d="M188 295 s-9 244 -11 295 -2 198 -2 198 c0 0 78 13 124 12 s78 -5 79 -22 5 -374 8 -415 4 -323 -2 -337 c0 0 -95 -6 -130 -5 s-99 2 -103 1 c0 0 -67 100 -84 128 S9 251 10 269 c0 0 27 20 75 31 s70 15 75 15 24 -7 28 -19 Z" transform="translate(554 0)"/>
<path d="M187 271 s24 -50 76 -60 50 61 48 71 -3 34 -49 37 -86 6 -101 14 c0 0 4 60 -1 86 s9 68 13 72 c0 0 53 -13 79 -5 s54 13 61 59 -24 63 -40 67 -61 -13 -83 -67 c0 0 -57 -5 -87 1 s-82 4 -85 5 c0 0 -5 126 21 164 s27 46 105 71 203 15 251 -10 97 -72 105 -152 8 -323 7 -355 3 -105 -17 -147 S376 27 271 26 110 61 95 70 s-56 37 -73 88 -6 104 -7 115 c0 0 68 3 88 3 s81 -3 84 -5 Z" transform="translate(968 0)"/>
<path d="M188 295 s-9 244 -11 295 -2 198 -2 198 c0 0 78 13 124 12 s78 -5 79 -22 5 -374 8 -415 4 -323 -2 -337 c0 0 -95 -6 -130 -5 s-99 2 -103 1 c0 0 -67 100 -84 128 S9 251 10 269 c0 0 27 20 75 31 s70 15 75 15 24 -7 28 -19 Z" transform="translate(1494 0)"/>
<path d="M110 800 s52 2 76 -6 c0 0 5 -3 12 -26 s57 -142 72 -185 78 -229 91 -265 40 -113 48 -137 38 -122 38 -126 -4 -7 -6 -7 c0 0 3 -6 9 -7 0 0 -15 -15 -74 -13 s-86 -1 -97 -5 c0 0 -28 102 -41 136 s-28 83 -28 85 -9 34 -14 44 -65 177 -71 192 -38 108 -43 119 -42 112 -35 102 c0 0 -25 63 -24 73 s-3 26 12 26 74 -1 74 -1 Z" transform="translate(1908 0)"/>
<path d="M211 343 s10 -90 24 -109 57 -42 75 13 -2 102 -52 129 -76 51 -129 83 -74 59 -78 65 -24 36 -29 79 -10 187 -11 195 c0 0 15 4 30 5 s189 -5 212 -5 238 -3 246 -3 8 -6 8 -9 -3 -73 -1 -85 -3 -52 -10 -68 c0 0 -252 6 -279 2 0 0 35 -75 72 -97 s153 -76 185 -112 49 -59 49 -129 -4 -170 -92 -236 -270 -32 -320 2 S-10 187 21 344 c0 0 57 21 190 -1 Z" transform="translate(2369 0)"/>
<path d="M465 116 C394 31 297 11 210 33 c0 0 -158 46 -182 197 -12 25 -11 75 -13 176 -1 101 -2 235 57 302 59 68 139 115 268 76 s192 -254 197 -361 c5 -107 -2 -223 -73 -307 Zm-139 340 c-4 131 -26 153 -57 154 -32 1 -29 -11 -46 -55 -17 -43 -17 -154 -17 -154 11 -142 11 -194 64 -192 s61 115 57 247 Z" transform="translate(2909 0)"/>
<path d="M465 116 C394 31 297 11 210 33 c0 0 -158 46 -182 197 -12 25 -11 75 -13 176 -1 101 -2 235 57 302 59 68 139 115 268 76 s192 -254 197 -361 c5 -107 -2 -223 -73 -307 Zm-139 340 c-4 131 -26 153 -57 154 -32 1 -29 -11 -46 -55 -17 -43 -17 -154 -17 -154 11 -142 11 -194 64 -192 s61 115 57 247 Z" transform="translate(3463 0)"/>
<path d="M465 116 C394 31 297 11 210 33 c0 0 -158 46 -182 197 -12 25 -11 75 -13 176 -1 101 -2 235 57 302 59 68 139 115 268 76 s192 -254 197 -361 c5 -107 -2 -223 -73 -307 Zm-139 340 c-4 131 -26 153 -57 154 -32 1 -29 -11 -46 -55 -17 -43 -17 -154 -17 -154 11 -142 11 -194 64 -192 s61 115 57 247 Z" transform="translate(4017 0)"/>
</g>
</g>
</defs>
<use href="#circles131" />
</svg>
