<svg viewBox="0 0 1024 1024"  xmlns="http://www.w3.org/2000/svg">
<defs>
<g id="nouns141" transform="scale(3.2)" shape-rendering="crispEdges">
<rect width="140" height="10" x="90" y="210" fill="#fe500c" /><rect width="140" height="10" x="90" y="220" fill="#fe500c" /><rect width="140" height="10" x="90" y="230" fill="#fe500c" /><rect width="140" height="10" x="90" y="240" fill="#fe500c" /><rect width="20" height="10" x="90" y="250" fill="#fe500c" /><rect width="110" height="10" x="120" y="250" fill="#fe500c" /><rect width="20" height="10" x="90" y="260" fill="#fe500c" /><rect width="110" height="10" x="120" y="260" fill="#fe500c" /><rect width="20" height="10" x="90" y="270" fill="#fe500c" /><rect width="110" height="10" x="120" y="270" fill="#fe500c" /><rect width="20" height="10" x="90" y="280" fill="#fe500c" /><rect width="110" height="10" x="120" y="280" fill="#fe500c" /><rect width="20" height="10" x="90" y="290" fill="#fe500c" /><rect width="110" height="10" x="120" y="290" fill="#fe500c" /><rect width="20" height="10" x="90" y="300" fill="#fe500c" /><rect width="110" height="10" x="120" y="300" fill="#fe500c" /><rect width="20" height="10" x="90" y="310" fill="#fe500c" /><rect width="110" height="10" x="120" y="310" fill="#fe500c" /><rect width="10" height="10" x="140" y="50" fill="#fffdf2" /><rect width="10" height="10" x="160" y="50" fill="#fffdf2" /><rect width="10" height="10" x="180" y="50" fill="#fffdf2" /><rect width="30" height="10" x="150" y="60" fill="#fffdf2" /><rect width="30" height="10" x="150" y="70" fill="#fffdf2" /><rect width="10" height="10" x="140" y="80" fill="#fff0be" /><rect width="30" height="10" x="150" y="80" fill="#fffdf2" /><rect width="10" height="10" x="180" y="80" fill="#fff0be" /><rect width="10" height="10" x="100" y="90" fill="#fff0be" /><rect width="30" height="10" x="110" y="90" fill="#fffdf2" /><rect width="10" height="10" x="140" y="90" fill="#fff0be" /><rect width="30" height="10" x="150" y="90" fill="#fffdf2" /><rect width="10" height="10" x="180" y="90" fill="#fff0be" /><rect width="30" height="10" x="190" y="90" fill="#fffdf2" /><rect width="10" height="10" x="90" y="100" fill="#fffdf2" /><rect width="10" height="10" x="100" y="100" fill="#fff0be" /><rect width="30" height="10" x="110" y="100" fill="#fffdf2" /><rect width="10" height="10" x="140" y="100" fill="#fff0be" /><rect width="30" height="10" x="150" y="100" fill="#fffdf2" /><rect width="10" height="10" x="180" y="100" fill="#fff0be" /><rect width="30" height="10" x="190" y="100" fill="#fffdf2" /><rect width="10" height="10" x="220" y="100" fill="#fff0be" /><rect width="20" height="10" x="80" y="110" fill="#fffdf2" /><rect width="10" height="10" x="100" y="110" fill="#fff0be" /><rect width="30" height="10" x="110" y="110" fill="#fffdf2" /><rect width="10" height="10" x="140" y="110" fill="#fff0be" /><rect width="30" height="10" x="150" y="110" fill="#fffdf2" /><rect width="10" height="10" x="180" y="110" fill="#fff0be" /><rect width="30" height="10" x="190" y="110" fill="#fffdf2" /><rect width="10" height="10" x="220" y="110" fill="#fff0be" /><rect width="10" height="10" x="230" y="110" fill="#fffdf2" /><rect width="30" height="10" x="70" y="120" fill="#fffdf2" /><rect width="10" height="10" x="100" y="120" fill="#fff0be" /><rect width="30" height="10" x="110" y="120" fill="#fffdf2" /><rect width="10" height="10" x="140" y="120" fill="#fff0be" /><rect width="30" height="10" x="150" y="120" fill="#fffdf2" /><rect width="10" height="10" x="180" y="120" fill="#fff0be" /><rect width="30" height="10" x="190" y="120" fill="#fffdf2" /><rect width="10" height="10" x="220" y="120" fill="#fff0be" /><rect width="20" height="10" x="230" y="120" fill="#fffdf2" /><rect width="30" height="10" x="70" y="130" fill="#fffdf2" /><rect width="10" height="10" x="100" y="130" fill="#fff0be" /><rect width="30" height="10" x="110" y="130" fill="#fffdf2" /><rect width="10" height="10" x="140" y="130" fill="#fff0be" /><rect width="30" height="10" x="150" y="130" fill="#fffdf2" /><rect width="10" height="10" x="180" y="130" fill="#fff0be" /><rect width="30" height="10" x="190" y="130" fill="#fffdf2" /><rect width="10" height="10" x="220" y="130" fill="#fff0be" /><rect width="20" height="10" x="230" y="130" fill="#fffdf2" /><rect width="30" height="10" x="70" y="140" fill="#fffdf2" /><rect width="10" height="10" x="100" y="140" fill="#fff0be" /><rect width="30" height="10" x="110" y="140" fill="#fffdf2" /><rect width="10" height="10" x="140" y="140" fill="#fff0be" /><rect width="30" height="10" x="150" y="140" fill="#fffdf2" /><rect width="10" height="10" x="180" y="140" fill="#fff0be" /><rect width="30" height="10" x="190" y="140" fill="#fffdf2" /><rect width="10" height="10" x="220" y="140" fill="#fff0be" /><rect width="20" height="10" x="230" y="140" fill="#fffdf2" /><rect width="30" height="10" x="70" y="150" fill="#fffdf2" /><rect width="10" height="10" x="100" y="150" fill="#fff0be" /><rect width="30" height="10" x="110" y="150" fill="#fffdf2" /><rect width="10" height="10" x="140" y="150" fill="#fff0be" /><rect width="30" height="10" x="150" y="150" fill="#fffdf2" /><rect width="10" height="10" x="180" y="150" fill="#fff0be" /><rect width="30" height="10" x="190" y="150" fill="#fffdf2" /><rect width="10" height="10" x="220" y="150" fill="#fff0be" /><rect width="20" height="10" x="230" y="150" fill="#fffdf2" /><rect width="30" height="10" x="70" y="160" fill="#fffdf2" /><rect width="10" height="10" x="100" y="160" fill="#fff0be" /><rect width="30" height="10" x="110" y="160" fill="#fffdf2" /><rect width="10" height="10" x="140" y="160" fill="#fff0be" /><rect width="30" height="10" x="150" y="160" fill="#fffdf2" /><rect width="10" height="10" x="180" y="160" fill="#fff0be" /><rect width="30" height="10" x="190" y="160" fill="#fffdf2" /><rect width="10" height="10" x="220" y="160" fill="#fff0be" /><rect width="20" height="10" x="230" y="160" fill="#fffdf2" /><rect width="30" height="10" x="70" y="170" fill="#fffdf2" /><rect width="10" height="10" x="100" y="170" fill="#fff0be" /><rect width="10" height="10" x="110" y="170" fill="#fffdf2" /><rect width="10" height="10" x="120" y="170" fill="#8dd122" /><rect width="10" height="10" x="130" y="170" fill="#fffdf2" /><rect width="10" height="10" x="140" y="170" fill="#fff0be" /><rect width="30" height="10" x="150" y="170" fill="#fffdf2" /><rect width="10" height="10" x="180" y="170" fill="#fff0be" /><rect width="30" height="10" x="190" y="170" fill="#fffdf2" /><rect width="10" height="10" x="220" y="170" fill="#fff0be" /><rect width="20" height="10" x="230" y="170" fill="#fffdf2" /><rect width="30" height="10" x="70" y="180" fill="#fffdf2" /><rect width="10" height="10" x="100" y="180" fill="#fff0be" /><rect width="20" height="10" x="110" y="180" fill="#fffdf2" /><rect width="40" height="10" x="130" y="180" fill="#8dd122" /><rect width="10" height="10" x="170" y="180" fill="#fffdf2" /><rect width="10" height="10" x="180" y="180" fill="#fff0be" /><rect width="30" height="10" x="190" y="180" fill="#fffdf2" /><rect width="10" height="10" x="220" y="180" fill="#fff0be" /><rect width="20" height="10" x="230" y="180" fill="#fffdf2" /><rect width="20" height="10" x="80" y="190" fill="#fffdf2" /><rect width="10" height="10" x="100" y="190" fill="#fff0be" /><rect width="30" height="10" x="110" y="190" fill="#fffdf2" /><rect width="10" height="10" x="140" y="190" fill="#fff0be" /><rect width="30" height="10" x="150" y="190" fill="#fffdf2" /><rect width="10" height="10" x="180" y="190" fill="#fff0be" /><rect width="30" height="10" x="190" y="190" fill="#fffdf2" /><rect width="10" height="10" x="220" y="190" fill="#fff0be" /><rect width="10" height="10" x="230" y="190" fill="#fffdf2" /><rect width="10" height="10" x="90" y="200" fill="#fffdf2" /><rect width="10" height="10" x="100" y="200" fill="#fff0be" /><rect width="30" height="10" x="110" y="200" fill="#fffdf2" /><rect width="10" height="10" x="140" y="200" fill="#fff0be" /><rect width="30" height="10" x="150" y="200" fill="#fffdf2" /><rect width="10" height="10" x="180" y="200" fill="#fff0be" /><rect width="30" height="10" x="190" y="200" fill="#fffdf2" /><rect width="10" height="10" x="220" y="200" fill="#fff0be" /><rect width="60" height="10" x="100" y="110" fill="#000000" /><rect width="60" height="10" x="170" y="110" fill="#000000" /><rect width="10" height="10" x="100" y="120" fill="#000000" /><rect width="20" height="10" x="110" y="120" fill="#ffffff" /><rect width="30" height="10" x="130" y="120" fill="#000000" /><rect width="10" height="10" x="170" y="120" fill="#000000" /><rect width="20" height="10" x="180" y="120" fill="#ffffff" /><rect width="30" height="10" x="200" y="120" fill="#000000" /><rect width="40" height="10" x="70" y="130" fill="#000000" /><rect width="20" height="10" x="110" y="130" fill="#ffffff" /><rect width="50" height="10" x="130" y="130" fill="#000000" /><rect width="20" height="10" x="180" y="130" fill="#ffffff" /><rect width="30" height="10" x="200" y="130" fill="#000000" /><rect width="10" height="10" x="70" y="140" fill="#000000" /><rect width="10" height="10" x="100" y="140" fill="#000000" /><rect width="20" height="10" x="110" y="140" fill="#ffffff" /><rect width="30" height="10" x="130" y="140" fill="#000000" /><rect width="10" height="10" x="170" y="140" fill="#000000" /><rect width="20" height="10" x="180" y="140" fill="#ffffff" /><rect width="30" height="10" x="200" y="140" fill="#000000" /><rect width="10" height="10" x="70" y="150" fill="#000000" /><rect width="10" height="10" x="100" y="150" fill="#000000" /><rect width="20" height="10" x="110" y="150" fill="#ffffff" /><rect width="30" height="10" x="130" y="150" fill="#000000" /><rect width="10" height="10" x="170" y="150" fill="#000000" /><rect width="20" height="10" x="180" y="150" fill="#ffffff" /><rect width="30" height="10" x="200" y="150" fill="#000000" /><rect width="60" height="10" x="100" y="160" fill="#000000" /><rect width="60" height="10" x="170" y="160" fill="#000000" />
</g>
<g id="nouns142" transform="scale(3.2)" shape-rendering="crispEdges">
<rect width="140" height="10" x="90" y="210" fill="#c5b9a1" /><rect width="140" height="10" x="90" y="220" fill="#c5b9a1" /><rect width="140" height="10" x="90" y="230" fill="#c5b9a1" /><rect width="140" height="10" x="90" y="240" fill="#c5b9a1" /><rect width="20" height="10" x="90" y="250" fill="#c5b9a1" /><rect width="110" height="10" x="120" y="250" fill="#c5b9a1" /><rect width="20" height="10" x="90" y="260" fill="#c5b9a1" /><rect width="110" height="10" x="120" y="260" fill="#c5b9a1" /><rect width="20" height="10" x="90" y="270" fill="#c5b9a1" /><rect width="110" height="10" x="120" y="270" fill="#c5b9a1" /><rect width="20" height="10" x="90" y="280" fill="#c5b9a1" /><rect width="110" height="10" x="120" y="280" fill="#c5b9a1" /><rect width="20" height="10" x="90" y="290" fill="#c5b9a1" /><rect width="110" height="10" x="120" y="290" fill="#c5b9a1" /><rect width="20" height="10" x="90" y="300" fill="#c5b9a1" /><rect width="110" height="10" x="120" y="300" fill="#c5b9a1" /><rect width="20" height="10" x="90" y="310" fill="#c5b9a1" /><rect width="110" height="10" x="120" y="310" fill="#c5b9a1" /><rect width="20" height="10" x="130" y="230" fill="#abaaa8" /><rect width="20" height="10" x="160" y="230" fill="#abaaa8" /><rect width="10" height="10" x="130" y="240" fill="#abaaa8" /><rect width="20" height="10" x="160" y="240" fill="#abaaa8" /><rect width="20" height="10" x="130" y="250" fill="#abaaa8" /><rect width="20" height="10" x="160" y="250" fill="#abaaa8" /><rect width="20" height="10" x="130" y="270" fill="#abaaa8" /><rect width="10" height="10" x="160" y="270" fill="#abaaa8" /><rect width="10" height="10" x="180" y="270" fill="#abaaa8" /><rect width="20" height="10" x="130" y="280" fill="#abaaa8" /><rect width="20" height="10" x="160" y="280" fill="#abaaa8" /><rect width="10" height="10" x="130" y="290" fill="#abaaa8" /><rect width="10" height="10" x="160" y="290" fill="#abaaa8" /><rect width="50" height="10" x="130" y="30" fill="#f78a18" /><rect width="10" height="10" x="180" y="30" fill="#c54e38" /><rect width="40" height="10" x="110" y="40" fill="#f78a18" /><rect width="10" height="10" x="150" y="40" fill="#c54e38" /><rect width="20" height="10" x="160" y="40" fill="#f78a18" /><rect width="10" height="10" x="180" y="40" fill="#c54e38" /><rect width="20" height="10" x="190" y="40" fill="#f78a18" /><rect width="20" height="10" x="90" y="50" fill="#f78a18" /><rect width="20" height="10" x="110" y="50" fill="#c54e38" /><rect width="50" height="10" x="130" y="50" fill="#f78a18" /><rect width="10" height="10" x="180" y="50" fill="#c54e38" /><rect width="40" height="10" x="190" y="50" fill="#f78a18" /><rect width="50" height="10" x="80" y="60" fill="#f78a18" /><rect width="10" height="10" x="130" y="60" fill="#c54e38" /><rect width="40" height="10" x="140" y="60" fill="#f78a18" /><rect width="10" height="10" x="180" y="60" fill="#c54e38" /><rect width="40" height="10" x="190" y="60" fill="#f78a18" /><rect width="10" height="10" x="230" y="60" fill="#c54e38" /><rect width="10" height="10" x="80" y="70" fill="#f78a18" /><rect width="10" height="10" x="90" y="70" fill="#c54e38" /><rect width="40" height="10" x="100" y="70" fill="#f78a18" /><rect width="10" height="10" x="140" y="70" fill="#c54e38" /><rect width="30" height="10" x="150" y="70" fill="#f78a18" /><rect width="10" height="10" x="180" y="70" fill="#c54e38" /><rect width="30" height="10" x="190" y="70" fill="#f78a18" /><rect width="10" height="10" x="220" y="70" fill="#c54e38" /><rect width="10" height="10" x="230" y="70" fill="#f78a18" /><rect width="80" height="10" x="70" y="80" fill="#f78a18" /><rect width="10" height="10" x="150" y="80" fill="#c54e38" /><rect width="20" height="10" x="160" y="80" fill="#f78a18" /><rect width="10" height="10" x="180" y="80" fill="#c54e38" /><rect width="20" height="10" x="190" y="80" fill="#f78a18" /><rect width="10" height="10" x="210" y="80" fill="#c54e38" /><rect width="30" height="10" x="220" y="80" fill="#f78a18" /><rect width="10" height="10" x="70" y="90" fill="#f78a18" /><rect width="10" height="10" x="80" y="90" fill="#c54e38" /><rect width="70" height="10" x="90" y="90" fill="#f78a18" /><rect width="50" height="10" x="160" y="90" fill="#c54e38" /><rect width="40" height="10" x="210" y="90" fill="#f78a18" /><rect width="120" height="10" x="60" y="100" fill="#f78a18" /><rect width="10" height="10" x="180" y="100" fill="#c54e38" /><rect width="70" height="10" x="190" y="100" fill="#f78a18" /><rect width="120" height="10" x="60" y="110" fill="#f78a18" /><rect width="10" height="10" x="180" y="110" fill="#c54e38" /><rect width="70" height="10" x="190" y="110" fill="#f78a18" /><rect width="120" height="10" x="60" y="120" fill="#f78a18" /><rect width="10" height="10" x="180" y="120" fill="#c54e38" /><rect width="70" height="10" x="190" y="120" fill="#f78a18" /><rect width="200" height="10" x="60" y="130" fill="#c54e38" /><rect width="120" height="10" x="60" y="140" fill="#f78a18" /><rect width="10" height="10" x="180" y="140" fill="#c54e38" /><rect width="70" height="10" x="190" y="140" fill="#f78a18" /><rect width="120" height="10" x="60" y="150" fill="#f78a18" /><rect width="10" height="10" x="180" y="150" fill="#c54e38" /><rect width="70" height="10" x="190" y="150" fill="#f78a18" /><rect width="110" height="10" x="70" y="160" fill="#f78a18" /><rect width="10" height="10" x="180" y="160" fill="#c54e38" /><rect width="60" height="10" x="190" y="160" fill="#f78a18" /><rect width="90" height="10" x="70" y="170" fill="#f78a18" /><rect width="50" height="10" x="160" y="170" fill="#c54e38" /><rect width="40" height="10" x="210" y="170" fill="#f78a18" /><rect width="40" height="10" x="80" y="180" fill="#f78a18" /><rect width="10" height="10" x="120" y="180" fill="#fdf8ff" /><rect width="10" height="10" x="130" y="180" fill="#1f1d29" /><rect width="10" height="10" x="140" y="180" fill="#fdf8ff" /><rect width="10" height="10" x="150" y="180" fill="#1f1d29" /><rect width="10" height="10" x="160" y="180" fill="#fdf8ff" /><rect width="10" height="10" x="170" y="180" fill="#1f1d29" /><rect width="10" height="10" x="180" y="180" fill="#c54e38" /><rect width="20" height="10" x="190" y="180" fill="#f78a18" /><rect width="10" height="10" x="210" y="180" fill="#c54e38" /><rect width="20" height="10" x="220" y="180" fill="#f78a18" /><rect width="60" height="10" x="80" y="190" fill="#f78a18" /><rect width="10" height="10" x="140" y="190" fill="#c54e38" /><rect width="30" height="10" x="150" y="190" fill="#f78a18" /><rect width="10" height="10" x="180" y="190" fill="#c54e38" /><rect width="30" height="10" x="190" y="190" fill="#f78a18" /><rect width="10" height="10" x="220" y="190" fill="#c54e38" /><rect width="10" height="10" x="230" y="190" fill="#f78a18" /><rect width="40" height="10" x="90" y="200" fill="#f78a18" /><rect width="10" height="10" x="130" y="200" fill="#c54e38" /><rect width="40" height="10" x="140" y="200" fill="#f78a18" /><rect width="10" height="10" x="180" y="200" fill="#c54e38" /><rect width="40" height="10" x="190" y="200" fill="#f78a18" /><rect width="20" height="10" x="110" y="210" fill="#c54e38" /><rect width="50" height="10" x="130" y="210" fill="#f78a18" /><rect width="10" height="10" x="180" y="210" fill="#c54e38" /><rect width="20" height="10" x="190" y="210" fill="#f78a18" /><rect width="50" height="10" x="130" y="220" fill="#f78a18" /><rect width="10" height="10" x="180" y="220" fill="#c54e38" /><rect width="60" height="10" x="100" y="110" fill="#ffef16" /><rect width="60" height="10" x="170" y="110" fill="#ffef16" /><rect width="10" height="10" x="100" y="120" fill="#ffef16" /><rect width="20" height="10" x="110" y="120" fill="#ffffff" /><rect width="20" height="10" x="130" y="120" fill="#000000" /><rect width="10" height="10" x="150" y="120" fill="#ffef16" /><rect width="10" height="10" x="170" y="120" fill="#ffef16" /><rect width="20" height="10" x="180" y="120" fill="#ffffff" /><rect width="20" height="10" x="200" y="120" fill="#000000" /><rect width="10" height="10" x="220" y="120" fill="#ffef16" /><rect width="40" height="10" x="70" y="130" fill="#ffef16" /><rect width="20" height="10" x="110" y="130" fill="#ffffff" /><rect width="20" height="10" x="130" y="130" fill="#000000" /><rect width="30" height="10" x="150" y="130" fill="#ffef16" /><rect width="20" height="10" x="180" y="130" fill="#ffffff" /><rect width="20" height="10" x="200" y="130" fill="#000000" /><rect width="10" height="10" x="220" y="130" fill="#ffef16" /><rect width="10" height="10" x="70" y="140" fill="#ffef16" /><rect width="10" height="10" x="100" y="140" fill="#ffef16" /><rect width="20" height="10" x="110" y="140" fill="#ffffff" /><rect width="20" height="10" x="130" y="140" fill="#000000" /><rect width="10" height="10" x="150" y="140" fill="#ffef16" /><rect width="10" height="10" x="170" y="140" fill="#ffef16" /><rect width="20" height="10" x="180" y="140" fill="#ffffff" /><rect width="20" height="10" x="200" y="140" fill="#000000" /><rect width="10" height="10" x="220" y="140" fill="#ffef16" /><rect width="10" height="10" x="70" y="150" fill="#ffef16" /><rect width="10" height="10" x="100" y="150" fill="#ffef16" /><rect width="20" height="10" x="110" y="150" fill="#ffffff" /><rect width="20" height="10" x="130" y="150" fill="#000000" /><rect width="10" height="10" x="150" y="150" fill="#ffef16" /><rect width="10" height="10" x="170" y="150" fill="#ffef16" /><rect width="20" height="10" x="180" y="150" fill="#ffffff" /><rect width="20" height="10" x="200" y="150" fill="#000000" /><rect width="10" height="10" x="220" y="150" fill="#ffef16" /><rect width="60" height="10" x="100" y="160" fill="#ffef16" /><rect width="60" height="10" x="170" y="160" fill="#ffef16" />
</g>
<g id="nouns143" transform="scale(3.2)" shape-rendering="crispEdges">
<rect width="140" height="10" x="90" y="210" fill="#cfc2ab" /><rect width="140" height="10" x="90" y="220" fill="#cfc2ab" /><rect width="140" height="10" x="90" y="230" fill="#cfc2ab" /><rect width="140" height="10" x="90" y="240" fill="#cfc2ab" /><rect width="20" height="10" x="90" y="250" fill="#cfc2ab" /><rect width="110" height="10" x="120" y="250" fill="#cfc2ab" /><rect width="20" height="10" x="90" y="260" fill="#cfc2ab" /><rect width="110" height="10" x="120" y="260" fill="#cfc2ab" /><rect width="20" height="10" x="90" y="270" fill="#cfc2ab" /><rect width="110" height="10" x="120" y="270" fill="#cfc2ab" /><rect width="20" height="10" x="90" y="280" fill="#cfc2ab" /><rect width="110" height="10" x="120" y="280" fill="#cfc2ab" /><rect width="20" height="10" x="90" y="290" fill="#cfc2ab" /><rect width="110" height="10" x="120" y="290" fill="#cfc2ab" /><rect width="20" height="10" x="90" y="300" fill="#cfc2ab" /><rect width="110" height="10" x="120" y="300" fill="#cfc2ab" /><rect width="20" height="10" x="90" y="310" fill="#cfc2ab" /><rect width="110" height="10" x="120" y="310" fill="#cfc2ab" /><rect width="10" height="10" x="180" y="240" fill="#000000" /><rect width="20" height="10" x="140" y="250" fill="#000000" /><rect width="20" height="10" x="170" y="250" fill="#000000" /><rect width="20" height="10" x="170" y="260" fill="#000000" /><rect width="30" height="10" x="160" y="270" fill="#000000" /><rect width="20" height="10" x="170" y="280" fill="#000000" /><rect width="50" height="10" x="140" y="290" fill="#000000" /><rect width="40" height="10" x="100" y="20" fill="#068940" /><rect width="60" height="10" x="90" y="30" fill="#068940" /><rect width="60" height="10" x="160" y="30" fill="#4bea69" /><rect width="20" height="10" x="130" y="40" fill="#068940" /><rect width="90" height="10" x="150" y="40" fill="#4bea69" /><rect width="80" height="10" x="110" y="50" fill="#068940" /><rect width="30" height="10" x="190" y="50" fill="#4bea69" /><rect width="10" height="10" x="220" y="50" fill="#ae6c0a" /><rect width="30" height="10" x="230" y="50" fill="#4bea69" /><rect width="40" height="10" x="100" y="60" fill="#068940" /><rect width="10" height="10" x="140" y="60" fill="#ae6c0a" /><rect width="30" height="10" x="150" y="60" fill="#068940" /><rect width="30" height="10" x="180" y="60" fill="#4bea69" /><rect width="10" height="10" x="210" y="60" fill="#ae6c0a" /><rect width="30" height="10" x="240" y="60" fill="#4bea69" /><rect width="20" height="10" x="100" y="70" fill="#068940" /><rect width="20" height="10" x="140" y="70" fill="#ae6c0a" /><rect width="10" height="10" x="170" y="70" fill="#068940" /><rect width="20" height="10" x="180" y="70" fill="#4bea69" /><rect width="20" height="10" x="200" y="70" fill="#ae6c0a" /><rect width="20" height="10" x="250" y="70" fill="#4bea69" /><rect width="10" height="10" x="100" y="80" fill="#068940" /><rect width="20" height="10" x="150" y="80" fill="#ae6c0a" /><rect width="20" height="10" x="180" y="80" fill="#4bea69" /><rect width="10" height="10" x="200" y="80" fill="#ae6c0a" /><rect width="20" height="10" x="250" y="80" fill="#4bea69" /><rect width="20" height="10" x="150" y="90" fill="#ae6c0a" /><rect width="10" height="10" x="190" y="90" fill="#4bea69" /><rect width="10" height="10" x="200" y="90" fill="#ae6c0a" /><rect width="10" height="10" x="260" y="90" fill="#4bea69" /><rect width="60" height="10" x="100" y="100" fill="#068940" /><rect width="10" height="10" x="160" y="100" fill="#ae6c0a" /><rect width="20" height="10" x="190" y="100" fill="#ae6c0a" /><rect width="80" height="10" x="90" y="110" fill="#068940" /><rect width="10" height="10" x="170" y="110" fill="#ae6c0a" /><rect width="20" height="10" x="190" y="110" fill="#ae6c0a" /><rect width="80" height="10" x="90" y="120" fill="#068940" /><rect width="10" height="10" x="170" y="120" fill="#ae6c0a" /><rect width="20" height="10" x="190" y="120" fill="#ae6c0a" /><rect width="80" height="10" x="90" y="130" fill="#068940" /><rect width="10" height="10" x="170" y="130" fill="#ae6c0a" /><rect width="20" height="10" x="190" y="130" fill="#ae6c0a" /><rect width="80" height="10" x="90" y="140" fill="#068940" /><rect width="10" height="10" x="170" y="140" fill="#ae6c0a" /><rect width="20" height="10" x="190" y="140" fill="#ae6c0a" /><rect width="140" height="10" x="90" y="150" fill="#ffc110" /><rect width="160" height="10" x="80" y="160" fill="#ffc110" /><rect width="130" height="10" x="70" y="170" fill="#ffc110" /><rect width="10" height="10" x="200" y="170" fill="#ffc925" /><rect width="40" height="10" x="210" y="170" fill="#ffc110" /><rect width="20" height="10" x="60" y="180" fill="#ffc110" /><rect width="10" height="10" x="80" y="180" fill="#ffc925" /><rect width="10" height="10" x="90" y="180" fill="#ffc110" /><rect width="20" height="10" x="100" y="180" fill="#fff671" /><rect width="20" height="10" x="120" y="180" fill="#ffc110" /><rect width="20" height="10" x="140" y="180" fill="#fff671" /><rect width="20" height="10" x="160" y="180" fill="#ffc110" /><rect width="10" height="10" x="180" y="180" fill="#ffc925" /><rect width="30" height="10" x="190" y="180" fill="#ffc110" /><rect width="10" height="10" x="220" y="180" fill="#ffc925" /><rect width="30" height="10" x="230" y="180" fill="#ffc110" /><rect width="60" height="10" x="60" y="190" fill="#ffc110" /><rect width="20" height="10" x="120" y="190" fill="#fff671" /><rect width="60" height="10" x="140" y="190" fill="#ffc110" /><rect width="10" height="10" x="200" y="190" fill="#ffc925" /><rect width="50" height="10" x="210" y="190" fill="#ffc110" /><rect width="200" height="10" x="60" y="200" fill="#ffc110" /><rect width="60" height="10" x="100" y="110" fill="#ffc110" /><rect width="60" height="10" x="170" y="110" fill="#f98f30" /><rect width="10" height="10" x="100" y="120" fill="#ffc110" /><rect width="20" height="10" x="110" y="120" fill="#ffffff" /><rect width="20" height="10" x="130" y="120" fill="#000000" /><rect width="10" height="10" x="150" y="120" fill="#ffc110" /><rect width="10" height="10" x="170" y="120" fill="#f98f30" /><rect width="20" height="10" x="180" y="120" fill="#ffffff" /><rect width="20" height="10" x="200" y="120" fill="#000000" /><rect width="10" height="10" x="220" y="120" fill="#f98f30" /><rect width="30" height="10" x="70" y="130" fill="#f78a18" /><rect width="10" height="10" x="100" y="130" fill="#ffc110" /><rect width="20" height="10" x="110" y="130" fill="#ffffff" /><rect width="20" height="10" x="130" y="130" fill="#000000" /><rect width="10" height="10" x="150" y="130" fill="#ffc110" /><rect width="10" height="10" x="160" y="130" fill="#f78a18" /><rect width="10" height="10" x="170" y="130" fill="#f98f30" /><rect width="20" height="10" x="180" y="130" fill="#ffffff" /><rect width="20" height="10" x="200" y="130" fill="#000000" /><rect width="10" height="10" x="220" y="130" fill="#f98f30" /><rect width="10" height="10" x="70" y="140" fill="#ffc110" /><rect width="10" height="10" x="100" y="140" fill="#ffc110" /><rect width="20" height="10" x="110" y="140" fill="#ffffff" /><rect width="20" height="10" x="130" y="140" fill="#000000" /><rect width="10" height="10" x="150" y="140" fill="#ffc110" /><rect width="10" height="10" x="170" y="140" fill="#f98f30" /><rect width="20" height="10" x="180" y="140" fill="#ffffff" /><rect width="20" height="10" x="200" y="140" fill="#000000" /><rect width="10" height="10" x="220" y="140" fill="#f98f30" /><rect width="10" height="10" x="70" y="150" fill="#ffc110" /><rect width="10" height="10" x="100" y="150" fill="#ffc110" /><rect width="20" height="10" x="110" y="150" fill="#ffffff" /><rect width="20" height="10" x="130" y="150" fill="#000000" /><rect width="10" height="10" x="150" y="150" fill="#ffc110" /><rect width="10" height="10" x="170" y="150" fill="#f98f30" /><rect width="20" height="10" x="180" y="150" fill="#ffffff" /><rect width="20" height="10" x="200" y="150" fill="#000000" /><rect width="10" height="10" x="220" y="150" fill="#f98f30" /><rect width="60" height="10" x="100" y="160" fill="#ffc110" /><rect width="60" height="10" x="170" y="160" fill="#f98f30" />
</g>
<g x_x="x" id="circles141"><g x_x="x" transform="translate(102,204) scale(0.8)"><g x_x="x"><use href="#nouns141" transform="translate(46 524) scale(0.097) rotate(297,512,512)"/>
<circle cx="96" cy="574" r="55" fill="red" opacity="0.333"/>
</g>
<g x_x="x"><use href="#nouns142" transform="translate(278 35) scale(0.123) rotate(140,512,512)"/>
<circle cx="341" cy="98" r="69" fill="green" opacity="0.333"/>
</g>
<g x_x="x"><use href="#nouns143" transform="translate(832 547) scale(0.154) rotate(245,512,512)"/>
<circle cx="911" cy="626" r="86" fill="yellow" opacity="0.333"/>
</g>
<g x_x="x"><use href="#nouns141" transform="translate(258 345) scale(0.140) rotate(415,512,512)"/>
<circle cx="330" cy="417" r="79" fill="blue" opacity="0.333"/>
</g>
<g x_x="x"><use href="#nouns142" transform="translate(389 187) scale(0.236) rotate(357,512,512)"/>
<circle cx="510" cy="308" r="133" fill="red" opacity="0.333"/>
</g>
<g x_x="x"><use href="#nouns143" transform="translate(606 292) scale(0.185) rotate(260,512,512)"/>
<circle cx="701" cy="387" r="104" fill="green" opacity="0.333"/>
</g>
<g x_x="x"><use href="#nouns141" transform="translate(662 578) scale(0.146) rotate(311,512,512)"/>
<circle cx="737" cy="653" r="82" fill="yellow" opacity="0.333"/>
</g>
<g x_x="x"><use href="#nouns142" transform="translate(227 280) scale(0.421) rotate(356,512,512)"/>
<circle cx="443" cy="496" r="237" fill="blue" opacity="0.333"/>
</g>
<g x_x="x"><use href="#nouns143" transform="translate(171 207) scale(0.416) rotate(317,512,512)"/>
<circle cx="384" cy="420" r="234" fill="red" opacity="0.333"/>
</g>
<g x_x="x"><use href="#nouns141" transform="translate(174 271) scale(0.386) rotate(341,512,512)"/>
<circle cx="372" cy="469" r="217" fill="green" opacity="0.333"/>
</g>
</g>
<g x_x="x" fill="#224455" transform="scale(0.348)"><path d="M485 491 c-17 -165 -78 -226 -180 -238 -101 -12 -94 11 -108 22 l-2 -24 s-60 -2 -82 -2 -81 1 -94 0 c0 0 0 395 5 482 5 86 1 257 1 284 0 0 59 8 94 7 s63 -8 72 -11 c0 0 14 -165 3 -221 0 0 137 29 202 -7 s106 -127 88 -291 Zm-261 171 c-40 -4 -31 -78 -32 -134 -4 -135 42 -138 66 -135 24 3 74 17 76 146 2 130 -69 126 -109 122 Z"/>
<path d="M31 43 s-9 170 -9 243 3 503 3 515 c0 0 65 3 83 6 s78 4 99 -7 c0 0 1 -286 1 -299 0 0 58 142 65 154 s67 148 67 148 c0 0 69 3 85 5 s70 1 78 -7 c0 0 1 -404 1 -434 s1 -316 0 -328 c0 0 -37 -11 -88 -11 s-93 8 -93 8 c0 0 -2 109 -1 145 s3 145 3 145 c0 0 -52 -116 -64 -147 s-53 -123 -58 -129 S110 24 31 43 Z" transform="translate(498 0)"/>
<path d="M434 288 c-59 -48 -100 -49 -175 -52 -75 -3 -153 6 -193 37 -40 31 -53 147 -47 257 6 110 8 179 56 226 48 47 111 56 204 55 60 -1 176 9 191 -132 15 -141 22 -343 -37 -391 Zm-120 255 c-5 52 4 111 -70 104 -74 -7 -50 -110 -50 -131 0 -88 15 -110 66 -105 51 5 59 79 54 132 Z" transform="translate(1024 0)"/>
<path d="M8 268 s5 143 1 233 -11 264 46 284 112 45 220 -18 c0 0 2 39 3 41 s19 9 92 4 80 -1 80 -1 c0 0 4 -306 0 -368 s-2 -185 -2 -185 c0 0 -58 3 -76 2 s-64 0 -88 10 c0 0 -11 105 -3 164 s17 185 -44 191 -54 -77 -58 -171 3 -149 -3 -193 c0 0 -69 -1 -86 -1 s-82 8 -82 8 Z" transform="translate(1522 0)"/>
<path d="M7 251 s-2 467 1 552 c0 0 65 -1 93 1 s63 -6 73 -10 c0 0 6 -136 -1 -222 s6 -135 47 -134 53 24 58 174 -1 165 3 188 c0 0 78 1 97 2 s58 -6 69 -7 c0 0 -4 -217 0 -283 s8 -202 -45 -235 -151 -23 -221 19 c0 0 1 -32 -5 -41 s-64 -3 -88 -1 -63 2 -82 -3 Z" transform="translate(1983 0)"/>
<path d="M5 624 s3 106 73 149 c70 44 225 71 329 11 105 -61 93 -231 24 -268 -69 -37 -142 -46 -175 -52 -33 -7 -52 -61 -34 -80 18 -20 39 -28 58 -18 19 11 30 32 27 59 0 0 55 18 117 14 62 -3 67 -10 67 -10 0 0 -1 -91 -36 -132 -35 -41 -47 -56 -173 -62 -126 -6 -163 13 -211 46 -48 34 -55 94 -55 120 -1 76 83 133 125 149 s121 26 150 49 c10 8 12 39 7 51 -6 13 -3 17 -21 25 -15 7 -75 9 -83 -53 0 0 -83 -5 -105 -3 -22 1 -71 1 -84 6 Z" transform="translate(2439 0)"/>
</g>
<g x_x="x" fill="#224455" transform="translate(567 922) scale(0.1)"><path d="M465 116 C394 31 297 11 210 33 c0 0 -158 46 -182 197 -12 25 -11 75 -13 176 -1 101 -2 235 57 302 59 68 139 115 268 76 s192 -254 197 -361 c5 -107 -2 -223 -73 -307 Zm-139 340 c-4 131 -26 153 -57 154 -32 1 -29 -11 -46 -55 -17 -43 -17 -154 -17 -154 11 -142 11 -194 64 -192 s61 115 57 247 Z"/>
<path d="M188 295 s-9 244 -11 295 -2 198 -2 198 c0 0 78 13 124 12 s78 -5 79 -22 5 -374 8 -415 4 -323 -2 -337 c0 0 -95 -6 -130 -5 s-99 2 -103 1 c0 0 -67 100 -84 128 S9 251 10 269 c0 0 27 20 75 31 s70 15 75 15 24 -7 28 -19 Z" transform="translate(554 0)"/>
<path d="M513 436 s-39 -1 -44 -3 -27 -3 -29 -1 c0 0 2 -203 3 -221 s6 -168 6 -175 c0 0 -26 -8 -68 -6 -42 2 -123 4 -132 3 0 0 -97 149 -125 196 S13 425 9 430 c0 0 -5 121 11 154 0 0 -6 9 68 10 s147 0 162 -3 c0 0 -7 99 -8 121 -2 22 -5 84 2 90 0 0 121 1 138 0 17 -1 42 -6 44 -12 3 -7 13 -163 14 -169 1 -6 -1 -14 -3 -15 0 0 30 -1 43 1 13 2 26 1 26 1 0 0 6 -162 6 -172 Zm-239 2 c-10 1 -100 -3 -100 -3 11 -1 39 -61 46 -78 8 -16 61 -125 61 -125 1 15 -8 207 -8 207 Z" transform="translate(968 0)"/>
<path d="M188 295 s-9 244 -11 295 -2 198 -2 198 c0 0 78 13 124 12 s78 -5 79 -22 5 -374 8 -415 4 -323 -2 -337 c0 0 -95 -6 -130 -5 s-99 2 -103 1 c0 0 -67 100 -84 128 S9 251 10 269 c0 0 27 20 75 31 s70 15 75 15 24 -7 28 -19 Z" transform="translate(1494 0)"/>
<path d="M110 800 s52 2 76 -6 c0 0 5 -3 12 -26 s57 -142 72 -185 78 -229 91 -265 40 -113 48 -137 38 -122 38 -126 -4 -7 -6 -7 c0 0 3 -6 9 -7 0 0 -15 -15 -74 -13 s-86 -1 -97 -5 c0 0 -28 102 -41 136 s-28 83 -28 85 -9 34 -14 44 -65 177 -71 192 -38 108 -43 119 -42 112 -35 102 c0 0 -25 63 -24 73 s-3 26 12 26 74 -1 74 -1 Z" transform="translate(1908 0)"/>
<path d="M211 343 s10 -90 24 -109 57 -42 75 13 -2 102 -52 129 -76 51 -129 83 -74 59 -78 65 -24 36 -29 79 -10 187 -11 195 c0 0 15 4 30 5 s189 -5 212 -5 238 -3 246 -3 8 -6 8 -9 -3 -73 -1 -85 -3 -52 -10 -68 c0 0 -252 6 -279 2 0 0 35 -75 72 -97 s153 -76 185 -112 49 -59 49 -129 -4 -170 -92 -236 -270 -32 -320 2 S-10 187 21 344 c0 0 57 21 190 -1 Z" transform="translate(2369 0)"/>
<path d="M465 116 C394 31 297 11 210 33 c0 0 -158 46 -182 197 -12 25 -11 75 -13 176 -1 101 -2 235 57 302 59 68 139 115 268 76 s192 -254 197 -361 c5 -107 -2 -223 -73 -307 Zm-139 340 c-4 131 -26 153 -57 154 -32 1 -29 -11 -46 -55 -17 -43 -17 -154 -17 -154 11 -142 11 -194 64 -192 s61 115 57 247 Z" transform="translate(2909 0)"/>
<path d="M465 116 C394 31 297 11 210 33 c0 0 -158 46 -182 197 -12 25 -11 75 -13 176 -1 101 -2 235 57 302 59 68 139 115 268 76 s192 -254 197 -361 c5 -107 -2 -223 -73 -307 Zm-139 340 c-4 131 -26 153 -57 154 -32 1 -29 -11 -46 -55 -17 -43 -17 -154 -17 -154 11 -142 11 -194 64 -192 s61 115 57 247 Z" transform="translate(3463 0)"/>
<path d="M465 116 C394 31 297 11 210 33 c0 0 -158 46 -182 197 -12 25 -11 75 -13 176 -1 101 -2 235 57 302 59 68 139 115 268 76 s192 -254 197 -361 c5 -107 -2 -223 -73 -307 Zm-139 340 c-4 131 -26 153 -57 154 -32 1 -29 -11 -46 -55 -17 -43 -17 -154 -17 -154 11 -142 11 -194 64 -192 s61 115 57 247 Z" transform="translate(4017 0)"/>
</g>
</g>
</defs>
<use href="#circles141" />
</svg>
