<svg viewBox="0 0 1024 1024"  xmlns="http://www.w3.org/2000/svg">
<defs>
<g id="nouns1777" transform="scale(3.2)" shape-rendering="crispEdges">
<rect width="140" height="10" x="90" y="210" fill="#d22209" /><rect width="140" height="10" x="90" y="220" fill="#d22209" /><rect width="140" height="10" x="90" y="230" fill="#d22209" /><rect width="140" height="10" x="90" y="240" fill="#d22209" /><rect width="20" height="10" x="90" y="250" fill="#d22209" /><rect width="110" height="10" x="120" y="250" fill="#d22209" /><rect width="20" height="10" x="90" y="260" fill="#d22209" /><rect width="110" height="10" x="120" y="260" fill="#d22209" /><rect width="20" height="10" x="90" y="270" fill="#d22209" /><rect width="110" height="10" x="120" y="270" fill="#d22209" /><rect width="20" height="10" x="90" y="280" fill="#d22209" /><rect width="110" height="10" x="120" y="280" fill="#d22209" /><rect width="20" height="10" x="90" y="290" fill="#d22209" /><rect width="110" height="10" x="120" y="290" fill="#d22209" /><rect width="20" height="10" x="90" y="300" fill="#d22209" /><rect width="110" height="10" x="120" y="300" fill="#d22209" /><rect width="20" height="10" x="90" y="310" fill="#d22209" /><rect width="110" height="10" x="120" y="310" fill="#d22209" /><rect width="10" height="10" x="130" y="230" fill="#abf131" /><rect width="10" height="10" x="150" y="230" fill="#abf131" /><rect width="20" height="10" x="170" y="230" fill="#fff0be" /><rect width="10" height="10" x="140" y="240" fill="#abf131" /><rect width="20" height="10" x="170" y="240" fill="#fff0be" /><rect width="10" height="10" x="140" y="250" fill="#abf131" /><rect width="20" height="10" x="170" y="250" fill="#fff0be" /><rect width="10" height="10" x="130" y="270" fill="#fff0be" /><rect width="20" height="10" x="160" y="270" fill="#abf131" /><rect width="10" height="10" x="130" y="280" fill="#fff0be" /><rect width="20" height="10" x="160" y="280" fill="#abf131" /><rect width="20" height="10" x="130" y="290" fill="#fff0be" /><rect width="20" height="10" x="160" y="290" fill="#abf131" /><rect width="80" height="10" x="50" y="80" fill="#d6c3be" /><rect width="140" height="10" x="130" y="80" fill="#a3baed" /><rect width="20" height="10" x="30" y="90" fill="#7e5243" /><rect width="10" height="10" x="50" y="90" fill="#d6c3be" /><rect width="80" height="10" x="60" y="90" fill="#fff0ee" /><rect width="140" height="10" x="140" y="90" fill="#9cb4b8" /><rect width="10" height="10" x="280" y="90" fill="#7e5243" /><rect width="10" height="10" x="30" y="100" fill="#7e5243" /><rect width="10" height="10" x="40" y="100" fill="#000000" /><rect width="10" height="10" x="50" y="100" fill="#d6c3be" /><rect width="80" height="10" x="60" y="100" fill="#fff0ee" /><rect width="140" height="10" x="140" y="100" fill="#9cb4b8" /><rect width="10" height="10" x="280" y="100" fill="#7e5243" /><rect width="130" height="10" x="30" y="110" fill="#7e5243" /><rect width="10" height="10" x="160" y="110" fill="#5a423f" /><rect width="120" height="10" x="170" y="110" fill="#7e5243" /><rect width="10" height="10" x="30" y="120" fill="#7e5243" /><rect width="110" height="10" x="40" y="120" fill="#d6c3be" /><rect width="10" height="10" x="150" y="120" fill="#7e5243" /><rect width="10" height="10" x="160" y="120" fill="#5a423f" /><rect width="10" height="10" x="170" y="120" fill="#7e5243" /><rect width="100" height="10" x="180" y="120" fill="#2b83f6" /><rect width="10" height="10" x="280" y="120" fill="#7e5243" /><rect width="10" height="10" x="30" y="130" fill="#7e5243" /><rect width="10" height="10" x="40" y="130" fill="#d6c3be" /><rect width="50" height="10" x="50" y="130" fill="#b2958d" /><rect width="50" height="10" x="100" y="130" fill="#d6c3be" /><rect width="10" height="10" x="150" y="130" fill="#7e5243" /><rect width="10" height="10" x="160" y="130" fill="#5a423f" /><rect width="120" height="10" x="170" y="130" fill="#7e5243" /><rect width="10" height="10" x="30" y="140" fill="#7e5243" /><rect width="10" height="10" x="40" y="140" fill="#d6c3be" /><rect width="10" height="10" x="50" y="140" fill="#b2958d" /><rect width="30" height="10" x="60" y="140" fill="#d6c3be" /><rect width="10" height="10" x="90" y="140" fill="#b2958d" /><rect width="50" height="10" x="100" y="140" fill="#d6c3be" /><rect width="10" height="10" x="150" y="140" fill="#7e5243" /><rect width="10" height="10" x="160" y="140" fill="#5a423f" /><rect width="10" height="10" x="170" y="140" fill="#7e5243" /><rect width="100" height="10" x="180" y="140" fill="#ffc110" /><rect width="10" height="10" x="280" y="140" fill="#7e5243" /><rect width="10" height="10" x="30" y="150" fill="#7e5243" /><rect width="10" height="10" x="40" y="150" fill="#d6c3be" /><rect width="10" height="10" x="50" y="150" fill="#b2958d" /><rect width="30" height="10" x="60" y="150" fill="#d6c3be" /><rect width="10" height="10" x="90" y="150" fill="#b2958d" /><rect width="50" height="10" x="100" y="150" fill="#d6c3be" /><rect width="10" height="10" x="150" y="150" fill="#7e5243" /><rect width="10" height="10" x="160" y="150" fill="#5a423f" /><rect width="120" height="10" x="170" y="150" fill="#7e5243" /><rect width="10" height="10" x="30" y="160" fill="#7e5243" /><rect width="10" height="10" x="40" y="160" fill="#d6c3be" /><rect width="20" height="10" x="50" y="160" fill="#b2958d" /><rect width="10" height="10" x="70" y="160" fill="#d6c3be" /><rect width="20" height="10" x="80" y="160" fill="#b2958d" /><rect width="50" height="10" x="100" y="160" fill="#d6c3be" /><rect width="10" height="10" x="150" y="160" fill="#7e5243" /><rect width="10" height="10" x="160" y="160" fill="#5a423f" /><rect width="10" height="10" x="170" y="160" fill="#7e5243" /><rect width="100" height="10" x="180" y="160" fill="#a86f60" /><rect width="10" height="10" x="280" y="160" fill="#7e5243" /><rect width="10" height="10" x="30" y="170" fill="#7e5243" /><rect width="10" height="10" x="40" y="170" fill="#d6c3be" /><rect width="10" height="10" x="50" y="170" fill="#b2958d" /><rect width="30" height="10" x="60" y="170" fill="#d6c3be" /><rect width="10" height="10" x="90" y="170" fill="#b2958d" /><rect width="50" height="10" x="100" y="170" fill="#d6c3be" /><rect width="10" height="10" x="150" y="170" fill="#7e5243" /><rect width="10" height="10" x="160" y="170" fill="#5a423f" /><rect width="10" height="10" x="170" y="170" fill="#7e5243" /><rect width="100" height="10" x="180" y="170" fill="#a86f60" /><rect width="10" height="10" x="280" y="170" fill="#7e5243" /><rect width="10" height="10" x="30" y="180" fill="#7e5243" /><rect width="10" height="10" x="40" y="180" fill="#d6c3be" /><rect width="50" height="10" x="50" y="180" fill="#b2958d" /><rect width="10" height="10" x="100" y="180" fill="#d6c3be" /><rect width="30" height="10" x="110" y="180" fill="#d9391f" /><rect width="10" height="10" x="140" y="180" fill="#d6c3be" /><rect width="10" height="10" x="150" y="180" fill="#7e5243" /><rect width="10" height="10" x="160" y="180" fill="#5a423f" /><rect width="120" height="10" x="170" y="180" fill="#7e5243" /><rect width="10" height="10" x="30" y="190" fill="#7e5243" /><rect width="110" height="10" x="40" y="190" fill="#d6c3be" /><rect width="10" height="10" x="150" y="190" fill="#7e5243" /><rect width="10" height="10" x="160" y="190" fill="#5a423f" /><rect width="120" height="10" x="170" y="190" fill="#7e5243" /><rect width="130" height="10" x="30" y="200" fill="#7e5243" /><rect width="10" height="10" x="160" y="200" fill="#5a423f" /><rect width="120" height="10" x="170" y="200" fill="#7e5243" /><rect width="60" height="10" x="100" y="110" fill="#2b83f6" /><rect width="60" height="10" x="170" y="110" fill="#2b83f6" /><rect width="10" height="10" x="100" y="120" fill="#2b83f6" /><rect width="20" height="10" x="110" y="120" fill="#ffffff" /><rect width="20" height="10" x="130" y="120" fill="#000000" /><rect width="10" height="10" x="150" y="120" fill="#2b83f6" /><rect width="10" height="10" x="170" y="120" fill="#2b83f6" /><rect width="20" height="10" x="180" y="120" fill="#ffffff" /><rect width="20" height="10" x="200" y="120" fill="#000000" /><rect width="10" height="10" x="220" y="120" fill="#2b83f6" /><rect width="40" height="10" x="70" y="130" fill="#2b83f6" /><rect width="20" height="10" x="110" y="130" fill="#ffffff" /><rect width="20" height="10" x="130" y="130" fill="#000000" /><rect width="30" height="10" x="150" y="130" fill="#2b83f6" /><rect width="20" height="10" x="180" y="130" fill="#ffffff" /><rect width="20" height="10" x="200" y="130" fill="#000000" /><rect width="10" height="10" x="220" y="130" fill="#2b83f6" /><rect width="10" height="10" x="70" y="140" fill="#2b83f6" /><rect width="10" height="10" x="100" y="140" fill="#2b83f6" /><rect width="20" height="10" x="110" y="140" fill="#ffffff" /><rect width="20" height="10" x="130" y="140" fill="#000000" /><rect width="10" height="10" x="150" y="140" fill="#2b83f6" /><rect width="10" height="10" x="170" y="140" fill="#2b83f6" /><rect width="20" height="10" x="180" y="140" fill="#ffffff" /><rect width="20" height="10" x="200" y="140" fill="#000000" /><rect width="10" height="10" x="220" y="140" fill="#2b83f6" /><rect width="10" height="10" x="70" y="150" fill="#2b83f6" /><rect width="10" height="10" x="100" y="150" fill="#2b83f6" /><rect width="20" height="10" x="110" y="150" fill="#ffffff" /><rect width="20" height="10" x="130" y="150" fill="#000000" /><rect width="10" height="10" x="150" y="150" fill="#2b83f6" /><rect width="10" height="10" x="170" y="150" fill="#2b83f6" /><rect width="20" height="10" x="180" y="150" fill="#ffffff" /><rect width="20" height="10" x="200" y="150" fill="#000000" /><rect width="10" height="10" x="220" y="150" fill="#2b83f6" /><rect width="60" height="10" x="100" y="160" fill="#2b83f6" /><rect width="60" height="10" x="170" y="160" fill="#2b83f6" />
</g>
<g id="nouns1778" transform="scale(3.2)" shape-rendering="crispEdges">
<rect width="140" height="10" x="90" y="210" fill="#d26451" /><rect width="140" height="10" x="90" y="220" fill="#d26451" /><rect width="140" height="10" x="90" y="230" fill="#d26451" /><rect width="140" height="10" x="90" y="240" fill="#d26451" /><rect width="20" height="10" x="90" y="250" fill="#d26451" /><rect width="110" height="10" x="120" y="250" fill="#d26451" /><rect width="20" height="10" x="90" y="260" fill="#d26451" /><rect width="110" height="10" x="120" y="260" fill="#d26451" /><rect width="20" height="10" x="90" y="270" fill="#d26451" /><rect width="110" height="10" x="120" y="270" fill="#d26451" /><rect width="20" height="10" x="90" y="280" fill="#d26451" /><rect width="110" height="10" x="120" y="280" fill="#d26451" /><rect width="20" height="10" x="90" y="290" fill="#d26451" /><rect width="110" height="10" x="120" y="290" fill="#d26451" /><rect width="20" height="10" x="90" y="300" fill="#d26451" /><rect width="110" height="10" x="120" y="300" fill="#d26451" /><rect width="20" height="10" x="90" y="310" fill="#d26451" /><rect width="110" height="10" x="120" y="310" fill="#d26451" /><rect width="10" height="10" x="150" y="220" fill="#ffffff" /><rect width="10" height="10" x="170" y="220" fill="#ffffff" /><rect width="10" height="10" x="150" y="230" fill="#ffffff" /><rect width="10" height="10" x="170" y="230" fill="#ffffff" /><rect width="10" height="10" x="150" y="240" fill="#ffffff" /><rect width="10" height="10" x="170" y="240" fill="#ffffff" /><rect width="10" height="10" x="150" y="250" fill="#ffffff" /><rect width="10" height="10" x="170" y="250" fill="#d7d3cd" /><rect width="10" height="10" x="150" y="260" fill="#ffffff" /><rect width="10" height="10" x="150" y="270" fill="#d7d3cd" /><rect width="30" height="10" x="90" y="40" fill="#fff671" /><rect width="20" height="10" x="140" y="40" fill="#fff671" /><rect width="40" height="10" x="180" y="40" fill="#fff671" /><rect width="10" height="10" x="80" y="50" fill="#fff671" /><rect width="20" height="10" x="90" y="50" fill="#c4da53" /><rect width="30" height="10" x="110" y="50" fill="#fff671" /><rect width="10" height="10" x="140" y="50" fill="#c4da53" /><rect width="90" height="10" x="150" y="50" fill="#fff671" /><rect width="10" height="10" x="80" y="60" fill="#fff671" /><rect width="20" height="10" x="90" y="60" fill="#c4da53" /><rect width="90" height="10" x="110" y="60" fill="#fff671" /><rect width="30" height="10" x="200" y="60" fill="#c4da53" /><rect width="20" height="10" x="230" y="60" fill="#fff671" /><rect width="70" height="10" x="90" y="70" fill="#fff671" /><rect width="20" height="10" x="160" y="70" fill="#c4da53" /><rect width="20" height="10" x="180" y="70" fill="#fff671" /><rect width="30" height="10" x="200" y="70" fill="#c4da53" /><rect width="20" height="10" x="230" y="70" fill="#fff671" /><rect width="30" height="10" x="90" y="80" fill="#fff671" /><rect width="20" height="10" x="120" y="80" fill="#c4da53" /><rect width="20" height="10" x="140" y="80" fill="#fff671" /><rect width="20" height="10" x="160" y="80" fill="#c4da53" /><rect width="20" height="10" x="180" y="80" fill="#fff671" /><rect width="30" height="10" x="200" y="80" fill="#c4da53" /><rect width="20" height="10" x="230" y="80" fill="#fff671" /><rect width="30" height="10" x="90" y="90" fill="#fff671" /><rect width="20" height="10" x="120" y="90" fill="#c4da53" /><rect width="100" height="10" x="140" y="90" fill="#fff671" /><rect width="160" height="10" x="80" y="100" fill="#fff671" /><rect width="160" height="10" x="80" y="110" fill="#fff671" /><rect width="170" height="10" x="80" y="120" fill="#fff671" /><rect width="170" height="10" x="80" y="130" fill="#fff671" /><rect width="170" height="10" x="80" y="140" fill="#fff671" /><rect width="170" height="10" x="80" y="150" fill="#fff671" /><rect width="160" height="10" x="80" y="160" fill="#fff671" /><rect width="10" height="10" x="80" y="170" fill="#fff671" /><rect width="20" height="10" x="90" y="170" fill="#c4da53" /><rect width="130" height="10" x="110" y="170" fill="#fff671" /><rect width="10" height="10" x="80" y="180" fill="#fff671" /><rect width="20" height="10" x="90" y="180" fill="#c4da53" /><rect width="30" height="10" x="110" y="180" fill="#fff671" /><rect width="50" height="10" x="140" y="180" fill="#000000" /><rect width="40" height="10" x="190" y="180" fill="#fff671" /><rect width="130" height="10" x="90" y="190" fill="#fff671" /><rect width="10" height="10" x="220" y="190" fill="#c4da53" /><rect width="10" height="10" x="230" y="190" fill="#fff671" /><rect width="140" height="10" x="90" y="200" fill="#fff671" /><rect width="60" height="10" x="100" y="110" fill="#068940" /><rect width="60" height="10" x="170" y="110" fill="#257ced" /><rect width="10" height="10" x="100" y="120" fill="#068940" /><rect width="20" height="10" x="110" y="120" fill="#ffffff" /><rect width="20" height="10" x="130" y="120" fill="#000000" /><rect width="10" height="10" x="150" y="120" fill="#068940" /><rect width="10" height="10" x="170" y="120" fill="#257ced" /><rect width="20" height="10" x="180" y="120" fill="#ffffff" /><rect width="20" height="10" x="200" y="120" fill="#000000" /><rect width="10" height="10" x="220" y="120" fill="#257ced" /><rect width="30" height="10" x="70" y="130" fill="#254efb" /><rect width="10" height="10" x="100" y="130" fill="#068940" /><rect width="20" height="10" x="110" y="130" fill="#ffffff" /><rect width="20" height="10" x="130" y="130" fill="#000000" /><rect width="10" height="10" x="150" y="130" fill="#068940" /><rect width="10" height="10" x="160" y="130" fill="#254efb" /><rect width="10" height="10" x="170" y="130" fill="#257ced" /><rect width="20" height="10" x="180" y="130" fill="#ffffff" /><rect width="20" height="10" x="200" y="130" fill="#000000" /><rect width="10" height="10" x="220" y="130" fill="#257ced" /><rect width="10" height="10" x="70" y="140" fill="#257ced" /><rect width="10" height="10" x="100" y="140" fill="#068940" /><rect width="20" height="10" x="110" y="140" fill="#ffffff" /><rect width="20" height="10" x="130" y="140" fill="#000000" /><rect width="10" height="10" x="150" y="140" fill="#068940" /><rect width="10" height="10" x="170" y="140" fill="#257ced" /><rect width="20" height="10" x="180" y="140" fill="#ffffff" /><rect width="20" height="10" x="200" y="140" fill="#000000" /><rect width="10" height="10" x="220" y="140" fill="#257ced" /><rect width="10" height="10" x="70" y="150" fill="#257ced" /><rect width="10" height="10" x="100" y="150" fill="#068940" /><rect width="20" height="10" x="110" y="150" fill="#ffffff" /><rect width="20" height="10" x="130" y="150" fill="#000000" /><rect width="10" height="10" x="150" y="150" fill="#068940" /><rect width="10" height="10" x="170" y="150" fill="#257ced" /><rect width="20" height="10" x="180" y="150" fill="#ffffff" /><rect width="20" height="10" x="200" y="150" fill="#000000" /><rect width="10" height="10" x="220" y="150" fill="#257ced" /><rect width="60" height="10" x="100" y="160" fill="#068940" /><rect width="60" height="10" x="170" y="160" fill="#257ced" />
</g>
<g id="nouns1779" transform="scale(3.2)" shape-rendering="crispEdges">
<rect width="140" height="10" x="90" y="210" fill="#cfc2ab" /><rect width="140" height="10" x="90" y="220" fill="#cfc2ab" /><rect width="140" height="10" x="90" y="230" fill="#cfc2ab" /><rect width="140" height="10" x="90" y="240" fill="#cfc2ab" /><rect width="20" height="10" x="90" y="250" fill="#cfc2ab" /><rect width="110" height="10" x="120" y="250" fill="#cfc2ab" /><rect width="20" height="10" x="90" y="260" fill="#cfc2ab" /><rect width="110" height="10" x="120" y="260" fill="#cfc2ab" /><rect width="20" height="10" x="90" y="270" fill="#cfc2ab" /><rect width="110" height="10" x="120" y="270" fill="#cfc2ab" /><rect width="20" height="10" x="90" y="280" fill="#cfc2ab" /><rect width="110" height="10" x="120" y="280" fill="#cfc2ab" /><rect width="20" height="10" x="90" y="290" fill="#cfc2ab" /><rect width="110" height="10" x="120" y="290" fill="#cfc2ab" /><rect width="20" height="10" x="90" y="300" fill="#cfc2ab" /><rect width="110" height="10" x="120" y="300" fill="#cfc2ab" /><rect width="20" height="10" x="90" y="310" fill="#cfc2ab" /><rect width="110" height="10" x="120" y="310" fill="#cfc2ab" /><rect width="140" height="10" x="90" y="210" fill="#c5b9a1" /><rect width="140" height="10" x="90" y="220" fill="#c5b9a1" /><rect width="140" height="10" x="90" y="230" fill="#c5b9a1" /><rect width="140" height="10" x="90" y="240" fill="#c5b9a1" /><rect width="20" height="10" x="90" y="250" fill="#c5b9a1" /><rect width="110" height="10" x="120" y="250" fill="#c5b9a1" /><rect width="20" height="10" x="90" y="260" fill="#c5b9a1" /><rect width="110" height="10" x="120" y="260" fill="#c5b9a1" /><rect width="20" height="10" x="90" y="270" fill="#c5b9a1" /><rect width="110" height="10" x="120" y="270" fill="#c5b9a1" /><rect width="20" height="10" x="90" y="280" fill="#c5b9a1" /><rect width="110" height="10" x="120" y="280" fill="#c5b9a1" /><rect width="20" height="10" x="90" y="290" fill="#c5b9a1" /><rect width="110" height="10" x="120" y="290" fill="#c5b9a1" /><rect width="20" height="10" x="90" y="300" fill="#c5b9a1" /><rect width="110" height="10" x="120" y="300" fill="#c5b9a1" /><rect width="20" height="10" x="90" y="310" fill="#c5b9a1" /><rect width="110" height="10" x="120" y="310" fill="#c5b9a1" /><rect width="200" height="10" x="60" y="70" fill="#1f1d29" /><rect width="20" height="10" x="50" y="80" fill="#1f1d29" /><rect width="180" height="10" x="70" y="80" fill="#ffffff" /><rect width="20" height="10" x="250" y="80" fill="#1f1d29" /><rect width="20" height="10" x="50" y="90" fill="#1f1d29" /><rect width="10" height="10" x="70" y="90" fill="#ffffff" /><rect width="10" height="10" x="80" y="90" fill="#1f1d29" /><rect width="160" height="10" x="90" y="90" fill="#ffffff" /><rect width="20" height="10" x="250" y="90" fill="#1f1d29" /><rect width="10" height="10" x="50" y="100" fill="#1f1d29" /><rect width="10" height="10" x="60" y="100" fill="#ffffff" /><rect width="10" height="10" x="70" y="100" fill="#1f1d29" /><rect width="10" height="10" x="80" y="100" fill="#ffffff" /><rect width="10" height="10" x="90" y="100" fill="#1f1d29" /><rect width="160" height="10" x="100" y="100" fill="#ffffff" /><rect width="10" height="10" x="260" y="100" fill="#1f1d29" /><rect width="10" height="10" x="50" y="110" fill="#1f1d29" /><rect width="50" height="10" x="60" y="110" fill="#d6c3be" /><rect width="10" height="10" x="110" y="110" fill="#ffffff" /><rect width="30" height="10" x="120" y="110" fill="#d6c3be" /><rect width="20" height="10" x="150" y="110" fill="#ffffff" /><rect width="30" height="10" x="170" y="110" fill="#d6c3be" /><rect width="10" height="10" x="200" y="110" fill="#ffffff" /><rect width="50" height="10" x="210" y="110" fill="#d6c3be" /><rect width="10" height="10" x="260" y="110" fill="#1f1d29" /><rect width="10" height="10" x="50" y="120" fill="#1f1d29" /><rect width="40" height="10" x="60" y="120" fill="#d6c3be" /><rect width="30" height="10" x="100" y="120" fill="#ffffff" /><rect width="30" height="10" x="130" y="120" fill="#d6c3be" /><rect width="10" height="10" x="160" y="120" fill="#ffffff" /><rect width="20" height="10" x="170" y="120" fill="#d6c3be" /><rect width="30" height="10" x="190" y="120" fill="#ffffff" /><rect width="40" height="10" x="220" y="120" fill="#d6c3be" /><rect width="10" height="10" x="260" y="120" fill="#1f1d29" /><rect width="10" height="10" x="50" y="130" fill="#1f1d29" /><rect width="40" height="10" x="60" y="130" fill="#d6c3be" /><rect width="30" height="10" x="100" y="130" fill="#ffffff" /><rect width="30" height="10" x="130" y="130" fill="#d6c3be" /><rect width="10" height="10" x="160" y="130" fill="#ffffff" /><rect width="20" height="10" x="170" y="130" fill="#d6c3be" /><rect width="30" height="10" x="190" y="130" fill="#ffffff" /><rect width="40" height="10" x="220" y="130" fill="#d6c3be" /><rect width="10" height="10" x="260" y="130" fill="#1f1d29" /><rect width="10" height="10" x="50" y="140" fill="#1f1d29" /><rect width="50" height="10" x="60" y="140" fill="#d6c3be" /><rect width="10" height="10" x="110" y="140" fill="#ffffff" /><rect width="30" height="10" x="120" y="140" fill="#d6c3be" /><rect width="20" height="10" x="150" y="140" fill="#ffffff" /><rect width="30" height="10" x="170" y="140" fill="#d6c3be" /><rect width="10" height="10" x="200" y="140" fill="#ffffff" /><rect width="50" height="10" x="210" y="140" fill="#d6c3be" /><rect width="10" height="10" x="260" y="140" fill="#1f1d29" /><rect width="10" height="10" x="50" y="150" fill="#1f1d29" /><rect width="200" height="10" x="60" y="150" fill="#d6c3be" /><rect width="10" height="10" x="260" y="150" fill="#1f1d29" /><rect width="10" height="10" x="50" y="160" fill="#1f1d29" /><rect width="200" height="10" x="60" y="160" fill="#ffc110" /><rect width="10" height="10" x="260" y="160" fill="#1f1d29" /><rect width="10" height="10" x="50" y="170" fill="#1f1d29" /><rect width="200" height="10" x="60" y="170" fill="#ffc110" /><rect width="10" height="10" x="260" y="170" fill="#1f1d29" /><rect width="60" height="10" x="50" y="180" fill="#4b4949" /><rect width="100" height="10" x="110" y="180" fill="#62616d" /><rect width="60" height="10" x="210" y="180" fill="#4b4949" /><rect width="50" height="10" x="50" y="190" fill="#4b4949" /><rect width="20" height="10" x="100" y="190" fill="#62616d" /><rect width="60" height="10" x="130" y="190" fill="#62616d" /><rect width="20" height="10" x="200" y="190" fill="#62616d" /><rect width="50" height="10" x="220" y="190" fill="#4b4949" /><rect width="40" height="10" x="50" y="200" fill="#4b4949" /><rect width="140" height="10" x="90" y="200" fill="#62616d" /><rect width="40" height="10" x="230" y="200" fill="#4b4949" /><rect width="60" height="10" x="100" y="110" fill="#9cb4b8" /><rect width="60" height="10" x="170" y="110" fill="#9cb4b8" /><rect width="10" height="10" x="100" y="120" fill="#9cb4b8" /><rect width="20" height="10" x="110" y="120" fill="#ffffff" /><rect width="20" height="10" x="130" y="120" fill="#000000" /><rect width="10" height="10" x="150" y="120" fill="#9cb4b8" /><rect width="10" height="10" x="170" y="120" fill="#9cb4b8" /><rect width="20" height="10" x="180" y="120" fill="#ffffff" /><rect width="20" height="10" x="200" y="120" fill="#000000" /><rect width="10" height="10" x="220" y="120" fill="#9cb4b8" /><rect width="40" height="10" x="70" y="130" fill="#9cb4b8" /><rect width="20" height="10" x="110" y="130" fill="#ffffff" /><rect width="20" height="10" x="130" y="130" fill="#000000" /><rect width="30" height="10" x="150" y="130" fill="#9cb4b8" /><rect width="20" height="10" x="180" y="130" fill="#ffffff" /><rect width="20" height="10" x="200" y="130" fill="#000000" /><rect width="10" height="10" x="220" y="130" fill="#9cb4b8" /><rect width="10" height="10" x="70" y="140" fill="#9cb4b8" /><rect width="10" height="10" x="100" y="140" fill="#9cb4b8" /><rect width="20" height="10" x="110" y="140" fill="#ffffff" /><rect width="20" height="10" x="130" y="140" fill="#000000" /><rect width="10" height="10" x="150" y="140" fill="#9cb4b8" /><rect width="10" height="10" x="170" y="140" fill="#9cb4b8" /><rect width="20" height="10" x="180" y="140" fill="#ffffff" /><rect width="20" height="10" x="200" y="140" fill="#000000" /><rect width="10" height="10" x="220" y="140" fill="#9cb4b8" /><rect width="10" height="10" x="70" y="150" fill="#9cb4b8" /><rect width="10" height="10" x="100" y="150" fill="#9cb4b8" /><rect width="20" height="10" x="110" y="150" fill="#ffffff" /><rect width="20" height="10" x="130" y="150" fill="#000000" /><rect width="10" height="10" x="150" y="150" fill="#9cb4b8" /><rect width="10" height="10" x="170" y="150" fill="#9cb4b8" /><rect width="20" height="10" x="180" y="150" fill="#ffffff" /><rect width="20" height="10" x="200" y="150" fill="#000000" /><rect width="10" height="10" x="220" y="150" fill="#9cb4b8" /><rect width="60" height="10" x="100" y="160" fill="#9cb4b8" /><rect width="60" height="10" x="170" y="160" fill="#9cb4b8" />
</g>
<g x_x="x" id="circles1777"><g x_x="x" transform="translate(102,204) scale(0.8)"><g x_x="x"><use href="#nouns1777" transform="translate(387 30) scale(0.107) rotate(194,512,512)"/>
<circle cx="442" cy="85" r="60" fill="red" opacity="0.333"/>
</g>
<g x_x="x"><use href="#nouns1778" transform="translate(425 39) scale(0.154) rotate(78,512,512)"/>
<circle cx="504" cy="118" r="86" fill="green" opacity="0.333"/>
</g>
<g x_x="x"><use href="#nouns1779" transform="translate(422 825) scale(0.132) rotate(359,512,512)"/>
<circle cx="490" cy="893" r="74" fill="yellow" opacity="0.333"/>
</g>
<g x_x="x"><use href="#nouns1777" transform="translate(612 555) scale(0.166) rotate(392,512,512)"/>
<circle cx="697" cy="640" r="93" fill="blue" opacity="0.333"/>
</g>
<g x_x="x"><use href="#nouns1778" transform="translate(163 476) scale(0.181) rotate(422,512,512)"/>
<circle cx="256" cy="569" r="102" fill="red" opacity="0.333"/>
</g>
<g x_x="x"><use href="#nouns1779" transform="translate(458 668) scale(0.210) rotate(451,512,512)"/>
<circle cx="566" cy="776" r="118" fill="green" opacity="0.333"/>
</g>
<g x_x="x"><use href="#nouns1777" transform="translate(625 482) scale(0.263) rotate(351,512,512)"/>
<circle cx="760" cy="617" r="148" fill="yellow" opacity="0.333"/>
</g>
<g x_x="x"><use href="#nouns1778" transform="translate(401 297) scale(0.412) rotate(376,512,512)"/>
<circle cx="612" cy="508" r="232" fill="blue" opacity="0.333"/>
</g>
<g x_x="x"><use href="#nouns1779" transform="translate(353 473) scale(0.380) rotate(377,512,512)"/>
<circle cx="548" cy="668" r="214" fill="red" opacity="0.333"/>
</g>
<g x_x="x"><use href="#nouns1777" transform="translate(220 395) scale(0.392) rotate(306,512,512)"/>
<circle cx="421" cy="596" r="221" fill="green" opacity="0.333"/>
</g>
</g>
<g x_x="x" fill="#224455" transform="scale(0.348)"><path d="M485 491 c-17 -165 -78 -226 -180 -238 -101 -12 -94 11 -108 22 l-2 -24 s-60 -2 -82 -2 -81 1 -94 0 c0 0 0 395 5 482 5 86 1 257 1 284 0 0 59 8 94 7 s63 -8 72 -11 c0 0 14 -165 3 -221 0 0 137 29 202 -7 s106 -127 88 -291 Zm-261 171 c-40 -4 -31 -78 -32 -134 -4 -135 42 -138 66 -135 24 3 74 17 76 146 2 130 -69 126 -109 122 Z"/>
<path d="M31 43 s-9 170 -9 243 3 503 3 515 c0 0 65 3 83 6 s78 4 99 -7 c0 0 1 -286 1 -299 0 0 58 142 65 154 s67 148 67 148 c0 0 69 3 85 5 s70 1 78 -7 c0 0 1 -404 1 -434 s1 -316 0 -328 c0 0 -37 -11 -88 -11 s-93 8 -93 8 c0 0 -2 109 -1 145 s3 145 3 145 c0 0 -52 -116 -64 -147 s-53 -123 -58 -129 S110 24 31 43 Z" transform="translate(498 0)"/>
<path d="M434 288 c-59 -48 -100 -49 -175 -52 -75 -3 -153 6 -193 37 -40 31 -53 147 -47 257 6 110 8 179 56 226 48 47 111 56 204 55 60 -1 176 9 191 -132 15 -141 22 -343 -37 -391 Zm-120 255 c-5 52 4 111 -70 104 -74 -7 -50 -110 -50 -131 0 -88 15 -110 66 -105 51 5 59 79 54 132 Z" transform="translate(1024 0)"/>
<path d="M8 268 s5 143 1 233 -11 264 46 284 112 45 220 -18 c0 0 2 39 3 41 s19 9 92 4 80 -1 80 -1 c0 0 4 -306 0 -368 s-2 -185 -2 -185 c0 0 -58 3 -76 2 s-64 0 -88 10 c0 0 -11 105 -3 164 s17 185 -44 191 -54 -77 -58 -171 3 -149 -3 -193 c0 0 -69 -1 -86 -1 s-82 8 -82 8 Z" transform="translate(1522 0)"/>
<path d="M7 251 s-2 467 1 552 c0 0 65 -1 93 1 s63 -6 73 -10 c0 0 6 -136 -1 -222 s6 -135 47 -134 53 24 58 174 -1 165 3 188 c0 0 78 1 97 2 s58 -6 69 -7 c0 0 -4 -217 0 -283 s8 -202 -45 -235 -151 -23 -221 19 c0 0 1 -32 -5 -41 s-64 -3 -88 -1 -63 2 -82 -3 Z" transform="translate(1983 0)"/>
<path d="M5 624 s3 106 73 149 c70 44 225 71 329 11 105 -61 93 -231 24 -268 -69 -37 -142 -46 -175 -52 -33 -7 -52 -61 -34 -80 18 -20 39 -28 58 -18 19 11 30 32 27 59 0 0 55 18 117 14 62 -3 67 -10 67 -10 0 0 -1 -91 -36 -132 -35 -41 -47 -56 -173 -62 -126 -6 -163 13 -211 46 -48 34 -55 94 -55 120 -1 76 83 133 125 149 s121 26 150 49 c10 8 12 39 7 51 -6 13 -3 17 -21 25 -15 7 -75 9 -83 -53 0 0 -83 -5 -105 -3 -22 1 -71 1 -84 6 Z" transform="translate(2439 0)"/>
</g>
<g x_x="x" fill="#224455" transform="translate(559 922) scale(0.1)"><path d="M188 295 s-9 244 -11 295 -2 198 -2 198 c0 0 78 13 124 12 s78 -5 79 -22 5 -374 8 -415 4 -323 -2 -337 c0 0 -95 -6 -130 -5 s-99 2 -103 1 c0 0 -67 100 -84 128 S9 251 10 269 c0 0 27 20 75 31 s70 15 75 15 24 -7 28 -19 Z"/>
<path d="M12 187 s261 8 276 9 c0 0 -89 197 -106 229 s-91 194 -118 244 S7 788 7 788 c0 0 26 12 88 10 s30 -5 102 -5 c0 0 137 -246 149 -269 s88 -160 105 -195 66 -131 68 -142 c0 0 -3 -84 -2 -95 s1 -58 1 -58 c0 0 -59 -6 -105 -8 s-91 -1 -122 -1 -159 3 -171 3 -98 1 -102 2 c0 0 -1 64 -1 75 s-3 74 -5 83 Z" transform="translate(414 0)"/>
<path d="M12 187 s261 8 276 9 c0 0 -89 197 -106 229 s-91 194 -118 244 S7 788 7 788 c0 0 26 12 88 10 s30 -5 102 -5 c0 0 137 -246 149 -269 s88 -160 105 -195 66 -131 68 -142 c0 0 -3 -84 -2 -95 s1 -58 1 -58 c0 0 -59 -6 -105 -8 s-91 -1 -122 -1 -159 3 -171 3 -98 1 -102 2 c0 0 -1 64 -1 75 s-3 74 -5 83 Z" transform="translate(940 0)"/>
<path d="M12 187 s261 8 276 9 c0 0 -89 197 -106 229 s-91 194 -118 244 S7 788 7 788 c0 0 26 12 88 10 s30 -5 102 -5 c0 0 137 -246 149 -269 s88 -160 105 -195 66 -131 68 -142 c0 0 -3 -84 -2 -95 s1 -58 1 -58 c0 0 -59 -6 -105 -8 s-91 -1 -122 -1 -159 3 -171 3 -98 1 -102 2 c0 0 -1 64 -1 75 s-3 74 -5 83 Z" transform="translate(1466 0)"/>
<path d="M110 800 s52 2 76 -6 c0 0 5 -3 12 -26 s57 -142 72 -185 78 -229 91 -265 40 -113 48 -137 38 -122 38 -126 -4 -7 -6 -7 c0 0 3 -6 9 -7 0 0 -15 -15 -74 -13 s-86 -1 -97 -5 c0 0 -28 102 -41 136 s-28 83 -28 85 -9 34 -14 44 -65 177 -71 192 -38 108 -43 119 -42 112 -35 102 c0 0 -25 63 -24 73 s-3 26 12 26 74 -1 74 -1 Z" transform="translate(1992 0)"/>
<path d="M211 343 s10 -90 24 -109 57 -42 75 13 -2 102 -52 129 -76 51 -129 83 -74 59 -78 65 -24 36 -29 79 -10 187 -11 195 c0 0 15 4 30 5 s189 -5 212 -5 238 -3 246 -3 8 -6 8 -9 -3 -73 -1 -85 -3 -52 -10 -68 c0 0 -252 6 -279 2 0 0 35 -75 72 -97 s153 -76 185 -112 49 -59 49 -129 -4 -170 -92 -236 -270 -32 -320 2 S-10 187 21 344 c0 0 57 21 190 -1 Z" transform="translate(2453 0)"/>
<path d="M465 116 C394 31 297 11 210 33 c0 0 -158 46 -182 197 -12 25 -11 75 -13 176 -1 101 -2 235 57 302 59 68 139 115 268 76 s192 -254 197 -361 c5 -107 -2 -223 -73 -307 Zm-139 340 c-4 131 -26 153 -57 154 -32 1 -29 -11 -46 -55 -17 -43 -17 -154 -17 -154 11 -142 11 -194 64 -192 s61 115 57 247 Z" transform="translate(2993 0)"/>
<path d="M465 116 C394 31 297 11 210 33 c0 0 -158 46 -182 197 -12 25 -11 75 -13 176 -1 101 -2 235 57 302 59 68 139 115 268 76 s192 -254 197 -361 c5 -107 -2 -223 -73 -307 Zm-139 340 c-4 131 -26 153 -57 154 -32 1 -29 -11 -46 -55 -17 -43 -17 -154 -17 -154 11 -142 11 -194 64 -192 s61 115 57 247 Z" transform="translate(3547 0)"/>
<path d="M465 116 C394 31 297 11 210 33 c0 0 -158 46 -182 197 -12 25 -11 75 -13 176 -1 101 -2 235 57 302 59 68 139 115 268 76 s192 -254 197 -361 c5 -107 -2 -223 -73 -307 Zm-139 340 c-4 131 -26 153 -57 154 -32 1 -29 -11 -46 -55 -17 -43 -17 -154 -17 -154 11 -142 11 -194 64 -192 s61 115 57 247 Z" transform="translate(4101 0)"/>
</g>
</g>
</defs>
<use href="#circles1777" />
</svg>
