<svg viewBox="0 0 1024 1024"  xmlns="http://www.w3.org/2000/svg">
<defs>
<g id="nouns2018" transform="scale(3.2)" shape-rendering="crispEdges">
<rect width="140" height="10" x="90" y="210" fill="#c54e38" /><rect width="140" height="10" x="90" y="220" fill="#c54e38" /><rect width="140" height="10" x="90" y="230" fill="#c54e38" /><rect width="140" height="10" x="90" y="240" fill="#c54e38" /><rect width="20" height="10" x="90" y="250" fill="#c54e38" /><rect width="110" height="10" x="120" y="250" fill="#c54e38" /><rect width="20" height="10" x="90" y="260" fill="#c54e38" /><rect width="110" height="10" x="120" y="260" fill="#c54e38" /><rect width="20" height="10" x="90" y="270" fill="#c54e38" /><rect width="110" height="10" x="120" y="270" fill="#c54e38" /><rect width="20" height="10" x="90" y="280" fill="#c54e38" /><rect width="110" height="10" x="120" y="280" fill="#c54e38" /><rect width="20" height="10" x="90" y="290" fill="#c54e38" /><rect width="110" height="10" x="120" y="290" fill="#c54e38" /><rect width="20" height="10" x="90" y="300" fill="#c54e38" /><rect width="110" height="10" x="120" y="300" fill="#c54e38" /><rect width="20" height="10" x="90" y="310" fill="#c54e38" /><rect width="110" height="10" x="120" y="310" fill="#c54e38" /><rect width="20" height="10" x="140" y="240" fill="#000000" /><rect width="20" height="10" x="180" y="240" fill="#000000" /><rect width="10" height="10" x="130" y="250" fill="#000000" /><rect width="20" height="10" x="160" y="250" fill="#000000" /><rect width="10" height="10" x="200" y="250" fill="#000000" /><rect width="20" height="10" x="160" y="260" fill="#000000" /><rect width="50" height="10" x="110" y="60" fill="#f82905" /><rect width="100" height="10" x="90" y="70" fill="#f82905" /><rect width="120" height="10" x="80" y="80" fill="#f82905" /><rect width="30" height="10" x="70" y="90" fill="#f82905" /><rect width="50" height="10" x="100" y="90" fill="#ffffff" /><rect width="60" height="10" x="150" y="90" fill="#000000" /><rect width="20" height="10" x="60" y="100" fill="#f82905" /><rect width="60" height="10" x="80" y="100" fill="#ffffff" /><rect width="80" height="10" x="140" y="100" fill="#000000" /><rect width="10" height="10" x="50" y="110" fill="#f82905" /><rect width="80" height="10" x="60" y="110" fill="#ffffff" /><rect width="90" height="10" x="140" y="110" fill="#000000" /><rect width="90" height="10" x="50" y="120" fill="#ffffff" /><rect width="70" height="10" x="140" y="120" fill="#000000" /><rect width="40" height="10" x="210" y="120" fill="#876f69" /><rect width="100" height="10" x="50" y="130" fill="#ffffff" /><rect width="50" height="10" x="150" y="130" fill="#000000" /><rect width="80" height="10" x="200" y="130" fill="#876f69" /><rect width="60" height="10" x="50" y="140" fill="#ffffff" /><rect width="90" height="10" x="110" y="140" fill="#000000" /><rect width="110" height="10" x="200" y="140" fill="#876f69" /><rect width="50" height="10" x="50" y="150" fill="#ffffff" /><rect width="70" height="10" x="100" y="150" fill="#000000" /><rect width="40" height="10" x="50" y="160" fill="#ffffff" /><rect width="80" height="10" x="90" y="160" fill="#000000" /><rect width="20" height="10" x="60" y="170" fill="#ffffff" /><rect width="100" height="10" x="80" y="170" fill="#000000" /><rect width="20" height="10" x="70" y="180" fill="#ffffff" /><rect width="30" height="10" x="90" y="180" fill="#000000" /><rect width="40" height="10" x="120" y="180" fill="#ffffff" /><rect width="50" height="10" x="160" y="180" fill="#000000" /><rect width="20" height="10" x="80" y="190" fill="#ffffff" /><rect width="130" height="10" x="100" y="190" fill="#000000" /><rect width="20" height="10" x="90" y="200" fill="#ffffff" /><rect width="120" height="10" x="110" y="200" fill="#000000" /><rect width="60" height="10" x="100" y="110" fill="#5648ed" /><rect width="60" height="10" x="170" y="110" fill="#5648ed" /><rect width="10" height="10" x="100" y="120" fill="#5648ed" /><rect width="20" height="10" x="110" y="120" fill="#ffffff" /><rect width="20" height="10" x="130" y="120" fill="#000000" /><rect width="10" height="10" x="150" y="120" fill="#5648ed" /><rect width="10" height="10" x="170" y="120" fill="#5648ed" /><rect width="20" height="10" x="180" y="120" fill="#ffffff" /><rect width="20" height="10" x="200" y="120" fill="#000000" /><rect width="10" height="10" x="220" y="120" fill="#5648ed" /><rect width="40" height="10" x="70" y="130" fill="#5648ed" /><rect width="20" height="10" x="110" y="130" fill="#ffffff" /><rect width="20" height="10" x="130" y="130" fill="#000000" /><rect width="30" height="10" x="150" y="130" fill="#5648ed" /><rect width="20" height="10" x="180" y="130" fill="#ffffff" /><rect width="20" height="10" x="200" y="130" fill="#000000" /><rect width="10" height="10" x="220" y="130" fill="#5648ed" /><rect width="10" height="10" x="70" y="140" fill="#5648ed" /><rect width="10" height="10" x="100" y="140" fill="#5648ed" /><rect width="20" height="10" x="110" y="140" fill="#ffffff" /><rect width="20" height="10" x="130" y="140" fill="#000000" /><rect width="10" height="10" x="150" y="140" fill="#5648ed" /><rect width="10" height="10" x="170" y="140" fill="#5648ed" /><rect width="20" height="10" x="180" y="140" fill="#ffffff" /><rect width="20" height="10" x="200" y="140" fill="#000000" /><rect width="10" height="10" x="220" y="140" fill="#5648ed" /><rect width="10" height="10" x="70" y="150" fill="#5648ed" /><rect width="10" height="10" x="100" y="150" fill="#5648ed" /><rect width="20" height="10" x="110" y="150" fill="#ffffff" /><rect width="20" height="10" x="130" y="150" fill="#000000" /><rect width="10" height="10" x="150" y="150" fill="#5648ed" /><rect width="10" height="10" x="170" y="150" fill="#5648ed" /><rect width="20" height="10" x="180" y="150" fill="#ffffff" /><rect width="20" height="10" x="200" y="150" fill="#000000" /><rect width="10" height="10" x="220" y="150" fill="#5648ed" /><rect width="60" height="10" x="100" y="160" fill="#5648ed" /><rect width="60" height="10" x="170" y="160" fill="#5648ed" />
</g>
<g id="nouns2019" transform="scale(3.2)" shape-rendering="crispEdges">
<rect width="140" height="10" x="90" y="210" fill="#34ac80" /><rect width="140" height="10" x="90" y="220" fill="#34ac80" /><rect width="140" height="10" x="90" y="230" fill="#34ac80" /><rect width="140" height="10" x="90" y="240" fill="#34ac80" /><rect width="20" height="10" x="90" y="250" fill="#34ac80" /><rect width="110" height="10" x="120" y="250" fill="#34ac80" /><rect width="20" height="10" x="90" y="260" fill="#34ac80" /><rect width="110" height="10" x="120" y="260" fill="#34ac80" /><rect width="20" height="10" x="90" y="270" fill="#34ac80" /><rect width="110" height="10" x="120" y="270" fill="#34ac80" /><rect width="20" height="10" x="90" y="280" fill="#34ac80" /><rect width="110" height="10" x="120" y="280" fill="#34ac80" /><rect width="20" height="10" x="90" y="290" fill="#34ac80" /><rect width="110" height="10" x="120" y="290" fill="#34ac80" /><rect width="20" height="10" x="90" y="300" fill="#34ac80" /><rect width="110" height="10" x="120" y="300" fill="#34ac80" /><rect width="20" height="10" x="90" y="310" fill="#34ac80" /><rect width="110" height="10" x="120" y="310" fill="#34ac80" /><rect width="140" height="10" x="90" y="210" fill="#505a5c" /><rect width="20" height="10" x="90" y="220" fill="#ff1a0b" /><rect width="60" height="10" x="110" y="220" fill="#505a5c" /><rect width="30" height="10" x="170" y="220" fill="#ff1a0b" /><rect width="30" height="10" x="200" y="220" fill="#505a5c" /><rect width="20" height="10" x="90" y="230" fill="#f78a18" /><rect width="110" height="10" x="110" y="230" fill="#505a5c" /><rect width="10" height="10" x="220" y="230" fill="#f78a18" /><rect width="10" height="10" x="90" y="240" fill="#f78a18" /><rect width="90" height="10" x="100" y="240" fill="#505a5c" /><rect width="10" height="10" x="190" y="240" fill="#f78a18" /><rect width="20" height="10" x="200" y="240" fill="#505a5c" /><rect width="10" height="10" x="220" y="240" fill="#f78a18" /><rect width="20" height="10" x="90" y="250" fill="#505a5c" /><rect width="10" height="10" x="120" y="250" fill="#505a5c" /><rect width="10" height="10" x="130" y="250" fill="#fff449" /><rect width="30" height="10" x="140" y="250" fill="#505a5c" /><rect width="20" height="10" x="170" y="250" fill="#fff449" /><rect width="40" height="10" x="190" y="250" fill="#505a5c" /><rect width="20" height="10" x="90" y="260" fill="#505a5c" /><rect width="80" height="10" x="120" y="260" fill="#505a5c" /><rect width="30" height="10" x="200" y="260" fill="#fff449" /><rect width="10" height="10" x="90" y="270" fill="#505a5c" /><rect width="10" height="10" x="100" y="270" fill="#068940" /><rect width="10" height="10" x="120" y="270" fill="#505a5c" /><rect width="20" height="10" x="130" y="270" fill="#068940" /><rect width="30" height="10" x="150" y="270" fill="#505a5c" /><rect width="50" height="10" x="180" y="270" fill="#068940" /><rect width="20" height="10" x="90" y="280" fill="#068940" /><rect width="80" height="10" x="120" y="280" fill="#505a5c" /><rect width="30" height="10" x="200" y="280" fill="#068940" /><rect width="20" height="10" x="90" y="290" fill="#2b83f6" /><rect width="10" height="10" x="120" y="290" fill="#505a5c" /><rect width="40" height="10" x="130" y="290" fill="#2b83f6" /><rect width="20" height="10" x="170" y="290" fill="#505a5c" /><rect width="10" height="10" x="190" y="290" fill="#2b83f6" /><rect width="20" height="10" x="200" y="290" fill="#505a5c" /><rect width="10" height="10" x="220" y="290" fill="#2b83f6" /><rect width="10" height="10" x="90" y="300" fill="#2b83f6" /><rect width="10" height="10" x="100" y="300" fill="#505a5c" /><rect width="110" height="10" x="120" y="300" fill="#505a5c" /><rect width="20" height="10" x="90" y="310" fill="#9f21a0" /><rect width="110" height="10" x="120" y="310" fill="#505a5c" /><rect width="240" height="10" x="40" y="80" fill="#ffffff" /><rect width="240" height="10" x="40" y="90" fill="#ffffff" /><rect width="30" height="10" x="40" y="100" fill="#ffffff" /><rect width="10" height="10" x="70" y="100" fill="#000000" /><rect width="10" height="10" x="80" y="100" fill="#ffffff" /><rect width="10" height="10" x="90" y="100" fill="#000000" /><rect width="10" height="10" x="100" y="100" fill="#ffffff" /><rect width="10" height="10" x="110" y="100" fill="#000000" /><rect width="10" height="10" x="120" y="100" fill="#ffffff" /><rect width="10" height="10" x="130" y="100" fill="#000000" /><rect width="20" height="10" x="140" y="100" fill="#ffffff" /><rect width="10" height="10" x="160" y="100" fill="#000000" /><rect width="10" height="10" x="170" y="100" fill="#ffffff" /><rect width="10" height="10" x="180" y="100" fill="#000000" /><rect width="10" height="10" x="190" y="100" fill="#ffffff" /><rect width="10" height="10" x="200" y="100" fill="#000000" /><rect width="10" height="10" x="210" y="100" fill="#ffffff" /><rect width="10" height="10" x="220" y="100" fill="#000000" /><rect width="50" height="10" x="230" y="100" fill="#ffffff" /><rect width="30" height="10" x="40" y="110" fill="#ffffff" /><rect width="10" height="10" x="70" y="110" fill="#62616d" /><rect width="10" height="10" x="80" y="110" fill="#ffffff" /><rect width="10" height="10" x="90" y="110" fill="#62616d" /><rect width="10" height="10" x="100" y="110" fill="#ffffff" /><rect width="10" height="10" x="110" y="110" fill="#62616d" /><rect width="10" height="10" x="120" y="110" fill="#ffffff" /><rect width="10" height="10" x="130" y="110" fill="#62616d" /><rect width="20" height="10" x="140" y="110" fill="#ffffff" /><rect width="10" height="10" x="160" y="110" fill="#62616d" /><rect width="10" height="10" x="170" y="110" fill="#ffffff" /><rect width="10" height="10" x="180" y="110" fill="#62616d" /><rect width="10" height="10" x="190" y="110" fill="#ffffff" /><rect width="10" height="10" x="200" y="110" fill="#62616d" /><rect width="10" height="10" x="210" y="110" fill="#ffffff" /><rect width="10" height="10" x="220" y="110" fill="#62616d" /><rect width="50" height="10" x="230" y="110" fill="#ffffff" /><rect width="30" height="10" x="40" y="120" fill="#ffffff" /><rect width="10" height="10" x="70" y="120" fill="#62616d" /><rect width="10" height="10" x="80" y="120" fill="#ffffff" /><rect width="10" height="10" x="90" y="120" fill="#62616d" /><rect width="10" height="10" x="100" y="120" fill="#ffffff" /><rect width="10" height="10" x="110" y="120" fill="#62616d" /><rect width="10" height="10" x="120" y="120" fill="#ffffff" /><rect width="10" height="10" x="130" y="120" fill="#62616d" /><rect width="20" height="10" x="140" y="120" fill="#ffffff" /><rect width="10" height="10" x="160" y="120" fill="#62616d" /><rect width="10" height="10" x="170" y="120" fill="#ffffff" /><rect width="10" height="10" x="180" y="120" fill="#62616d" /><rect width="10" height="10" x="190" y="120" fill="#ffffff" /><rect width="10" height="10" x="200" y="120" fill="#62616d" /><rect width="10" height="10" x="210" y="120" fill="#ffffff" /><rect width="10" height="10" x="220" y="120" fill="#62616d" /><rect width="10" height="10" x="230" y="120" fill="#ffffff" /><rect width="10" height="10" x="240" y="120" fill="#000000" /><rect width="30" height="10" x="250" y="120" fill="#ffffff" /><rect width="30" height="10" x="40" y="130" fill="#ffffff" /><rect width="10" height="10" x="70" y="130" fill="#62616d" /><rect width="10" height="10" x="80" y="130" fill="#ffffff" /><rect width="10" height="10" x="90" y="130" fill="#62616d" /><rect width="10" height="10" x="100" y="130" fill="#ffffff" /><rect width="10" height="10" x="110" y="130" fill="#62616d" /><rect width="10" height="10" x="120" y="130" fill="#ffffff" /><rect width="10" height="10" x="130" y="130" fill="#62616d" /><rect width="20" height="10" x="140" y="130" fill="#ffffff" /><rect width="10" height="10" x="160" y="130" fill="#62616d" /><rect width="10" height="10" x="170" y="130" fill="#ffffff" /><rect width="10" height="10" x="180" y="130" fill="#62616d" /><rect width="10" height="10" x="190" y="130" fill="#ffffff" /><rect width="10" height="10" x="200" y="130" fill="#62616d" /><rect width="10" height="10" x="210" y="130" fill="#ffffff" /><rect width="10" height="10" x="220" y="130" fill="#62616d" /><rect width="10" height="10" x="230" y="130" fill="#ffffff" /><rect width="10" height="10" x="240" y="130" fill="#000000" /><rect width="30" height="10" x="250" y="130" fill="#ffffff" /><rect width="10" height="10" x="40" y="140" fill="#ffffff" /><rect width="10" height="10" x="50" y="140" fill="#62616d" /><rect width="10" height="10" x="60" y="140" fill="#ffffff" /><rect width="10" height="10" x="70" y="140" fill="#62616d" /><rect width="10" height="10" x="80" y="140" fill="#ffffff" /><rect width="10" height="10" x="90" y="140" fill="#62616d" /><rect width="10" height="10" x="100" y="140" fill="#ffffff" /><rect width="10" height="10" x="110" y="140" fill="#62616d" /><rect width="10" height="10" x="120" y="140" fill="#ffffff" /><rect width="10" height="10" x="130" y="140" fill="#62616d" /><rect width="20" height="10" x="140" y="140" fill="#ffffff" /><rect width="10" height="10" x="160" y="140" fill="#62616d" /><rect width="10" height="10" x="170" y="140" fill="#ffffff" /><rect width="10" height="10" x="180" y="140" fill="#62616d" /><rect width="10" height="10" x="190" y="140" fill="#ffffff" /><rect width="10" height="10" x="200" y="140" fill="#62616d" /><rect width="10" height="10" x="210" y="140" fill="#ffffff" /><rect width="10" height="10" x="220" y="140" fill="#62616d" /><rect width="10" height="10" x="230" y="140" fill="#ffffff" /><rect width="10" height="10" x="240" y="140" fill="#000000" /><rect width="10" height="10" x="250" y="140" fill="#ffffff" /><rect width="10" height="10" x="260" y="140" fill="#62616d" /><rect width="10" height="10" x="270" y="140" fill="#ffffff" /><rect width="30" height="10" x="40" y="150" fill="#ffffff" /><rect width="10" height="10" x="70" y="150" fill="#62616d" /><rect width="10" height="10" x="80" y="150" fill="#ffffff" /><rect width="10" height="10" x="90" y="150" fill="#62616d" /><rect width="10" height="10" x="100" y="150" fill="#ffffff" /><rect width="10" height="10" x="110" y="150" fill="#62616d" /><rect width="10" height="10" x="120" y="150" fill="#ffffff" /><rect width="10" height="10" x="130" y="150" fill="#62616d" /><rect width="20" height="10" x="140" y="150" fill="#ffffff" /><rect width="10" height="10" x="160" y="150" fill="#62616d" /><rect width="10" height="10" x="170" y="150" fill="#ffffff" /><rect width="10" height="10" x="180" y="150" fill="#62616d" /><rect width="10" height="10" x="190" y="150" fill="#ffffff" /><rect width="10" height="10" x="200" y="150" fill="#62616d" /><rect width="10" height="10" x="210" y="150" fill="#ffffff" /><rect width="10" height="10" x="220" y="150" fill="#62616d" /><rect width="10" height="10" x="230" y="150" fill="#ffffff" /><rect width="10" height="10" x="240" y="150" fill="#000000" /><rect width="30" height="10" x="250" y="150" fill="#ffffff" /><rect width="30" height="10" x="40" y="160" fill="#ffffff" /><rect width="10" height="10" x="70" y="160" fill="#62616d" /><rect width="10" height="10" x="80" y="160" fill="#ffffff" /><rect width="10" height="10" x="90" y="160" fill="#62616d" /><rect width="10" height="10" x="100" y="160" fill="#ffffff" /><rect width="10" height="10" x="110" y="160" fill="#62616d" /><rect width="10" height="10" x="120" y="160" fill="#ffffff" /><rect width="10" height="10" x="130" y="160" fill="#62616d" /><rect width="20" height="10" x="140" y="160" fill="#ffffff" /><rect width="10" height="10" x="160" y="160" fill="#62616d" /><rect width="10" height="10" x="170" y="160" fill="#ffffff" /><rect width="10" height="10" x="180" y="160" fill="#62616d" /><rect width="10" height="10" x="190" y="160" fill="#ffffff" /><rect width="10" height="10" x="200" y="160" fill="#62616d" /><rect width="10" height="10" x="210" y="160" fill="#ffffff" /><rect width="10" height="10" x="220" y="160" fill="#62616d" /><rect width="10" height="10" x="230" y="160" fill="#ffffff" /><rect width="20" height="10" x="240" y="160" fill="#c5b9a1" /><rect width="20" height="10" x="260" y="160" fill="#ffffff" /><rect width="30" height="10" x="40" y="170" fill="#ffffff" /><rect width="10" height="10" x="70" y="170" fill="#62616d" /><rect width="10" height="10" x="80" y="170" fill="#ffffff" /><rect width="10" height="10" x="90" y="170" fill="#62616d" /><rect width="10" height="10" x="100" y="170" fill="#ffffff" /><rect width="10" height="10" x="110" y="170" fill="#62616d" /><rect width="10" height="10" x="120" y="170" fill="#ffffff" /><rect width="10" height="10" x="130" y="170" fill="#62616d" /><rect width="20" height="10" x="140" y="170" fill="#ffffff" /><rect width="10" height="10" x="160" y="170" fill="#62616d" /><rect width="10" height="10" x="170" y="170" fill="#ffffff" /><rect width="10" height="10" x="180" y="170" fill="#62616d" /><rect width="10" height="10" x="190" y="170" fill="#ffffff" /><rect width="10" height="10" x="200" y="170" fill="#62616d" /><rect width="10" height="10" x="210" y="170" fill="#ffffff" /><rect width="10" height="10" x="220" y="170" fill="#62616d" /><rect width="50" height="10" x="230" y="170" fill="#ffffff" /><rect width="30" height="10" x="40" y="180" fill="#ffffff" /><rect width="10" height="10" x="70" y="180" fill="#c5b9a1" /><rect width="10" height="10" x="80" y="180" fill="#ffffff" /><rect width="10" height="10" x="90" y="180" fill="#c5b9a1" /><rect width="10" height="10" x="100" y="180" fill="#ffffff" /><rect width="10" height="10" x="110" y="180" fill="#c5b9a1" /><rect width="10" height="10" x="120" y="180" fill="#ffffff" /><rect width="10" height="10" x="130" y="180" fill="#c5b9a1" /><rect width="20" height="10" x="140" y="180" fill="#ffffff" /><rect width="10" height="10" x="160" y="180" fill="#c5b9a1" /><rect width="10" height="10" x="170" y="180" fill="#ffffff" /><rect width="10" height="10" x="180" y="180" fill="#c5b9a1" /><rect width="10" height="10" x="190" y="180" fill="#ffffff" /><rect width="10" height="10" x="200" y="180" fill="#c5b9a1" /><rect width="10" height="10" x="210" y="180" fill="#ffffff" /><rect width="10" height="10" x="220" y="180" fill="#c5b9a1" /><rect width="50" height="10" x="230" y="180" fill="#ffffff" /><rect width="240" height="10" x="40" y="190" fill="#ffffff" /><rect width="240" height="10" x="40" y="200" fill="#ffffff" /><rect width="60" height="10" x="100" y="110" fill="#ffc110" /><rect width="60" height="10" x="170" y="110" fill="#f98f30" /><rect width="10" height="10" x="100" y="120" fill="#ffc110" /><rect width="20" height="10" x="110" y="120" fill="#ffffff" /><rect width="20" height="10" x="130" y="120" fill="#000000" /><rect width="10" height="10" x="150" y="120" fill="#ffc110" /><rect width="10" height="10" x="170" y="120" fill="#f98f30" /><rect width="20" height="10" x="180" y="120" fill="#ffffff" /><rect width="20" height="10" x="200" y="120" fill="#000000" /><rect width="10" height="10" x="220" y="120" fill="#f98f30" /><rect width="30" height="10" x="70" y="130" fill="#f78a18" /><rect width="10" height="10" x="100" y="130" fill="#ffc110" /><rect width="20" height="10" x="110" y="130" fill="#ffffff" /><rect width="20" height="10" x="130" y="130" fill="#000000" /><rect width="10" height="10" x="150" y="130" fill="#ffc110" /><rect width="10" height="10" x="160" y="130" fill="#f78a18" /><rect width="10" height="10" x="170" y="130" fill="#f98f30" /><rect width="20" height="10" x="180" y="130" fill="#ffffff" /><rect width="20" height="10" x="200" y="130" fill="#000000" /><rect width="10" height="10" x="220" y="130" fill="#f98f30" /><rect width="10" height="10" x="70" y="140" fill="#ffc110" /><rect width="10" height="10" x="100" y="140" fill="#ffc110" /><rect width="20" height="10" x="110" y="140" fill="#ffffff" /><rect width="20" height="10" x="130" y="140" fill="#000000" /><rect width="10" height="10" x="150" y="140" fill="#ffc110" /><rect width="10" height="10" x="170" y="140" fill="#f98f30" /><rect width="20" height="10" x="180" y="140" fill="#ffffff" /><rect width="20" height="10" x="200" y="140" fill="#000000" /><rect width="10" height="10" x="220" y="140" fill="#f98f30" /><rect width="10" height="10" x="70" y="150" fill="#ffc110" /><rect width="10" height="10" x="100" y="150" fill="#ffc110" /><rect width="20" height="10" x="110" y="150" fill="#ffffff" /><rect width="20" height="10" x="130" y="150" fill="#000000" /><rect width="10" height="10" x="150" y="150" fill="#ffc110" /><rect width="10" height="10" x="170" y="150" fill="#f98f30" /><rect width="20" height="10" x="180" y="150" fill="#ffffff" /><rect width="20" height="10" x="200" y="150" fill="#000000" /><rect width="10" height="10" x="220" y="150" fill="#f98f30" /><rect width="60" height="10" x="100" y="160" fill="#ffc110" /><rect width="60" height="10" x="170" y="160" fill="#f98f30" />
</g>
<g id="nouns2020" transform="scale(3.2)" shape-rendering="crispEdges">
<rect width="140" height="10" x="90" y="210" fill="#b87b11" /><rect width="140" height="10" x="90" y="220" fill="#b87b11" /><rect width="140" height="10" x="90" y="230" fill="#b87b11" /><rect width="140" height="10" x="90" y="240" fill="#b87b11" /><rect width="20" height="10" x="90" y="250" fill="#b87b11" /><rect width="110" height="10" x="120" y="250" fill="#b87b11" /><rect width="20" height="10" x="90" y="260" fill="#b87b11" /><rect width="110" height="10" x="120" y="260" fill="#b87b11" /><rect width="20" height="10" x="90" y="270" fill="#b87b11" /><rect width="110" height="10" x="120" y="270" fill="#b87b11" /><rect width="20" height="10" x="90" y="280" fill="#b87b11" /><rect width="110" height="10" x="120" y="280" fill="#b87b11" /><rect width="20" height="10" x="90" y="290" fill="#b87b11" /><rect width="110" height="10" x="120" y="290" fill="#b87b11" /><rect width="20" height="10" x="90" y="300" fill="#b87b11" /><rect width="110" height="10" x="120" y="300" fill="#b87b11" /><rect width="20" height="10" x="90" y="310" fill="#b87b11" /><rect width="110" height="10" x="120" y="310" fill="#b87b11" /><rect width="40" height="10" x="140" y="210" fill="#000000" /><rect width="10" height="10" x="140" y="220" fill="#e5e5de" /><rect width="20" height="10" x="150" y="220" fill="#000000" /><rect width="10" height="10" x="170" y="220" fill="#e5e5de" /><rect width="10" height="10" x="140" y="230" fill="#e5e5de" /><rect width="20" height="10" x="150" y="230" fill="#000000" /><rect width="10" height="10" x="170" y="230" fill="#e5e5de" /><rect width="10" height="10" x="140" y="240" fill="#e5e5de" /><rect width="20" height="10" x="150" y="240" fill="#000000" /><rect width="10" height="10" x="170" y="240" fill="#e5e5de" /><rect width="10" height="10" x="140" y="250" fill="#e5e5de" /><rect width="20" height="10" x="150" y="250" fill="#000000" /><rect width="10" height="10" x="170" y="250" fill="#e5e5de" /><rect width="10" height="10" x="140" y="260" fill="#e5e5de" /><rect width="20" height="10" x="150" y="260" fill="#000000" /><rect width="10" height="10" x="170" y="260" fill="#e5e5de" /><rect width="10" height="10" x="140" y="270" fill="#e5e5de" /><rect width="20" height="10" x="150" y="270" fill="#000000" /><rect width="10" height="10" x="170" y="270" fill="#e5e5de" /><rect width="10" height="10" x="140" y="280" fill="#e5e5de" /><rect width="20" height="10" x="150" y="280" fill="#000000" /><rect width="10" height="10" x="170" y="280" fill="#e5e5de" /><rect width="10" height="10" x="140" y="290" fill="#e5e5de" /><rect width="20" height="10" x="150" y="290" fill="#000000" /><rect width="10" height="10" x="170" y="290" fill="#e5e5de" /><rect width="10" height="10" x="140" y="300" fill="#e5e5de" /><rect width="20" height="10" x="150" y="300" fill="#000000" /><rect width="10" height="10" x="170" y="300" fill="#e5e5de" /><rect width="10" height="10" x="140" y="310" fill="#e5e5de" /><rect width="20" height="10" x="150" y="310" fill="#000000" /><rect width="10" height="10" x="170" y="310" fill="#e5e5de" /><rect width="120" height="10" x="140" y="40" fill="#d22209" /><rect width="130" height="10" x="130" y="50" fill="#d22209" /><rect width="30" height="10" x="120" y="60" fill="#d22209" /><rect width="110" height="10" x="150" y="60" fill="#fe500c" /><rect width="40" height="10" x="110" y="70" fill="#d22209" /><rect width="110" height="10" x="150" y="70" fill="#fe500c" /><rect width="20" height="10" x="100" y="80" fill="#d22209" /><rect width="30" height="10" x="120" y="80" fill="#fe500c" /><rect width="110" height="10" x="150" y="80" fill="#ffc925" /><rect width="30" height="10" x="90" y="90" fill="#d22209" /><rect width="30" height="10" x="120" y="90" fill="#fe500c" /><rect width="110" height="10" x="150" y="90" fill="#ffc925" /><rect width="10" height="10" x="80" y="100" fill="#d22209" /><rect width="30" height="10" x="90" y="100" fill="#fe500c" /><rect width="30" height="10" x="120" y="100" fill="#ffc925" /><rect width="110" height="10" x="150" y="100" fill="#068940" /><rect width="20" height="10" x="70" y="110" fill="#d22209" /><rect width="30" height="10" x="90" y="110" fill="#fe500c" /><rect width="30" height="10" x="120" y="110" fill="#ffc925" /><rect width="110" height="10" x="150" y="110" fill="#068940" /><rect width="30" height="10" x="60" y="120" fill="#d22209" /><rect width="30" height="10" x="90" y="120" fill="#fe500c" /><rect width="30" height="10" x="120" y="120" fill="#ffc925" /><rect width="30" height="10" x="150" y="120" fill="#068940" /><rect width="80" height="10" x="180" y="120" fill="#00499c" /><rect width="30" height="10" x="60" y="130" fill="#d22209" /><rect width="30" height="10" x="90" y="130" fill="#fe500c" /><rect width="30" height="10" x="120" y="130" fill="#ffc925" /><rect width="30" height="10" x="150" y="130" fill="#068940" /><rect width="80" height="10" x="180" y="130" fill="#00499c" /><rect width="30" height="10" x="60" y="140" fill="#d22209" /><rect width="30" height="10" x="90" y="140" fill="#fe500c" /><rect width="30" height="10" x="120" y="140" fill="#ffc925" /><rect width="30" height="10" x="150" y="140" fill="#068940" /><rect width="30" height="10" x="180" y="140" fill="#00499c" /><rect width="50" height="10" x="210" y="140" fill="#9f21a0" /><rect width="30" height="10" x="60" y="150" fill="#d22209" /><rect width="30" height="10" x="90" y="150" fill="#fe500c" /><rect width="30" height="10" x="120" y="150" fill="#ffc925" /><rect width="30" height="10" x="150" y="150" fill="#068940" /><rect width="30" height="10" x="180" y="150" fill="#00499c" /><rect width="50" height="10" x="210" y="150" fill="#9f21a0" /><rect width="30" height="10" x="60" y="160" fill="#d22209" /><rect width="30" height="10" x="90" y="160" fill="#fe500c" /><rect width="30" height="10" x="120" y="160" fill="#ffc925" /><rect width="30" height="10" x="150" y="160" fill="#068940" /><rect width="30" height="10" x="180" y="160" fill="#00499c" /><rect width="30" height="10" x="210" y="160" fill="#9f21a0" /><rect width="30" height="10" x="60" y="170" fill="#d22209" /><rect width="30" height="10" x="90" y="170" fill="#fe500c" /><rect width="30" height="10" x="120" y="170" fill="#ffc925" /><rect width="30" height="10" x="150" y="170" fill="#068940" /><rect width="30" height="10" x="180" y="170" fill="#00499c" /><rect width="30" height="10" x="210" y="170" fill="#9f21a0" /><rect width="30" height="10" x="60" y="180" fill="#d22209" /><rect width="30" height="10" x="90" y="180" fill="#fe500c" /><rect width="30" height="10" x="120" y="180" fill="#ffc925" /><rect width="30" height="10" x="150" y="180" fill="#068940" /><rect width="30" height="10" x="180" y="180" fill="#000000" /><rect width="30" height="10" x="210" y="180" fill="#9f21a0" /><rect width="30" height="10" x="60" y="190" fill="#d22209" /><rect width="30" height="10" x="90" y="190" fill="#fe500c" /><rect width="30" height="10" x="120" y="190" fill="#ffc925" /><rect width="30" height="10" x="150" y="190" fill="#068940" /><rect width="30" height="10" x="180" y="190" fill="#00499c" /><rect width="30" height="10" x="210" y="190" fill="#9f21a0" /><rect width="30" height="10" x="60" y="200" fill="#d22209" /><rect width="30" height="10" x="90" y="200" fill="#fe500c" /><rect width="30" height="10" x="120" y="200" fill="#ffc925" /><rect width="30" height="10" x="150" y="200" fill="#068940" /><rect width="30" height="10" x="180" y="200" fill="#00499c" /><rect width="30" height="10" x="210" y="200" fill="#9f21a0" /><rect width="60" height="10" x="100" y="110" fill="#000000" /><rect width="60" height="10" x="170" y="110" fill="#000000" /><rect width="30" height="10" x="100" y="120" fill="#000000" /><rect width="10" height="10" x="130" y="120" fill="#ff0e0e" /><rect width="20" height="10" x="140" y="120" fill="#000000" /><rect width="30" height="10" x="170" y="120" fill="#000000" /><rect width="10" height="10" x="200" y="120" fill="#ff0e0e" /><rect width="20" height="10" x="210" y="120" fill="#000000" /><rect width="160" height="10" x="70" y="130" fill="#000000" /><rect width="10" height="10" x="70" y="140" fill="#000000" /><rect width="10" height="10" x="100" y="140" fill="#000000" /><rect width="10" height="10" x="110" y="140" fill="#0adc4d" /><rect width="20" height="10" x="120" y="140" fill="#000000" /><rect width="10" height="10" x="140" y="140" fill="#1929f4" /><rect width="10" height="10" x="150" y="140" fill="#000000" /><rect width="10" height="10" x="170" y="140" fill="#000000" /><rect width="10" height="10" x="180" y="140" fill="#0adc4d" /><rect width="20" height="10" x="190" y="140" fill="#000000" /><rect width="10" height="10" x="210" y="140" fill="#1929f4" /><rect width="10" height="10" x="220" y="140" fill="#000000" /><rect width="10" height="10" x="70" y="150" fill="#000000" /><rect width="60" height="10" x="100" y="150" fill="#000000" /><rect width="60" height="10" x="170" y="150" fill="#000000" /><rect width="60" height="10" x="100" y="160" fill="#000000" /><rect width="60" height="10" x="170" y="160" fill="#000000" />
</g>
<g x_x="x" id="circles2018"><g x_x="x" transform="translate(102,204) scale(0.8)"><g x_x="x"><use href="#nouns2018" transform="translate(180 726) scale(0.107) rotate(50,512,512)"/>
<circle cx="235" cy="781" r="60" fill="red" opacity="0.333"/>
</g>
<g x_x="x"><use href="#nouns2019" transform="translate(639 793) scale(0.134) rotate(82,512,512)"/>
<circle cx="708" cy="862" r="75" fill="green" opacity="0.333"/>
</g>
<g x_x="x"><use href="#nouns2020" transform="translate(861 366) scale(0.113) rotate(237,512,512)"/>
<circle cx="919" cy="424" r="63" fill="yellow" opacity="0.333"/>
</g>
<g x_x="x"><use href="#nouns2018" transform="translate(276 608) scale(0.269) rotate(350,512,512)"/>
<circle cx="414" cy="746" r="151" fill="blue" opacity="0.333"/>
</g>
<g x_x="x"><use href="#nouns2019" transform="translate(269 578) scale(0.253) rotate(439,512,512)"/>
<circle cx="399" cy="708" r="143" fill="red" opacity="0.333"/>
</g>
<g x_x="x"><use href="#nouns2020" transform="translate(463 171) scale(0.259) rotate(319,512,512)"/>
<circle cx="596" cy="304" r="146" fill="green" opacity="0.333"/>
</g>
<g x_x="x"><use href="#nouns2018" transform="translate(560 564) scale(0.261) rotate(277,512,512)"/>
<circle cx="694" cy="698" r="147" fill="yellow" opacity="0.333"/>
</g>
<g x_x="x"><use href="#nouns2019" transform="translate(331 237) scale(0.417) rotate(344,512,512)"/>
<circle cx="545" cy="451" r="235" fill="blue" opacity="0.333"/>
</g>
<g x_x="x"><use href="#nouns2020" transform="translate(479 357) scale(0.367) rotate(390,512,512)"/>
<circle cx="667" cy="545" r="206" fill="red" opacity="0.333"/>
</g>
<g x_x="x"><use href="#nouns2018" transform="translate(304 233) scale(0.433) rotate(388,512,512)"/>
<circle cx="526" cy="455" r="244" fill="green" opacity="0.333"/>
</g>
</g>
<g x_x="x" fill="#224455" transform="scale(0.348)"><path d="M485 491 c-17 -165 -78 -226 -180 -238 -101 -12 -94 11 -108 22 l-2 -24 s-60 -2 -82 -2 -81 1 -94 0 c0 0 0 395 5 482 5 86 1 257 1 284 0 0 59 8 94 7 s63 -8 72 -11 c0 0 14 -165 3 -221 0 0 137 29 202 -7 s106 -127 88 -291 Zm-261 171 c-40 -4 -31 -78 -32 -134 -4 -135 42 -138 66 -135 24 3 74 17 76 146 2 130 -69 126 -109 122 Z"/>
<path d="M31 43 s-9 170 -9 243 3 503 3 515 c0 0 65 3 83 6 s78 4 99 -7 c0 0 1 -286 1 -299 0 0 58 142 65 154 s67 148 67 148 c0 0 69 3 85 5 s70 1 78 -7 c0 0 1 -404 1 -434 s1 -316 0 -328 c0 0 -37 -11 -88 -11 s-93 8 -93 8 c0 0 -2 109 -1 145 s3 145 3 145 c0 0 -52 -116 -64 -147 s-53 -123 -58 -129 S110 24 31 43 Z" transform="translate(498 0)"/>
<path d="M434 288 c-59 -48 -100 -49 -175 -52 -75 -3 -153 6 -193 37 -40 31 -53 147 -47 257 6 110 8 179 56 226 48 47 111 56 204 55 60 -1 176 9 191 -132 15 -141 22 -343 -37 -391 Zm-120 255 c-5 52 4 111 -70 104 -74 -7 -50 -110 -50 -131 0 -88 15 -110 66 -105 51 5 59 79 54 132 Z" transform="translate(1024 0)"/>
<path d="M8 268 s5 143 1 233 -11 264 46 284 112 45 220 -18 c0 0 2 39 3 41 s19 9 92 4 80 -1 80 -1 c0 0 4 -306 0 -368 s-2 -185 -2 -185 c0 0 -58 3 -76 2 s-64 0 -88 10 c0 0 -11 105 -3 164 s17 185 -44 191 -54 -77 -58 -171 3 -149 -3 -193 c0 0 -69 -1 -86 -1 s-82 8 -82 8 Z" transform="translate(1522 0)"/>
<path d="M7 251 s-2 467 1 552 c0 0 65 -1 93 1 s63 -6 73 -10 c0 0 6 -136 -1 -222 s6 -135 47 -134 53 24 58 174 -1 165 3 188 c0 0 78 1 97 2 s58 -6 69 -7 c0 0 -4 -217 0 -283 s8 -202 -45 -235 -151 -23 -221 19 c0 0 1 -32 -5 -41 s-64 -3 -88 -1 -63 2 -82 -3 Z" transform="translate(1983 0)"/>
<path d="M5 624 s3 106 73 149 c70 44 225 71 329 11 105 -61 93 -231 24 -268 -69 -37 -142 -46 -175 -52 -33 -7 -52 -61 -34 -80 18 -20 39 -28 58 -18 19 11 30 32 27 59 0 0 55 18 117 14 62 -3 67 -10 67 -10 0 0 -1 -91 -36 -132 -35 -41 -47 -56 -173 -62 -126 -6 -163 13 -211 46 -48 34 -55 94 -55 120 -1 76 83 133 125 149 s121 26 150 49 c10 8 12 39 7 51 -6 13 -3 17 -21 25 -15 7 -75 9 -83 -53 0 0 -83 -5 -105 -3 -22 1 -71 1 -84 6 Z" transform="translate(2439 0)"/>
</g>
<g x_x="x" fill="#224455" transform="translate(555 922) scale(0.1)"><path d="M211 343 s10 -90 24 -109 57 -42 75 13 -2 102 -52 129 -76 51 -129 83 -74 59 -78 65 -24 36 -29 79 -10 187 -11 195 c0 0 15 4 30 5 s189 -5 212 -5 238 -3 246 -3 8 -6 8 -9 -3 -73 -1 -85 -3 -52 -10 -68 c0 0 -252 6 -279 2 0 0 35 -75 72 -97 s153 -76 185 -112 49 -59 49 -129 -4 -170 -92 -236 -270 -32 -320 2 S-10 187 21 344 c0 0 57 21 190 -1 Z"/>
<path d="M465 116 C394 31 297 11 210 33 c0 0 -158 46 -182 197 -12 25 -11 75 -13 176 -1 101 -2 235 57 302 59 68 139 115 268 76 s192 -254 197 -361 c5 -107 -2 -223 -73 -307 Zm-139 340 c-4 131 -26 153 -57 154 -32 1 -29 -11 -46 -55 -17 -43 -17 -154 -17 -154 11 -142 11 -194 64 -192 s61 115 57 247 Z" transform="translate(540 0)"/>
<path d="M188 295 s-9 244 -11 295 -2 198 -2 198 c0 0 78 13 124 12 s78 -5 79 -22 5 -374 8 -415 4 -323 -2 -337 c0 0 -95 -6 -130 -5 s-99 2 -103 1 c0 0 -67 100 -84 128 S9 251 10 269 c0 0 27 20 75 31 s70 15 75 15 24 -7 28 -19 Z" transform="translate(1094 0)"/>
<path d="M431 423 s71 -58 82 -137 c11 -79 -16 -173 -69 -218 -52 -45 -129 -42 -211 -41 -82 1 -129 33 -164 79 S9 244 27 310 c18 66 52 105 52 105 0 0 -71 77 -68 173 3 96 55 174 124 199 69 25 137 35 223 12 85 -23 127 -69 151 -172 24 -103 -61 -196 -78 -205 ZM254 231 c28 -3 43 28 44 30 1 3 4 57 -31 57 s-41 -40 -41 -40 c-2 -13 0 -44 28 -48 Zm37 367 c-4 4 -26 12 -53 0 s-18 -57 -18 -57 c3 -22 24 -39 33 -40 s51 3 56 42 c5 39 -14 51 -18 55 Z" transform="translate(1508 0)"/>
<path d="M110 800 s52 2 76 -6 c0 0 5 -3 12 -26 s57 -142 72 -185 78 -229 91 -265 40 -113 48 -137 38 -122 38 -126 -4 -7 -6 -7 c0 0 3 -6 9 -7 0 0 -15 -15 -74 -13 s-86 -1 -97 -5 c0 0 -28 102 -41 136 s-28 83 -28 85 -9 34 -14 44 -65 177 -71 192 -38 108 -43 119 -42 112 -35 102 c0 0 -25 63 -24 73 s-3 26 12 26 74 -1 74 -1 Z" transform="translate(2034 0)"/>
<path d="M211 343 s10 -90 24 -109 57 -42 75 13 -2 102 -52 129 -76 51 -129 83 -74 59 -78 65 -24 36 -29 79 -10 187 -11 195 c0 0 15 4 30 5 s189 -5 212 -5 238 -3 246 -3 8 -6 8 -9 -3 -73 -1 -85 -3 -52 -10 -68 c0 0 -252 6 -279 2 0 0 35 -75 72 -97 s153 -76 185 -112 49 -59 49 -129 -4 -170 -92 -236 -270 -32 -320 2 S-10 187 21 344 c0 0 57 21 190 -1 Z" transform="translate(2495 0)"/>
<path d="M465 116 C394 31 297 11 210 33 c0 0 -158 46 -182 197 -12 25 -11 75 -13 176 -1 101 -2 235 57 302 59 68 139 115 268 76 s192 -254 197 -361 c5 -107 -2 -223 -73 -307 Zm-139 340 c-4 131 -26 153 -57 154 -32 1 -29 -11 -46 -55 -17 -43 -17 -154 -17 -154 11 -142 11 -194 64 -192 s61 115 57 247 Z" transform="translate(3035 0)"/>
<path d="M465 116 C394 31 297 11 210 33 c0 0 -158 46 -182 197 -12 25 -11 75 -13 176 -1 101 -2 235 57 302 59 68 139 115 268 76 s192 -254 197 -361 c5 -107 -2 -223 -73 -307 Zm-139 340 c-4 131 -26 153 -57 154 -32 1 -29 -11 -46 -55 -17 -43 -17 -154 -17 -154 11 -142 11 -194 64 -192 s61 115 57 247 Z" transform="translate(3589 0)"/>
<path d="M465 116 C394 31 297 11 210 33 c0 0 -158 46 -182 197 -12 25 -11 75 -13 176 -1 101 -2 235 57 302 59 68 139 115 268 76 s192 -254 197 -361 c5 -107 -2 -223 -73 -307 Zm-139 340 c-4 131 -26 153 -57 154 -32 1 -29 -11 -46 -55 -17 -43 -17 -154 -17 -154 11 -142 11 -194 64 -192 s61 115 57 247 Z" transform="translate(4143 0)"/>
</g>
</g>
</defs>
<use href="#circles2018" />
</svg>
