<svg viewBox="0 0 1024 1024"  xmlns="http://www.w3.org/2000/svg">
<defs>
<g id="nouns2029" transform="scale(3.2)" shape-rendering="crispEdges">
<rect width="140" height="10" x="90" y="210" fill="#f98f30" /><rect width="140" height="10" x="90" y="220" fill="#f98f30" /><rect width="140" height="10" x="90" y="230" fill="#f98f30" /><rect width="140" height="10" x="90" y="240" fill="#f98f30" /><rect width="20" height="10" x="90" y="250" fill="#f98f30" /><rect width="110" height="10" x="120" y="250" fill="#f98f30" /><rect width="20" height="10" x="90" y="260" fill="#f98f30" /><rect width="110" height="10" x="120" y="260" fill="#f98f30" /><rect width="20" height="10" x="90" y="270" fill="#f98f30" /><rect width="110" height="10" x="120" y="270" fill="#f98f30" /><rect width="20" height="10" x="90" y="280" fill="#f98f30" /><rect width="110" height="10" x="120" y="280" fill="#f98f30" /><rect width="20" height="10" x="90" y="290" fill="#f98f30" /><rect width="110" height="10" x="120" y="290" fill="#f98f30" /><rect width="20" height="10" x="90" y="300" fill="#f98f30" /><rect width="110" height="10" x="120" y="300" fill="#f98f30" /><rect width="20" height="10" x="90" y="310" fill="#f98f30" /><rect width="110" height="10" x="120" y="310" fill="#f98f30" /><rect width="140" height="10" x="90" y="210" fill="#ff3a0e" /><rect width="140" height="10" x="90" y="220" fill="#ff3a0e" /><rect width="140" height="10" x="90" y="230" fill="#f3322c" /><rect width="140" height="10" x="90" y="240" fill="#f3322c" /><rect width="20" height="10" x="90" y="250" fill="#e8705b" /><rect width="110" height="10" x="120" y="250" fill="#e8705b" /><rect width="20" height="10" x="90" y="260" fill="#e8705b" /><rect width="110" height="10" x="120" y="260" fill="#e8705b" /><rect width="20" height="10" x="90" y="270" fill="#e8705b" /><rect width="110" height="10" x="120" y="270" fill="#e8705b" /><rect width="20" height="10" x="90" y="280" fill="#e8705b" /><rect width="110" height="10" x="120" y="280" fill="#e8705b" /><rect width="20" height="10" x="90" y="290" fill="#f38b7c" /><rect width="110" height="10" x="120" y="290" fill="#f38b7c" /><rect width="20" height="10" x="90" y="300" fill="#f38b7c" /><rect width="110" height="10" x="120" y="300" fill="#f38b7c" /><rect width="20" height="10" x="90" y="310" fill="#e4a499" /><rect width="110" height="10" x="120" y="310" fill="#e4a499" /><rect width="20" height="10" x="110" y="20" fill="#909b0e" /><rect width="30" height="10" x="130" y="20" fill="#ffc110" /><rect width="40" height="10" x="110" y="30" fill="#909b0e" /><rect width="20" height="10" x="170" y="30" fill="#909b0e" /><rect width="30" height="10" x="190" y="30" fill="#ffc110" /><rect width="10" height="10" x="70" y="40" fill="#ffc110" /><rect width="20" height="10" x="110" y="40" fill="#909b0e" /><rect width="50" height="10" x="160" y="40" fill="#909b0e" /><rect width="10" height="10" x="70" y="50" fill="#ffc110" /><rect width="10" height="10" x="80" y="50" fill="#909b0e" /><rect width="20" height="10" x="110" y="50" fill="#909b0e" /><rect width="30" height="10" x="150" y="50" fill="#909b0e" /><rect width="10" height="10" x="70" y="60" fill="#ffc110" /><rect width="10" height="10" x="80" y="60" fill="#909b0e" /><rect width="20" height="10" x="110" y="60" fill="#909b0e" /><rect width="30" height="10" x="150" y="60" fill="#909b0e" /><rect width="20" height="10" x="70" y="70" fill="#909b0e" /><rect width="20" height="10" x="110" y="70" fill="#909b0e" /><rect width="20" height="10" x="150" y="70" fill="#909b0e" /><rect width="10" height="10" x="190" y="70" fill="#6f597a" /><rect width="10" height="10" x="230" y="70" fill="#ffc110" /><rect width="20" height="10" x="70" y="80" fill="#909b0e" /><rect width="30" height="10" x="110" y="80" fill="#909b0e" /><rect width="20" height="10" x="150" y="80" fill="#909b0e" /><rect width="10" height="10" x="220" y="80" fill="#909b0e" /><rect width="20" height="10" x="230" y="80" fill="#ffc110" /><rect width="20" height="10" x="70" y="90" fill="#909b0e" /><rect width="50" height="10" x="120" y="90" fill="#909b0e" /><rect width="40" height="10" x="220" y="90" fill="#909b0e" /><rect width="10" height="10" x="50" y="100" fill="#6f597a" /><rect width="20" height="10" x="80" y="100" fill="#909b0e" /><rect width="50" height="10" x="120" y="100" fill="#909b0e" /><rect width="30" height="10" x="230" y="100" fill="#909b0e" /><rect width="20" height="10" x="50" y="110" fill="#6f597a" /><rect width="20" height="10" x="80" y="110" fill="#909b0e" /><rect width="50" height="10" x="120" y="110" fill="#909b0e" /><rect width="20" height="10" x="240" y="110" fill="#909b0e" /><rect width="100" height="10" x="80" y="120" fill="#909b0e" /><rect width="40" height="10" x="220" y="120" fill="#909b0e" /><rect width="160" height="10" x="90" y="130" fill="#909b0e" /><rect width="150" height="10" x="90" y="140" fill="#909b0e" /><rect width="10" height="10" x="260" y="140" fill="#6f597a" /><rect width="10" height="10" x="50" y="150" fill="#6f597a" /><rect width="100" height="10" x="110" y="150" fill="#909b0e" /><rect width="20" height="10" x="250" y="150" fill="#6f597a" /><rect width="80" height="10" x="120" y="160" fill="#909b0e" /><rect width="10" height="10" x="80" y="170" fill="#6f597a" /><rect width="80" height="10" x="120" y="170" fill="#909b0e" /><rect width="10" height="10" x="110" y="180" fill="#6f597a" /><rect width="10" height="10" x="120" y="180" fill="#909b0e" /><rect width="10" height="10" x="130" y="180" fill="#000000" /><rect width="10" height="10" x="140" y="180" fill="#ffae1a" /><rect width="10" height="10" x="150" y="180" fill="#000000" /><rect width="10" height="10" x="160" y="180" fill="#ffae1a" /><rect width="10" height="10" x="170" y="180" fill="#000000" /><rect width="20" height="10" x="180" y="180" fill="#909b0e" /><rect width="10" height="10" x="200" y="180" fill="#6f597a" /><rect width="10" height="10" x="240" y="180" fill="#6f597a" /><rect width="30" height="10" x="100" y="190" fill="#6f597a" /><rect width="60" height="10" x="130" y="190" fill="#909b0e" /><rect width="30" height="10" x="190" y="190" fill="#6f597a" /><rect width="140" height="10" x="90" y="200" fill="#6f597a" /><rect width="10" height="10" x="100" y="210" fill="#6f597a" /><rect width="30" height="10" x="120" y="210" fill="#6f597a" /><rect width="20" height="10" x="170" y="210" fill="#6f597a" /><rect width="10" height="10" x="200" y="210" fill="#6f597a" /><rect width="10" height="10" x="130" y="220" fill="#6f597a" /><rect width="10" height="10" x="230" y="220" fill="#6f597a" /><rect width="60" height="10" x="100" y="110" fill="#d7d3cd" /><rect width="60" height="10" x="170" y="110" fill="#d7d3cd" /><rect width="10" height="10" x="100" y="120" fill="#d7d3cd" /><rect width="20" height="10" x="110" y="120" fill="#fdf8ff" /><rect width="20" height="10" x="130" y="120" fill="#000000" /><rect width="10" height="10" x="150" y="120" fill="#d7d3cd" /><rect width="10" height="10" x="170" y="120" fill="#d7d3cd" /><rect width="20" height="10" x="180" y="120" fill="#fdf8ff" /><rect width="20" height="10" x="200" y="120" fill="#000000" /><rect width="10" height="10" x="220" y="120" fill="#d7d3cd" /><rect width="40" height="10" x="70" y="130" fill="#d7d3cd" /><rect width="20" height="10" x="110" y="130" fill="#fdf8ff" /><rect width="20" height="10" x="130" y="130" fill="#000000" /><rect width="30" height="10" x="150" y="130" fill="#d7d3cd" /><rect width="20" height="10" x="180" y="130" fill="#fdf8ff" /><rect width="20" height="10" x="200" y="130" fill="#000000" /><rect width="10" height="10" x="220" y="130" fill="#d7d3cd" /><rect width="10" height="10" x="70" y="140" fill="#d7d3cd" /><rect width="10" height="10" x="100" y="140" fill="#d7d3cd" /><rect width="20" height="10" x="110" y="140" fill="#fdf8ff" /><rect width="20" height="10" x="130" y="140" fill="#000000" /><rect width="10" height="10" x="150" y="140" fill="#d7d3cd" /><rect width="10" height="10" x="170" y="140" fill="#d7d3cd" /><rect width="20" height="10" x="180" y="140" fill="#fdf8ff" /><rect width="20" height="10" x="200" y="140" fill="#000000" /><rect width="10" height="10" x="220" y="140" fill="#d7d3cd" /><rect width="10" height="10" x="70" y="150" fill="#d7d3cd" /><rect width="10" height="10" x="100" y="150" fill="#d7d3cd" /><rect width="20" height="10" x="110" y="150" fill="#fdf8ff" /><rect width="20" height="10" x="130" y="150" fill="#000000" /><rect width="10" height="10" x="150" y="150" fill="#d7d3cd" /><rect width="10" height="10" x="170" y="150" fill="#d7d3cd" /><rect width="20" height="10" x="180" y="150" fill="#fdf8ff" /><rect width="20" height="10" x="200" y="150" fill="#000000" /><rect width="10" height="10" x="220" y="150" fill="#d7d3cd" /><rect width="60" height="10" x="100" y="160" fill="#d7d3cd" /><rect width="60" height="10" x="170" y="160" fill="#d7d3cd" />
</g>
<g id="nouns2030" transform="scale(3.2)" shape-rendering="crispEdges">
<rect width="140" height="10" x="90" y="210" fill="#fd8b5b" /><rect width="140" height="10" x="90" y="220" fill="#fd8b5b" /><rect width="140" height="10" x="90" y="230" fill="#fd8b5b" /><rect width="140" height="10" x="90" y="240" fill="#fd8b5b" /><rect width="20" height="10" x="90" y="250" fill="#fd8b5b" /><rect width="110" height="10" x="120" y="250" fill="#fd8b5b" /><rect width="20" height="10" x="90" y="260" fill="#fd8b5b" /><rect width="110" height="10" x="120" y="260" fill="#fd8b5b" /><rect width="20" height="10" x="90" y="270" fill="#fd8b5b" /><rect width="110" height="10" x="120" y="270" fill="#fd8b5b" /><rect width="20" height="10" x="90" y="280" fill="#fd8b5b" /><rect width="110" height="10" x="120" y="280" fill="#fd8b5b" /><rect width="20" height="10" x="90" y="290" fill="#fd8b5b" /><rect width="110" height="10" x="120" y="290" fill="#fd8b5b" /><rect width="20" height="10" x="90" y="300" fill="#fd8b5b" /><rect width="110" height="10" x="120" y="300" fill="#fd8b5b" /><rect width="20" height="10" x="90" y="310" fill="#fd8b5b" /><rect width="110" height="10" x="120" y="310" fill="#fd8b5b" /><rect width="10" height="10" x="140" y="230" fill="#068940" /><rect width="20" height="10" x="150" y="250" fill="#068940" /><rect width="10" height="10" x="130" y="260" fill="#068940" /><rect width="20" height="10" x="150" y="260" fill="#068940" /><rect width="20" height="10" x="180" y="270" fill="#068940" /><rect width="40" height="10" x="170" y="280" fill="#068940" /><rect width="10" height="10" x="150" y="290" fill="#068940" /><rect width="40" height="10" x="170" y="290" fill="#068940" /><rect width="20" height="10" x="180" y="300" fill="#068940" /><rect width="30" height="10" x="70" y="60" fill="#7e5243" /><rect width="150" height="10" x="100" y="60" fill="#8f785e" /><rect width="10" height="10" x="250" y="60" fill="#5a423f" /><rect width="40" height="10" x="60" y="70" fill="#7e5243" /><rect width="150" height="10" x="100" y="70" fill="#8f785e" /><rect width="10" height="10" x="250" y="70" fill="#5a423f" /><rect width="40" height="10" x="50" y="80" fill="#7e5243" /><rect width="10" height="10" x="90" y="80" fill="#5a423f" /><rect width="150" height="10" x="100" y="80" fill="#8f785e" /><rect width="20" height="10" x="250" y="80" fill="#5a423f" /><rect width="40" height="10" x="50" y="90" fill="#7e5243" /><rect width="10" height="10" x="90" y="90" fill="#5a423f" /><rect width="150" height="10" x="100" y="90" fill="#8f785e" /><rect width="20" height="10" x="250" y="90" fill="#5a423f" /><rect width="40" height="10" x="40" y="100" fill="#7e5243" /><rect width="20" height="10" x="80" y="100" fill="#5a423f" /><rect width="150" height="10" x="100" y="100" fill="#8f785e" /><rect width="20" height="10" x="250" y="100" fill="#5a423f" /><rect width="50" height="10" x="30" y="110" fill="#7e5243" /><rect width="20" height="10" x="80" y="110" fill="#5a423f" /><rect width="150" height="10" x="100" y="110" fill="#8f785e" /><rect width="30" height="10" x="250" y="110" fill="#5a423f" /><rect width="30" height="10" x="70" y="120" fill="#5a423f" /><rect width="150" height="10" x="100" y="120" fill="#8f785e" /><rect width="30" height="10" x="250" y="120" fill="#5a423f" /><rect width="30" height="10" x="70" y="130" fill="#5a423f" /><rect width="150" height="10" x="100" y="130" fill="#8f785e" /><rect width="30" height="10" x="70" y="140" fill="#5a423f" /><rect width="150" height="10" x="100" y="140" fill="#8f785e" /><rect width="20" height="10" x="70" y="150" fill="#8f785e" /><rect width="10" height="10" x="90" y="150" fill="#5a423f" /><rect width="150" height="10" x="100" y="150" fill="#8f785e" /><rect width="20" height="10" x="70" y="160" fill="#8f785e" /><rect width="10" height="10" x="90" y="160" fill="#5a423f" /><rect width="150" height="10" x="100" y="160" fill="#8f785e" /><rect width="20" height="10" x="70" y="170" fill="#8f785e" /><rect width="10" height="10" x="90" y="170" fill="#5a423f" /><rect width="50" height="10" x="100" y="170" fill="#8f785e" /><rect width="100" height="10" x="150" y="170" fill="#c5b9a1" /><rect width="30" height="10" x="70" y="180" fill="#5a423f" /><rect width="50" height="10" x="100" y="180" fill="#8f785e" /><rect width="100" height="10" x="150" y="180" fill="#c5b9a1" /><rect width="30" height="10" x="70" y="190" fill="#5a423f" /><rect width="50" height="10" x="100" y="190" fill="#8f785e" /><rect width="100" height="10" x="150" y="190" fill="#c5b9a1" /><rect width="30" height="10" x="70" y="200" fill="#5a423f" /><rect width="150" height="10" x="100" y="200" fill="#8f785e" /><rect width="60" height="10" x="100" y="110" fill="#b9185c" /><rect width="60" height="10" x="170" y="110" fill="#b9185c" /><rect width="10" height="10" x="100" y="120" fill="#b9185c" /><rect width="20" height="10" x="110" y="120" fill="#ffffff" /><rect width="20" height="10" x="130" y="120" fill="#000000" /><rect width="10" height="10" x="150" y="120" fill="#b9185c" /><rect width="10" height="10" x="170" y="120" fill="#b9185c" /><rect width="20" height="10" x="180" y="120" fill="#ffffff" /><rect width="20" height="10" x="200" y="120" fill="#000000" /><rect width="10" height="10" x="220" y="120" fill="#b9185c" /><rect width="40" height="10" x="70" y="130" fill="#b9185c" /><rect width="20" height="10" x="110" y="130" fill="#ffffff" /><rect width="20" height="10" x="130" y="130" fill="#000000" /><rect width="30" height="10" x="150" y="130" fill="#b9185c" /><rect width="20" height="10" x="180" y="130" fill="#ffffff" /><rect width="20" height="10" x="200" y="130" fill="#000000" /><rect width="10" height="10" x="220" y="130" fill="#b9185c" /><rect width="10" height="10" x="70" y="140" fill="#b9185c" /><rect width="10" height="10" x="100" y="140" fill="#b9185c" /><rect width="20" height="10" x="110" y="140" fill="#ffffff" /><rect width="20" height="10" x="130" y="140" fill="#000000" /><rect width="10" height="10" x="150" y="140" fill="#b9185c" /><rect width="10" height="10" x="170" y="140" fill="#b9185c" /><rect width="20" height="10" x="180" y="140" fill="#ffffff" /><rect width="20" height="10" x="200" y="140" fill="#000000" /><rect width="10" height="10" x="220" y="140" fill="#b9185c" /><rect width="10" height="10" x="70" y="150" fill="#b9185c" /><rect width="10" height="10" x="100" y="150" fill="#b9185c" /><rect width="20" height="10" x="110" y="150" fill="#ffffff" /><rect width="20" height="10" x="130" y="150" fill="#000000" /><rect width="10" height="10" x="150" y="150" fill="#b9185c" /><rect width="10" height="10" x="170" y="150" fill="#b9185c" /><rect width="20" height="10" x="180" y="150" fill="#ffffff" /><rect width="20" height="10" x="200" y="150" fill="#000000" /><rect width="10" height="10" x="220" y="150" fill="#b9185c" /><rect width="60" height="10" x="100" y="160" fill="#b9185c" /><rect width="60" height="10" x="170" y="160" fill="#b9185c" />
</g>
<g id="nouns2031" transform="scale(3.2)" shape-rendering="crispEdges">
<rect width="140" height="10" x="90" y="210" fill="#34ac80" /><rect width="140" height="10" x="90" y="220" fill="#34ac80" /><rect width="140" height="10" x="90" y="230" fill="#34ac80" /><rect width="140" height="10" x="90" y="240" fill="#34ac80" /><rect width="20" height="10" x="90" y="250" fill="#34ac80" /><rect width="110" height="10" x="120" y="250" fill="#34ac80" /><rect width="20" height="10" x="90" y="260" fill="#34ac80" /><rect width="110" height="10" x="120" y="260" fill="#34ac80" /><rect width="20" height="10" x="90" y="270" fill="#34ac80" /><rect width="110" height="10" x="120" y="270" fill="#34ac80" /><rect width="20" height="10" x="90" y="280" fill="#34ac80" /><rect width="110" height="10" x="120" y="280" fill="#34ac80" /><rect width="20" height="10" x="90" y="290" fill="#34ac80" /><rect width="110" height="10" x="120" y="290" fill="#34ac80" /><rect width="20" height="10" x="90" y="300" fill="#34ac80" /><rect width="110" height="10" x="120" y="300" fill="#34ac80" /><rect width="20" height="10" x="90" y="310" fill="#34ac80" /><rect width="110" height="10" x="120" y="310" fill="#34ac80" /><rect width="10" height="10" x="90" y="240" fill="#ffc110" /><rect width="30" height="10" x="110" y="240" fill="#ffc110" /><rect width="30" height="10" x="150" y="240" fill="#ffc110" /><rect width="30" height="10" x="190" y="240" fill="#ffc110" /><rect width="10" height="10" x="100" y="250" fill="#ffc110" /><rect width="10" height="10" x="140" y="250" fill="#ffc110" /><rect width="10" height="10" x="180" y="250" fill="#ffc110" /><rect width="10" height="10" x="220" y="250" fill="#ffc110" /><rect width="20" height="10" x="90" y="260" fill="#ffc110" /><rect width="30" height="10" x="130" y="260" fill="#ffc110" /><rect width="30" height="10" x="170" y="260" fill="#ffc110" /><rect width="20" height="10" x="210" y="260" fill="#ffc110" /><rect width="10" height="10" x="100" y="270" fill="#ffc110" /><rect width="10" height="10" x="140" y="270" fill="#ffc110" /><rect width="10" height="10" x="180" y="270" fill="#ffc110" /><rect width="10" height="10" x="220" y="270" fill="#ffc110" /><rect width="10" height="10" x="90" y="280" fill="#ffc110" /><rect width="20" height="10" x="120" y="280" fill="#ffc110" /><rect width="30" height="10" x="150" y="280" fill="#ffc110" /><rect width="30" height="10" x="190" y="280" fill="#ffc110" /><rect width="10" height="10" x="190" y="60" fill="#a38654" /><rect width="70" height="10" x="170" y="70" fill="#74580d" /><rect width="30" height="10" x="150" y="80" fill="#74580d" /><rect width="10" height="10" x="180" y="80" fill="#a38654" /><rect width="70" height="10" x="190" y="80" fill="#74580d" /><rect width="110" height="10" x="120" y="90" fill="#74580d" /><rect width="20" height="10" x="230" y="90" fill="#a38654" /><rect width="20" height="10" x="250" y="90" fill="#74580d" /><rect width="150" height="10" x="90" y="100" fill="#74580d" /><rect width="10" height="10" x="240" y="100" fill="#a38654" /><rect width="20" height="10" x="250" y="100" fill="#74580d" /><rect width="220" height="10" x="60" y="110" fill="#74580d" /><rect width="230" height="10" x="50" y="120" fill="#74580d" /><rect width="240" height="10" x="40" y="130" fill="#74580d" /><rect width="240" height="10" x="40" y="140" fill="#74580d" /><rect width="240" height="10" x="40" y="150" fill="#74580d" /><rect width="10" height="10" x="280" y="150" fill="#a38654" /><rect width="240" height="10" x="40" y="160" fill="#74580d" /><rect width="160" height="10" x="40" y="170" fill="#74580d" /><rect width="20" height="10" x="200" y="170" fill="#a38654" /><rect width="50" height="10" x="220" y="170" fill="#74580d" /><rect width="90" height="10" x="50" y="180" fill="#74580d" /><rect width="10" height="10" x="140" y="180" fill="#000000" /><rect width="10" height="10" x="150" y="180" fill="#ffffff" /><rect width="10" height="10" x="160" y="180" fill="#000000" /><rect width="10" height="10" x="170" y="180" fill="#ffffff" /><rect width="10" height="10" x="180" y="180" fill="#000000" /><rect width="10" height="10" x="190" y="180" fill="#74580d" /><rect width="20" height="10" x="200" y="180" fill="#a38654" /><rect width="50" height="10" x="220" y="180" fill="#74580d" /><rect width="50" height="10" x="60" y="190" fill="#74580d" /><rect width="20" height="10" x="110" y="190" fill="#a38654" /><rect width="130" height="10" x="130" y="190" fill="#74580d" /><rect width="40" height="10" x="70" y="200" fill="#74580d" /><rect width="20" height="10" x="110" y="200" fill="#a38654" /><rect width="110" height="10" x="130" y="200" fill="#74580d" /><rect width="100" height="10" x="100" y="210" fill="#74580d" /><rect width="60" height="10" x="100" y="110" fill="#ffef16" /><rect width="60" height="10" x="170" y="110" fill="#ffef16" /><rect width="10" height="10" x="100" y="120" fill="#ffef16" /><rect width="20" height="10" x="110" y="120" fill="#ffffff" /><rect width="20" height="10" x="130" y="120" fill="#000000" /><rect width="10" height="10" x="150" y="120" fill="#ffef16" /><rect width="10" height="10" x="170" y="120" fill="#ffef16" /><rect width="20" height="10" x="180" y="120" fill="#ffffff" /><rect width="20" height="10" x="200" y="120" fill="#000000" /><rect width="10" height="10" x="220" y="120" fill="#ffef16" /><rect width="40" height="10" x="70" y="130" fill="#ffef16" /><rect width="20" height="10" x="110" y="130" fill="#ffffff" /><rect width="20" height="10" x="130" y="130" fill="#000000" /><rect width="30" height="10" x="150" y="130" fill="#ffef16" /><rect width="20" height="10" x="180" y="130" fill="#ffffff" /><rect width="20" height="10" x="200" y="130" fill="#000000" /><rect width="10" height="10" x="220" y="130" fill="#ffef16" /><rect width="10" height="10" x="70" y="140" fill="#ffef16" /><rect width="10" height="10" x="100" y="140" fill="#ffef16" /><rect width="20" height="10" x="110" y="140" fill="#ffffff" /><rect width="20" height="10" x="130" y="140" fill="#000000" /><rect width="10" height="10" x="150" y="140" fill="#ffef16" /><rect width="10" height="10" x="170" y="140" fill="#ffef16" /><rect width="20" height="10" x="180" y="140" fill="#ffffff" /><rect width="20" height="10" x="200" y="140" fill="#000000" /><rect width="10" height="10" x="220" y="140" fill="#ffef16" /><rect width="10" height="10" x="70" y="150" fill="#ffef16" /><rect width="10" height="10" x="100" y="150" fill="#ffef16" /><rect width="20" height="10" x="110" y="150" fill="#ffffff" /><rect width="20" height="10" x="130" y="150" fill="#000000" /><rect width="10" height="10" x="150" y="150" fill="#ffef16" /><rect width="10" height="10" x="170" y="150" fill="#ffef16" /><rect width="20" height="10" x="180" y="150" fill="#ffffff" /><rect width="20" height="10" x="200" y="150" fill="#000000" /><rect width="10" height="10" x="220" y="150" fill="#ffef16" /><rect width="60" height="10" x="100" y="160" fill="#ffef16" /><rect width="60" height="10" x="170" y="160" fill="#ffef16" />
</g>
<g x_x="x" id="circles2029"><g x_x="x" transform="translate(102,204) scale(0.8)"><g x_x="x"><use href="#nouns2029" transform="translate(500 898) scale(0.125) rotate(129,512,512)"/>
<circle cx="564" cy="962" r="70" fill="red" opacity="0.333"/>
</g>
<g x_x="x"><use href="#nouns2030" transform="translate(65 632) scale(0.138) rotate(125,512,512)"/>
<circle cx="136" cy="703" r="78" fill="green" opacity="0.333"/>
</g>
<g x_x="x"><use href="#nouns2031" transform="translate(96 228) scale(0.082) rotate(7,512,512)"/>
<circle cx="138" cy="270" r="46" fill="yellow" opacity="0.333"/>
</g>
<g x_x="x"><use href="#nouns2029" transform="translate(293 681) scale(0.197) rotate(248,512,512)"/>
<circle cx="394" cy="782" r="111" fill="blue" opacity="0.333"/>
</g>
<g x_x="x"><use href="#nouns2030" transform="translate(417 146) scale(0.261) rotate(260,512,512)"/>
<circle cx="551" cy="280" r="147" fill="red" opacity="0.333"/>
</g>
<g x_x="x"><use href="#nouns2031" transform="translate(632 290) scale(0.255) rotate(456,512,512)"/>
<circle cx="763" cy="421" r="144" fill="green" opacity="0.333"/>
</g>
<g x_x="x"><use href="#nouns2029" transform="translate(450 612) scale(0.267) rotate(329,512,512)"/>
<circle cx="587" cy="749" r="150" fill="yellow" opacity="0.333"/>
</g>
<g x_x="x"><use href="#nouns2030" transform="translate(429 320) scale(0.425) rotate(323,512,512)"/>
<circle cx="647" cy="538" r="239" fill="blue" opacity="0.333"/>
</g>
<g x_x="x"><use href="#nouns2031" transform="translate(319 320) scale(0.375) rotate(365,512,512)"/>
<circle cx="511" cy="512" r="211" fill="red" opacity="0.333"/>
</g>
<g x_x="x"><use href="#nouns2029" transform="translate(282 172) scale(0.410) rotate(319,512,512)"/>
<circle cx="492" cy="382" r="231" fill="green" opacity="0.333"/>
</g>
</g>
<g x_x="x" fill="#224455" transform="scale(0.348)"><path d="M485 491 c-17 -165 -78 -226 -180 -238 -101 -12 -94 11 -108 22 l-2 -24 s-60 -2 -82 -2 -81 1 -94 0 c0 0 0 395 5 482 5 86 1 257 1 284 0 0 59 8 94 7 s63 -8 72 -11 c0 0 14 -165 3 -221 0 0 137 29 202 -7 s106 -127 88 -291 Zm-261 171 c-40 -4 -31 -78 -32 -134 -4 -135 42 -138 66 -135 24 3 74 17 76 146 2 130 -69 126 -109 122 Z"/>
<path d="M31 43 s-9 170 -9 243 3 503 3 515 c0 0 65 3 83 6 s78 4 99 -7 c0 0 1 -286 1 -299 0 0 58 142 65 154 s67 148 67 148 c0 0 69 3 85 5 s70 1 78 -7 c0 0 1 -404 1 -434 s1 -316 0 -328 c0 0 -37 -11 -88 -11 s-93 8 -93 8 c0 0 -2 109 -1 145 s3 145 3 145 c0 0 -52 -116 -64 -147 s-53 -123 -58 -129 S110 24 31 43 Z" transform="translate(498 0)"/>
<path d="M434 288 c-59 -48 -100 -49 -175 -52 -75 -3 -153 6 -193 37 -40 31 -53 147 -47 257 6 110 8 179 56 226 48 47 111 56 204 55 60 -1 176 9 191 -132 15 -141 22 -343 -37 -391 Zm-120 255 c-5 52 4 111 -70 104 -74 -7 -50 -110 -50 -131 0 -88 15 -110 66 -105 51 5 59 79 54 132 Z" transform="translate(1024 0)"/>
<path d="M8 268 s5 143 1 233 -11 264 46 284 112 45 220 -18 c0 0 2 39 3 41 s19 9 92 4 80 -1 80 -1 c0 0 4 -306 0 -368 s-2 -185 -2 -185 c0 0 -58 3 -76 2 s-64 0 -88 10 c0 0 -11 105 -3 164 s17 185 -44 191 -54 -77 -58 -171 3 -149 -3 -193 c0 0 -69 -1 -86 -1 s-82 8 -82 8 Z" transform="translate(1522 0)"/>
<path d="M7 251 s-2 467 1 552 c0 0 65 -1 93 1 s63 -6 73 -10 c0 0 6 -136 -1 -222 s6 -135 47 -134 53 24 58 174 -1 165 3 188 c0 0 78 1 97 2 s58 -6 69 -7 c0 0 -4 -217 0 -283 s8 -202 -45 -235 -151 -23 -221 19 c0 0 1 -32 -5 -41 s-64 -3 -88 -1 -63 2 -82 -3 Z" transform="translate(1983 0)"/>
<path d="M5 624 s3 106 73 149 c70 44 225 71 329 11 105 -61 93 -231 24 -268 -69 -37 -142 -46 -175 -52 -33 -7 -52 -61 -34 -80 18 -20 39 -28 58 -18 19 11 30 32 27 59 0 0 55 18 117 14 62 -3 67 -10 67 -10 0 0 -1 -91 -36 -132 -35 -41 -47 -56 -173 -62 -126 -6 -163 13 -211 46 -48 34 -55 94 -55 120 -1 76 83 133 125 149 s121 26 150 49 c10 8 12 39 7 51 -6 13 -3 17 -21 25 -15 7 -75 9 -83 -53 0 0 -83 -5 -105 -3 -22 1 -71 1 -84 6 Z" transform="translate(2439 0)"/>
</g>
<g x_x="x" fill="#224455" transform="translate(541 922) scale(0.1)"><path d="M211 343 s10 -90 24 -109 57 -42 75 13 -2 102 -52 129 -76 51 -129 83 -74 59 -78 65 -24 36 -29 79 -10 187 -11 195 c0 0 15 4 30 5 s189 -5 212 -5 238 -3 246 -3 8 -6 8 -9 -3 -73 -1 -85 -3 -52 -10 -68 c0 0 -252 6 -279 2 0 0 35 -75 72 -97 s153 -76 185 -112 49 -59 49 -129 -4 -170 -92 -236 -270 -32 -320 2 S-10 187 21 344 c0 0 57 21 190 -1 Z"/>
<path d="M465 116 C394 31 297 11 210 33 c0 0 -158 46 -182 197 -12 25 -11 75 -13 176 -1 101 -2 235 57 302 59 68 139 115 268 76 s192 -254 197 -361 c5 -107 -2 -223 -73 -307 Zm-139 340 c-4 131 -26 153 -57 154 -32 1 -29 -11 -46 -55 -17 -43 -17 -154 -17 -154 11 -142 11 -194 64 -192 s61 115 57 247 Z" transform="translate(540 0)"/>
<path d="M211 343 s10 -90 24 -109 57 -42 75 13 -2 102 -52 129 -76 51 -129 83 -74 59 -78 65 -24 36 -29 79 -10 187 -11 195 c0 0 15 4 30 5 s189 -5 212 -5 238 -3 246 -3 8 -6 8 -9 -3 -73 -1 -85 -3 -52 -10 -68 c0 0 -252 6 -279 2 0 0 35 -75 72 -97 s153 -76 185 -112 49 -59 49 -129 -4 -170 -92 -236 -270 -32 -320 2 S-10 187 21 344 c0 0 57 21 190 -1 Z" transform="translate(1094 0)"/>
<path d="M525 472 c-1 -24 -4 -160 -4 -186 1 -26 -1 -123 -24 -169 s-37 -54 -45 -60 c-8 -6 -25 -19 -80 -25 -55 -6 -82 -4 -92 -5 s-66 -1 -128 19 S47 105 24 163 c-23 58 -19 164 14 215 s58 71 104 93 c46 22 112 28 164 13 0 0 2 42 -5 66 s-15 48 -42 49 c-27 1 -47 -43 -48 -49 0 0 -44 -7 -91 -4 -48 3 -104 5 -108 5 0 0 -5 45 0 77 s21 99 114 141 c94 43 172 44 252 24 s117 -82 137 -153 c20 -71 12 -144 11 -168 Zm-200 -204 c-3 22 -6 45 -39 54 -33 9 -54 -30 -54 -30 -7 -39 -3 -54 0 -60 s33 -28 60 -19 c27 9 36 33 33 55 Z" transform="translate(1634 0)"/>
<path d="M110 800 s52 2 76 -6 c0 0 5 -3 12 -26 s57 -142 72 -185 78 -229 91 -265 40 -113 48 -137 38 -122 38 -126 -4 -7 -6 -7 c0 0 3 -6 9 -7 0 0 -15 -15 -74 -13 s-86 -1 -97 -5 c0 0 -28 102 -41 136 s-28 83 -28 85 -9 34 -14 44 -65 177 -71 192 -38 108 -43 119 -42 112 -35 102 c0 0 -25 63 -24 73 s-3 26 12 26 74 -1 74 -1 Z" transform="translate(2169 0)"/>
<path d="M211 343 s10 -90 24 -109 57 -42 75 13 -2 102 -52 129 -76 51 -129 83 -74 59 -78 65 -24 36 -29 79 -10 187 -11 195 c0 0 15 4 30 5 s189 -5 212 -5 238 -3 246 -3 8 -6 8 -9 -3 -73 -1 -85 -3 -52 -10 -68 c0 0 -252 6 -279 2 0 0 35 -75 72 -97 s153 -76 185 -112 49 -59 49 -129 -4 -170 -92 -236 -270 -32 -320 2 S-10 187 21 344 c0 0 57 21 190 -1 Z" transform="translate(2630 0)"/>
<path d="M465 116 C394 31 297 11 210 33 c0 0 -158 46 -182 197 -12 25 -11 75 -13 176 -1 101 -2 235 57 302 59 68 139 115 268 76 s192 -254 197 -361 c5 -107 -2 -223 -73 -307 Zm-139 340 c-4 131 -26 153 -57 154 -32 1 -29 -11 -46 -55 -17 -43 -17 -154 -17 -154 11 -142 11 -194 64 -192 s61 115 57 247 Z" transform="translate(3170 0)"/>
<path d="M465 116 C394 31 297 11 210 33 c0 0 -158 46 -182 197 -12 25 -11 75 -13 176 -1 101 -2 235 57 302 59 68 139 115 268 76 s192 -254 197 -361 c5 -107 -2 -223 -73 -307 Zm-139 340 c-4 131 -26 153 -57 154 -32 1 -29 -11 -46 -55 -17 -43 -17 -154 -17 -154 11 -142 11 -194 64 -192 s61 115 57 247 Z" transform="translate(3724 0)"/>
<path d="M465 116 C394 31 297 11 210 33 c0 0 -158 46 -182 197 -12 25 -11 75 -13 176 -1 101 -2 235 57 302 59 68 139 115 268 76 s192 -254 197 -361 c5 -107 -2 -223 -73 -307 Zm-139 340 c-4 131 -26 153 -57 154 -32 1 -29 -11 -46 -55 -17 -43 -17 -154 -17 -154 11 -142 11 -194 64 -192 s61 115 57 247 Z" transform="translate(4278 0)"/>
</g>
</g>
</defs>
<use href="#circles2029" />
</svg>
