<svg viewBox="0 0 1024 1024"  xmlns="http://www.w3.org/2000/svg">
<defs>
<g id="nouns450" transform="scale(3.2)" shape-rendering="crispEdges">
<rect width="140" height="10" x="90" y="210" fill="#fffdf2" /><rect width="140" height="10" x="90" y="220" fill="#fffdf2" /><rect width="140" height="10" x="90" y="230" fill="#fffdf2" /><rect width="140" height="10" x="90" y="240" fill="#fffdf2" /><rect width="20" height="10" x="90" y="250" fill="#fffdf2" /><rect width="110" height="10" x="120" y="250" fill="#fffdf2" /><rect width="20" height="10" x="90" y="260" fill="#fffdf2" /><rect width="110" height="10" x="120" y="260" fill="#fffdf2" /><rect width="20" height="10" x="90" y="270" fill="#fffdf2" /><rect width="110" height="10" x="120" y="270" fill="#fffdf2" /><rect width="20" height="10" x="90" y="280" fill="#fffdf2" /><rect width="110" height="10" x="120" y="280" fill="#fffdf2" /><rect width="20" height="10" x="90" y="290" fill="#fffdf2" /><rect width="110" height="10" x="120" y="290" fill="#fffdf2" /><rect width="20" height="10" x="90" y="300" fill="#fffdf2" /><rect width="110" height="10" x="120" y="300" fill="#fffdf2" /><rect width="20" height="10" x="90" y="310" fill="#fffdf2" /><rect width="110" height="10" x="120" y="310" fill="#fffdf2" /><rect width="70" height="10" x="130" y="230" fill="#26b1f3" /><rect width="10" height="10" x="130" y="240" fill="#26b1f3" /><rect width="20" height="10" x="150" y="240" fill="#26b1f3" /><rect width="20" height="10" x="180" y="240" fill="#26b1f3" /><rect width="20" height="10" x="150" y="250" fill="#26b1f3" /><rect width="20" height="10" x="180" y="250" fill="#26b1f3" /><rect width="70" height="10" x="130" y="270" fill="#34ac80" /><rect width="10" height="10" x="130" y="280" fill="#34ac80" /><rect width="20" height="10" x="150" y="280" fill="#34ac80" /><rect width="20" height="10" x="180" y="280" fill="#34ac80" /><rect width="20" height="10" x="150" y="290" fill="#34ac80" /><rect width="20" height="10" x="180" y="290" fill="#34ac80" /><rect width="250" height="10" x="40" y="90" fill="#5a423f" /><rect width="10" height="10" x="40" y="100" fill="#5a423f" /><rect width="170" height="10" x="50" y="100" fill="#7d635e" /><rect width="10" height="10" x="220" y="100" fill="#5a423f" /><rect width="50" height="10" x="230" y="100" fill="#f3322c" /><rect width="10" height="10" x="280" y="100" fill="#5a423f" /><rect width="10" height="10" x="40" y="110" fill="#5a423f" /><rect width="10" height="10" x="50" y="110" fill="#7d635e" /><rect width="150" height="10" x="60" y="110" fill="#5a423f" /><rect width="10" height="10" x="210" y="110" fill="#7d635e" /><rect width="10" height="10" x="220" y="110" fill="#5a423f" /><rect width="50" height="10" x="230" y="110" fill="#f3322c" /><rect width="10" height="10" x="280" y="110" fill="#5a423f" /><rect width="10" height="10" x="40" y="120" fill="#5a423f" /><rect width="10" height="10" x="50" y="120" fill="#7d635e" /><rect width="150" height="10" x="60" y="120" fill="#5a423f" /><rect width="10" height="10" x="210" y="120" fill="#7d635e" /><rect width="70" height="10" x="220" y="120" fill="#5a423f" /><rect width="10" height="10" x="40" y="130" fill="#5a423f" /><rect width="10" height="10" x="50" y="130" fill="#7d635e" /><rect width="150" height="10" x="60" y="130" fill="#5a423f" /><rect width="10" height="10" x="210" y="130" fill="#7d635e" /><rect width="10" height="10" x="220" y="130" fill="#5a423f" /><rect width="10" height="10" x="230" y="130" fill="#f3322c" /><rect width="10" height="10" x="240" y="130" fill="#5a423f" /><rect width="10" height="10" x="250" y="130" fill="#f3322c" /><rect width="10" height="10" x="260" y="130" fill="#5a423f" /><rect width="10" height="10" x="270" y="130" fill="#f3322c" /><rect width="10" height="10" x="280" y="130" fill="#5a423f" /><rect width="10" height="10" x="40" y="140" fill="#5a423f" /><rect width="10" height="10" x="50" y="140" fill="#7d635e" /><rect width="150" height="10" x="60" y="140" fill="#5a423f" /><rect width="10" height="10" x="210" y="140" fill="#7d635e" /><rect width="70" height="10" x="220" y="140" fill="#5a423f" /><rect width="10" height="10" x="40" y="150" fill="#5a423f" /><rect width="10" height="10" x="50" y="150" fill="#7d635e" /><rect width="150" height="10" x="60" y="150" fill="#5a423f" /><rect width="10" height="10" x="210" y="150" fill="#7d635e" /><rect width="10" height="10" x="220" y="150" fill="#5a423f" /><rect width="10" height="10" x="230" y="150" fill="#f3322c" /><rect width="10" height="10" x="240" y="150" fill="#5a423f" /><rect width="10" height="10" x="250" y="150" fill="#f3322c" /><rect width="10" height="10" x="260" y="150" fill="#5a423f" /><rect width="10" height="10" x="270" y="150" fill="#f3322c" /><rect width="10" height="10" x="280" y="150" fill="#5a423f" /><rect width="10" height="10" x="40" y="160" fill="#5a423f" /><rect width="10" height="10" x="50" y="160" fill="#7d635e" /><rect width="10" height="10" x="60" y="160" fill="#5a423f" /><rect width="10" height="10" x="70" y="160" fill="#d6c3be" /><rect width="130" height="10" x="80" y="160" fill="#5a423f" /><rect width="10" height="10" x="210" y="160" fill="#7d635e" /><rect width="70" height="10" x="220" y="160" fill="#5a423f" /><rect width="10" height="10" x="40" y="170" fill="#5a423f" /><rect width="10" height="10" x="50" y="170" fill="#7d635e" /><rect width="10" height="10" x="60" y="170" fill="#d6c3be" /><rect width="10" height="10" x="70" y="170" fill="#5a423f" /><rect width="10" height="10" x="80" y="170" fill="#d6c3be" /><rect width="120" height="10" x="90" y="170" fill="#5a423f" /><rect width="10" height="10" x="210" y="170" fill="#7d635e" /><rect width="10" height="10" x="220" y="170" fill="#5a423f" /><rect width="10" height="10" x="230" y="170" fill="#f3322c" /><rect width="10" height="10" x="240" y="170" fill="#5a423f" /><rect width="10" height="10" x="250" y="170" fill="#f3322c" /><rect width="10" height="10" x="260" y="170" fill="#5a423f" /><rect width="10" height="10" x="270" y="170" fill="#f3322c" /><rect width="10" height="10" x="280" y="170" fill="#5a423f" /><rect width="10" height="10" x="40" y="180" fill="#5a423f" /><rect width="10" height="10" x="50" y="180" fill="#7d635e" /><rect width="10" height="10" x="60" y="180" fill="#5a423f" /><rect width="10" height="10" x="70" y="180" fill="#d6c3be" /><rect width="20" height="10" x="80" y="180" fill="#5a423f" /><rect width="10" height="10" x="100" y="180" fill="#ffffff" /><rect width="10" height="10" x="110" y="180" fill="#000000" /><rect width="10" height="10" x="120" y="180" fill="#ffffff" /><rect width="10" height="10" x="130" y="180" fill="#000000" /><rect width="10" height="10" x="140" y="180" fill="#ffffff" /><rect width="10" height="10" x="150" y="180" fill="#000000" /><rect width="10" height="10" x="160" y="180" fill="#ffffff" /><rect width="10" height="10" x="170" y="180" fill="#000000" /><rect width="30" height="10" x="180" y="180" fill="#5a423f" /><rect width="10" height="10" x="210" y="180" fill="#7d635e" /><rect width="70" height="10" x="220" y="180" fill="#5a423f" /><rect width="10" height="10" x="40" y="190" fill="#5a423f" /><rect width="170" height="10" x="50" y="190" fill="#7d635e" /><rect width="10" height="10" x="220" y="190" fill="#5a423f" /><rect width="10" height="10" x="230" y="190" fill="#d6c3be" /><rect width="10" height="10" x="240" y="190" fill="#5a423f" /><rect width="10" height="10" x="250" y="190" fill="#f3322c" /><rect width="10" height="10" x="260" y="190" fill="#5a423f" /><rect width="10" height="10" x="270" y="190" fill="#d6c3be" /><rect width="10" height="10" x="280" y="190" fill="#5a423f" /><rect width="250" height="10" x="40" y="200" fill="#5a423f" /><rect width="60" height="10" x="100" y="110" fill="#000000" /><rect width="60" height="10" x="170" y="110" fill="#000000" /><rect width="30" height="10" x="100" y="120" fill="#000000" /><rect width="10" height="10" x="130" y="120" fill="#ff0e0e" /><rect width="20" height="10" x="140" y="120" fill="#000000" /><rect width="30" height="10" x="170" y="120" fill="#000000" /><rect width="10" height="10" x="200" y="120" fill="#ff0e0e" /><rect width="20" height="10" x="210" y="120" fill="#000000" /><rect width="160" height="10" x="70" y="130" fill="#000000" /><rect width="10" height="10" x="70" y="140" fill="#000000" /><rect width="10" height="10" x="100" y="140" fill="#000000" /><rect width="10" height="10" x="110" y="140" fill="#0adc4d" /><rect width="20" height="10" x="120" y="140" fill="#000000" /><rect width="10" height="10" x="140" y="140" fill="#1929f4" /><rect width="10" height="10" x="150" y="140" fill="#000000" /><rect width="10" height="10" x="170" y="140" fill="#000000" /><rect width="10" height="10" x="180" y="140" fill="#0adc4d" /><rect width="20" height="10" x="190" y="140" fill="#000000" /><rect width="10" height="10" x="210" y="140" fill="#1929f4" /><rect width="10" height="10" x="220" y="140" fill="#000000" /><rect width="10" height="10" x="70" y="150" fill="#000000" /><rect width="60" height="10" x="100" y="150" fill="#000000" /><rect width="60" height="10" x="170" y="150" fill="#000000" /><rect width="60" height="10" x="100" y="160" fill="#000000" /><rect width="60" height="10" x="170" y="160" fill="#000000" />
</g>
<g id="nouns451" transform="scale(3.2)" shape-rendering="crispEdges">
<rect width="140" height="10" x="90" y="210" fill="#80a72d" /><rect width="140" height="10" x="90" y="220" fill="#80a72d" /><rect width="140" height="10" x="90" y="230" fill="#80a72d" /><rect width="140" height="10" x="90" y="240" fill="#80a72d" /><rect width="20" height="10" x="90" y="250" fill="#80a72d" /><rect width="110" height="10" x="120" y="250" fill="#80a72d" /><rect width="20" height="10" x="90" y="260" fill="#80a72d" /><rect width="110" height="10" x="120" y="260" fill="#80a72d" /><rect width="20" height="10" x="90" y="270" fill="#80a72d" /><rect width="110" height="10" x="120" y="270" fill="#80a72d" /><rect width="20" height="10" x="90" y="280" fill="#80a72d" /><rect width="110" height="10" x="120" y="280" fill="#80a72d" /><rect width="20" height="10" x="90" y="290" fill="#80a72d" /><rect width="110" height="10" x="120" y="290" fill="#80a72d" /><rect width="20" height="10" x="90" y="300" fill="#80a72d" /><rect width="110" height="10" x="120" y="300" fill="#80a72d" /><rect width="20" height="10" x="90" y="310" fill="#80a72d" /><rect width="110" height="10" x="120" y="310" fill="#80a72d" /><rect width="140" height="10" x="90" y="210" fill="#505a5c" /><rect width="60" height="10" x="110" y="220" fill="#505a5c" /><rect width="30" height="10" x="200" y="220" fill="#505a5c" /><rect width="110" height="10" x="110" y="230" fill="#505a5c" /><rect width="90" height="10" x="100" y="240" fill="#505a5c" /><rect width="20" height="10" x="200" y="240" fill="#505a5c" /><rect width="20" height="10" x="90" y="250" fill="#505a5c" /><rect width="10" height="10" x="120" y="250" fill="#505a5c" /><rect width="30" height="10" x="140" y="250" fill="#505a5c" /><rect width="40" height="10" x="190" y="250" fill="#505a5c" /><rect width="20" height="10" x="90" y="260" fill="#505a5c" /><rect width="80" height="10" x="120" y="260" fill="#505a5c" /><rect width="10" height="10" x="90" y="270" fill="#505a5c" /><rect width="10" height="10" x="120" y="270" fill="#505a5c" /><rect width="30" height="10" x="150" y="270" fill="#505a5c" /><rect width="80" height="10" x="120" y="280" fill="#505a5c" /><rect width="10" height="10" x="120" y="290" fill="#505a5c" /><rect width="20" height="10" x="170" y="290" fill="#505a5c" /><rect width="20" height="10" x="200" y="290" fill="#505a5c" /><rect width="10" height="10" x="100" y="300" fill="#505a5c" /><rect width="110" height="10" x="120" y="300" fill="#505a5c" /><rect width="110" height="10" x="120" y="310" fill="#505a5c" /><rect width="20" height="10" x="150" y="10" fill="#ff82ad" /><rect width="40" height="10" x="140" y="20" fill="#ff82ad" /><rect width="30" height="10" x="130" y="30" fill="#ff82ad" /><rect width="10" height="10" x="160" y="30" fill="#ffc5f0" /><rect width="20" height="10" x="170" y="30" fill="#ff82ad" /><rect width="50" height="10" x="120" y="40" fill="#ff82ad" /><rect width="10" height="10" x="170" y="40" fill="#ffc5f0" /><rect width="20" height="10" x="180" y="40" fill="#ff82ad" /><rect width="70" height="10" x="110" y="50" fill="#ff82ad" /><rect width="10" height="10" x="180" y="50" fill="#ffc5f0" /><rect width="20" height="10" x="190" y="50" fill="#ff82ad" /><rect width="120" height="10" x="100" y="60" fill="#ff82ad" /><rect width="140" height="10" x="90" y="70" fill="#ff82ad" /><rect width="10" height="10" x="80" y="80" fill="#fb4694" /><rect width="140" height="10" x="90" y="80" fill="#ff82ad" /><rect width="10" height="10" x="230" y="80" fill="#fb4694" /><rect width="20" height="10" x="70" y="90" fill="#fb4694" /><rect width="140" height="10" x="90" y="90" fill="#ff82ad" /><rect width="20" height="10" x="230" y="90" fill="#fb4694" /><rect width="20" height="10" x="60" y="100" fill="#fb4694" /><rect width="160" height="10" x="80" y="100" fill="#ff82ad" /><rect width="20" height="10" x="240" y="100" fill="#fb4694" /><rect width="30" height="10" x="50" y="110" fill="#fb4694" /><rect width="160" height="10" x="80" y="110" fill="#ff82ad" /><rect width="30" height="10" x="240" y="110" fill="#fb4694" /><rect width="40" height="10" x="40" y="120" fill="#fb4694" /><rect width="160" height="10" x="80" y="120" fill="#ff82ad" /><rect width="10" height="10" x="240" y="120" fill="#fb4694" /><rect width="10" height="10" x="250" y="120" fill="#ffc5f0" /><rect width="20" height="10" x="260" y="120" fill="#fb4694" /><rect width="40" height="10" x="40" y="130" fill="#fb4694" /><rect width="160" height="10" x="80" y="130" fill="#ff82ad" /><rect width="20" height="10" x="240" y="130" fill="#fb4694" /><rect width="10" height="10" x="260" y="130" fill="#ffc5f0" /><rect width="10" height="10" x="270" y="130" fill="#fb4694" /><rect width="40" height="10" x="40" y="140" fill="#fb4694" /><rect width="160" height="10" x="80" y="140" fill="#ff82ad" /><rect width="40" height="10" x="240" y="140" fill="#fb4694" /><rect width="40" height="10" x="40" y="150" fill="#fb4694" /><rect width="160" height="10" x="80" y="150" fill="#ff82ad" /><rect width="40" height="10" x="240" y="150" fill="#fb4694" /><rect width="30" height="10" x="50" y="160" fill="#fb4694" /><rect width="160" height="10" x="80" y="160" fill="#ff82ad" /><rect width="30" height="10" x="240" y="160" fill="#fb4694" /><rect width="10" height="10" x="30" y="170" fill="#fb4694" /><rect width="30" height="10" x="60" y="170" fill="#fb4694" /><rect width="140" height="10" x="90" y="170" fill="#ff82ad" /><rect width="30" height="10" x="230" y="170" fill="#fb4694" /><rect width="10" height="10" x="20" y="180" fill="#fb4694" /><rect width="10" height="10" x="30" y="180" fill="#ff82ad" /><rect width="10" height="10" x="40" y="180" fill="#fb4694" /><rect width="20" height="10" x="80" y="180" fill="#834398" /><rect width="10" height="10" x="100" y="180" fill="#fb4694" /><rect width="10" height="10" x="110" y="180" fill="#000000" /><rect width="10" height="10" x="120" y="180" fill="#ffffff" /><rect width="10" height="10" x="130" y="180" fill="#000000" /><rect width="10" height="10" x="140" y="180" fill="#ffffff" /><rect width="10" height="10" x="150" y="180" fill="#000000" /><rect width="10" height="10" x="160" y="180" fill="#ffffff" /><rect width="10" height="10" x="170" y="180" fill="#000000" /><rect width="10" height="10" x="180" y="180" fill="#ffffff" /><rect width="10" height="10" x="190" y="180" fill="#000000" /><rect width="10" height="10" x="200" y="180" fill="#ffffff" /><rect width="10" height="10" x="210" y="180" fill="#fb4694" /><rect width="20" height="10" x="220" y="180" fill="#834398" /><rect width="10" height="10" x="20" y="190" fill="#fb4694" /><rect width="10" height="10" x="30" y="190" fill="#ff82ad" /><rect width="10" height="10" x="40" y="190" fill="#fb4694" /><rect width="30" height="10" x="70" y="190" fill="#834398" /><rect width="120" height="10" x="100" y="190" fill="#fb4694" /><rect width="30" height="10" x="220" y="190" fill="#834398" /><rect width="10" height="10" x="20" y="200" fill="#fb4694" /><rect width="10" height="10" x="30" y="200" fill="#ff82ad" /><rect width="10" height="10" x="40" y="200" fill="#fb4694" /><rect width="200" height="10" x="60" y="200" fill="#834398" /><rect width="10" height="10" x="30" y="210" fill="#fb4694" /><rect width="10" height="10" x="40" y="210" fill="#834398" /><rect width="10" height="10" x="60" y="210" fill="#834398" /><rect width="20" height="10" x="80" y="210" fill="#834398" /><rect width="20" height="10" x="110" y="210" fill="#834398" /><rect width="20" height="10" x="190" y="210" fill="#834398" /><rect width="20" height="10" x="220" y="210" fill="#834398" /><rect width="20" height="10" x="250" y="210" fill="#834398" /><rect width="30" height="10" x="40" y="220" fill="#834398" /><rect width="10" height="10" x="80" y="220" fill="#834398" /><rect width="10" height="10" x="110" y="220" fill="#834398" /><rect width="10" height="10" x="200" y="220" fill="#834398" /><rect width="10" height="10" x="230" y="220" fill="#834398" /><rect width="10" height="10" x="260" y="220" fill="#834398" /><rect width="10" height="10" x="50" y="230" fill="#834398" /><rect width="10" height="10" x="250" y="230" fill="#fb4694" /><rect width="10" height="10" x="260" y="230" fill="#834398" /><rect width="10" height="10" x="250" y="240" fill="#fb4694" /><rect width="10" height="10" x="260" y="240" fill="#834398" /><rect width="10" height="10" x="250" y="250" fill="#fb4694" /><rect width="10" height="10" x="260" y="250" fill="#834398" /><rect width="10" height="10" x="250" y="260" fill="#fb4694" /><rect width="60" height="10" x="100" y="110" fill="#ff638d" /><rect width="60" height="10" x="170" y="110" fill="#cc0595" /><rect width="10" height="10" x="100" y="120" fill="#ff638d" /><rect width="20" height="10" x="110" y="120" fill="#ffffff" /><rect width="20" height="10" x="130" y="120" fill="#000000" /><rect width="10" height="10" x="150" y="120" fill="#ff638d" /><rect width="10" height="10" x="170" y="120" fill="#cc0595" /><rect width="20" height="10" x="180" y="120" fill="#ffffff" /><rect width="20" height="10" x="200" y="120" fill="#000000" /><rect width="10" height="10" x="220" y="120" fill="#cc0595" /><rect width="30" height="10" x="70" y="130" fill="#ab36be" /><rect width="10" height="10" x="100" y="130" fill="#ff638d" /><rect width="20" height="10" x="110" y="130" fill="#ffffff" /><rect width="20" height="10" x="130" y="130" fill="#000000" /><rect width="10" height="10" x="150" y="130" fill="#ff638d" /><rect width="10" height="10" x="160" y="130" fill="#ab36be" /><rect width="10" height="10" x="170" y="130" fill="#cc0595" /><rect width="20" height="10" x="180" y="130" fill="#ffffff" /><rect width="20" height="10" x="200" y="130" fill="#000000" /><rect width="10" height="10" x="220" y="130" fill="#cc0595" /><rect width="10" height="10" x="70" y="140" fill="#cc0595" /><rect width="10" height="10" x="100" y="140" fill="#ff638d" /><rect width="20" height="10" x="110" y="140" fill="#ffffff" /><rect width="20" height="10" x="130" y="140" fill="#000000" /><rect width="10" height="10" x="150" y="140" fill="#ff638d" /><rect width="10" height="10" x="170" y="140" fill="#cc0595" /><rect width="20" height="10" x="180" y="140" fill="#ffffff" /><rect width="20" height="10" x="200" y="140" fill="#000000" /><rect width="10" height="10" x="220" y="140" fill="#cc0595" /><rect width="10" height="10" x="70" y="150" fill="#cc0595" /><rect width="10" height="10" x="100" y="150" fill="#ff638d" /><rect width="20" height="10" x="110" y="150" fill="#ffffff" /><rect width="20" height="10" x="130" y="150" fill="#000000" /><rect width="10" height="10" x="150" y="150" fill="#ff638d" /><rect width="10" height="10" x="170" y="150" fill="#cc0595" /><rect width="20" height="10" x="180" y="150" fill="#ffffff" /><rect width="20" height="10" x="200" y="150" fill="#000000" /><rect width="10" height="10" x="220" y="150" fill="#cc0595" /><rect width="60" height="10" x="100" y="160" fill="#ff638d" /><rect width="60" height="10" x="170" y="160" fill="#cc0595" />
</g>
<g id="nouns452" transform="scale(3.2)" shape-rendering="crispEdges">
<rect width="140" height="10" x="90" y="210" fill="#068940" /><rect width="140" height="10" x="90" y="220" fill="#068940" /><rect width="140" height="10" x="90" y="230" fill="#068940" /><rect width="140" height="10" x="90" y="240" fill="#068940" /><rect width="20" height="10" x="90" y="250" fill="#068940" /><rect width="110" height="10" x="120" y="250" fill="#068940" /><rect width="20" height="10" x="90" y="260" fill="#068940" /><rect width="110" height="10" x="120" y="260" fill="#068940" /><rect width="20" height="10" x="90" y="270" fill="#068940" /><rect width="110" height="10" x="120" y="270" fill="#068940" /><rect width="20" height="10" x="90" y="280" fill="#068940" /><rect width="110" height="10" x="120" y="280" fill="#068940" /><rect width="20" height="10" x="90" y="290" fill="#068940" /><rect width="110" height="10" x="120" y="290" fill="#068940" /><rect width="20" height="10" x="90" y="300" fill="#068940" /><rect width="110" height="10" x="120" y="300" fill="#068940" /><rect width="20" height="10" x="90" y="310" fill="#068940" /><rect width="110" height="10" x="120" y="310" fill="#068940" /><rect width="10" height="10" x="150" y="220" fill="#ffffff" /><rect width="10" height="10" x="170" y="220" fill="#ffffff" /><rect width="10" height="10" x="150" y="230" fill="#ffffff" /><rect width="10" height="10" x="170" y="230" fill="#ffffff" /><rect width="10" height="10" x="150" y="240" fill="#ffffff" /><rect width="10" height="10" x="170" y="240" fill="#ffffff" /><rect width="10" height="10" x="150" y="250" fill="#ffffff" /><rect width="10" height="10" x="170" y="250" fill="#d7d3cd" /><rect width="10" height="10" x="150" y="260" fill="#ffffff" /><rect width="10" height="10" x="150" y="270" fill="#d7d3cd" /><rect width="50" height="10" x="100" y="40" fill="#eedc00" /><rect width="50" height="10" x="150" y="40" fill="#fff006" /><rect width="60" height="10" x="90" y="50" fill="#fff006" /><rect width="10" height="10" x="150" y="50" fill="#eedc00" /><rect width="50" height="10" x="160" y="50" fill="#fff006" /><rect width="60" height="10" x="80" y="60" fill="#eedc00" /><rect width="20" height="10" x="140" y="60" fill="#fff006" /><rect width="10" height="10" x="160" y="60" fill="#eedc00" /><rect width="50" height="10" x="170" y="60" fill="#fff006" /><rect width="70" height="10" x="70" y="70" fill="#fff006" /><rect width="10" height="10" x="140" y="70" fill="#eedc00" /><rect width="20" height="10" x="150" y="70" fill="#fff006" /><rect width="10" height="10" x="170" y="70" fill="#eedc00" /><rect width="50" height="10" x="180" y="70" fill="#fff006" /><rect width="80" height="10" x="70" y="80" fill="#fff006" /><rect width="10" height="10" x="150" y="80" fill="#eedc00" /><rect width="10" height="10" x="160" y="80" fill="#fff006" /><rect width="10" height="10" x="170" y="80" fill="#eedc00" /><rect width="50" height="10" x="180" y="80" fill="#fff006" /><rect width="90" height="10" x="60" y="90" fill="#fff006" /><rect width="10" height="10" x="150" y="90" fill="#eedc00" /><rect width="20" height="10" x="160" y="90" fill="#fff006" /><rect width="50" height="10" x="180" y="90" fill="#eedc00" /><rect width="10" height="10" x="230" y="90" fill="#fff006" /><rect width="90" height="10" x="60" y="100" fill="#fff006" /><rect width="10" height="10" x="150" y="100" fill="#eedc00" /><rect width="80" height="10" x="160" y="100" fill="#fff006" /><rect width="90" height="10" x="60" y="110" fill="#fff006" /><rect width="10" height="10" x="150" y="110" fill="#eedc00" /><rect width="80" height="10" x="160" y="110" fill="#fff006" /><rect width="90" height="10" x="60" y="120" fill="#fff006" /><rect width="10" height="10" x="150" y="120" fill="#eedc00" /><rect width="80" height="10" x="160" y="120" fill="#fff006" /><rect width="90" height="10" x="60" y="130" fill="#fff006" /><rect width="10" height="10" x="150" y="130" fill="#eedc00" /><rect width="80" height="10" x="160" y="130" fill="#fff006" /><rect width="90" height="10" x="60" y="140" fill="#fff006" /><rect width="10" height="10" x="150" y="140" fill="#eedc00" /><rect width="80" height="10" x="160" y="140" fill="#fff006" /><rect width="90" height="10" x="60" y="150" fill="#fff006" /><rect width="10" height="10" x="150" y="150" fill="#eedc00" /><rect width="80" height="10" x="160" y="150" fill="#fff006" /><rect width="90" height="10" x="60" y="160" fill="#fff006" /><rect width="10" height="10" x="150" y="160" fill="#eedc00" /><rect width="80" height="10" x="160" y="160" fill="#fff006" /><rect width="30" height="10" x="60" y="170" fill="#fff006" /><rect width="150" height="10" x="90" y="170" fill="#eedc00" /><rect width="40" height="10" x="50" y="180" fill="#fff006" /><rect width="10" height="10" x="90" y="180" fill="#eedc00" /><rect width="130" height="10" x="100" y="180" fill="#000000" /><rect width="10" height="10" x="230" y="180" fill="#eedc00" /><rect width="50" height="10" x="240" y="180" fill="#fff006" /><rect width="40" height="10" x="50" y="190" fill="#fff006" /><rect width="10" height="10" x="90" y="190" fill="#eedc00" /><rect width="130" height="10" x="100" y="190" fill="#fff006" /><rect width="10" height="10" x="230" y="190" fill="#eedc00" /><rect width="50" height="10" x="240" y="190" fill="#fff006" /><rect width="240" height="10" x="50" y="200" fill="#fff006" /><rect width="60" height="10" x="100" y="110" fill="#d19a54" /><rect width="60" height="10" x="170" y="110" fill="#d19a54" /><rect width="10" height="10" x="100" y="120" fill="#d19a54" /><rect width="20" height="10" x="110" y="120" fill="#ffffff" /><rect width="20" height="10" x="130" y="120" fill="#000000" /><rect width="10" height="10" x="150" y="120" fill="#d19a54" /><rect width="10" height="10" x="170" y="120" fill="#d19a54" /><rect width="20" height="10" x="180" y="120" fill="#ffffff" /><rect width="20" height="10" x="200" y="120" fill="#000000" /><rect width="10" height="10" x="220" y="120" fill="#d19a54" /><rect width="40" height="10" x="70" y="130" fill="#d19a54" /><rect width="20" height="10" x="110" y="130" fill="#ffffff" /><rect width="20" height="10" x="130" y="130" fill="#000000" /><rect width="30" height="10" x="150" y="130" fill="#d19a54" /><rect width="20" height="10" x="180" y="130" fill="#ffffff" /><rect width="20" height="10" x="200" y="130" fill="#000000" /><rect width="10" height="10" x="220" y="130" fill="#d19a54" /><rect width="10" height="10" x="70" y="140" fill="#d19a54" /><rect width="10" height="10" x="100" y="140" fill="#d19a54" /><rect width="20" height="10" x="110" y="140" fill="#ffffff" /><rect width="20" height="10" x="130" y="140" fill="#000000" /><rect width="10" height="10" x="150" y="140" fill="#d19a54" /><rect width="10" height="10" x="170" y="140" fill="#d19a54" /><rect width="20" height="10" x="180" y="140" fill="#ffffff" /><rect width="20" height="10" x="200" y="140" fill="#000000" /><rect width="10" height="10" x="220" y="140" fill="#d19a54" /><rect width="10" height="10" x="70" y="150" fill="#d19a54" /><rect width="10" height="10" x="100" y="150" fill="#d19a54" /><rect width="20" height="10" x="110" y="150" fill="#ffffff" /><rect width="20" height="10" x="130" y="150" fill="#000000" /><rect width="10" height="10" x="150" y="150" fill="#d19a54" /><rect width="10" height="10" x="170" y="150" fill="#d19a54" /><rect width="20" height="10" x="180" y="150" fill="#ffffff" /><rect width="20" height="10" x="200" y="150" fill="#000000" /><rect width="10" height="10" x="220" y="150" fill="#d19a54" /><rect width="60" height="10" x="100" y="160" fill="#d19a54" /><rect width="60" height="10" x="170" y="160" fill="#d19a54" />
</g>
<g x_x="x" id="circles450"><g x_x="x" transform="translate(102,204) scale(0.8)"><g x_x="x"><use href="#nouns450" transform="translate(411 937) scale(0.089) rotate(165,512,512)"/>
<circle cx="457" cy="983" r="50" fill="red" opacity="0.333"/>
</g>
<g x_x="x"><use href="#nouns451" transform="translate(58 674) scale(0.107) rotate(175,512,512)"/>
<circle cx="113" cy="729" r="60" fill="green" opacity="0.333"/>
</g>
<g x_x="x"><use href="#nouns452" transform="translate(571 810) scale(0.119) rotate(294,512,512)"/>
<circle cx="632" cy="871" r="67" fill="yellow" opacity="0.333"/>
</g>
<g x_x="x"><use href="#nouns450" transform="translate(171 531) scale(0.253) rotate(385,512,512)"/>
<circle cx="301" cy="661" r="143" fill="blue" opacity="0.333"/>
</g>
<g x_x="x"><use href="#nouns451" transform="translate(559 710) scale(0.136) rotate(296,512,512)"/>
<circle cx="629" cy="780" r="77" fill="red" opacity="0.333"/>
</g>
<g x_x="x"><use href="#nouns452" transform="translate(510 646) scale(0.212) rotate(316,512,512)"/>
<circle cx="619" cy="755" r="119" fill="green" opacity="0.333"/>
</g>
<g x_x="x"><use href="#nouns450" transform="translate(619 218) scale(0.148) rotate(451,512,512)"/>
<circle cx="695" cy="294" r="83" fill="yellow" opacity="0.333"/>
</g>
<g x_x="x"><use href="#nouns451" transform="translate(270 370) scale(0.433) rotate(368,512,512)"/>
<circle cx="492" cy="592" r="244" fill="blue" opacity="0.333"/>
</g>
<g x_x="x"><use href="#nouns452" transform="translate(274 291) scale(0.468) rotate(350,512,512)"/>
<circle cx="514" cy="531" r="264" fill="red" opacity="0.333"/>
</g>
<g x_x="x"><use href="#nouns450" transform="translate(340 177) scale(0.373) rotate(354,512,512)"/>
<circle cx="531" cy="368" r="210" fill="green" opacity="0.333"/>
</g>
</g>
<g x_x="x" fill="#224455" transform="scale(0.348)"><path d="M485 491 c-17 -165 -78 -226 -180 -238 -101 -12 -94 11 -108 22 l-2 -24 s-60 -2 -82 -2 -81 1 -94 0 c0 0 0 395 5 482 5 86 1 257 1 284 0 0 59 8 94 7 s63 -8 72 -11 c0 0 14 -165 3 -221 0 0 137 29 202 -7 s106 -127 88 -291 Zm-261 171 c-40 -4 -31 -78 -32 -134 -4 -135 42 -138 66 -135 24 3 74 17 76 146 2 130 -69 126 -109 122 Z"/>
<path d="M31 43 s-9 170 -9 243 3 503 3 515 c0 0 65 3 83 6 s78 4 99 -7 c0 0 1 -286 1 -299 0 0 58 142 65 154 s67 148 67 148 c0 0 69 3 85 5 s70 1 78 -7 c0 0 1 -404 1 -434 s1 -316 0 -328 c0 0 -37 -11 -88 -11 s-93 8 -93 8 c0 0 -2 109 -1 145 s3 145 3 145 c0 0 -52 -116 -64 -147 s-53 -123 -58 -129 S110 24 31 43 Z" transform="translate(498 0)"/>
<path d="M434 288 c-59 -48 -100 -49 -175 -52 -75 -3 -153 6 -193 37 -40 31 -53 147 -47 257 6 110 8 179 56 226 48 47 111 56 204 55 60 -1 176 9 191 -132 15 -141 22 -343 -37 -391 Zm-120 255 c-5 52 4 111 -70 104 -74 -7 -50 -110 -50 -131 0 -88 15 -110 66 -105 51 5 59 79 54 132 Z" transform="translate(1024 0)"/>
<path d="M8 268 s5 143 1 233 -11 264 46 284 112 45 220 -18 c0 0 2 39 3 41 s19 9 92 4 80 -1 80 -1 c0 0 4 -306 0 -368 s-2 -185 -2 -185 c0 0 -58 3 -76 2 s-64 0 -88 10 c0 0 -11 105 -3 164 s17 185 -44 191 -54 -77 -58 -171 3 -149 -3 -193 c0 0 -69 -1 -86 -1 s-82 8 -82 8 Z" transform="translate(1522 0)"/>
<path d="M7 251 s-2 467 1 552 c0 0 65 -1 93 1 s63 -6 73 -10 c0 0 6 -136 -1 -222 s6 -135 47 -134 53 24 58 174 -1 165 3 188 c0 0 78 1 97 2 s58 -6 69 -7 c0 0 -4 -217 0 -283 s8 -202 -45 -235 -151 -23 -221 19 c0 0 1 -32 -5 -41 s-64 -3 -88 -1 -63 2 -82 -3 Z" transform="translate(1983 0)"/>
<path d="M5 624 s3 106 73 149 c70 44 225 71 329 11 105 -61 93 -231 24 -268 -69 -37 -142 -46 -175 -52 -33 -7 -52 -61 -34 -80 18 -20 39 -28 58 -18 19 11 30 32 27 59 0 0 55 18 117 14 62 -3 67 -10 67 -10 0 0 -1 -91 -36 -132 -35 -41 -47 -56 -173 -62 -126 -6 -163 13 -211 46 -48 34 -55 94 -55 120 -1 76 83 133 125 149 s121 26 150 49 c10 8 12 39 7 51 -6 13 -3 17 -21 25 -15 7 -75 9 -83 -53 0 0 -83 -5 -105 -3 -22 1 -71 1 -84 6 Z" transform="translate(2439 0)"/>
</g>
<g x_x="x" fill="#224455" transform="translate(542 922) scale(0.1)"><path d="M465 116 C394 31 297 11 210 33 c0 0 -158 46 -182 197 -12 25 -11 75 -13 176 -1 101 -2 235 57 302 59 68 139 115 268 76 s192 -254 197 -361 c5 -107 -2 -223 -73 -307 Zm-139 340 c-4 131 -26 153 -57 154 -32 1 -29 -11 -46 -55 -17 -43 -17 -154 -17 -154 11 -142 11 -194 64 -192 s61 115 57 247 Z"/>
<path d="M513 436 s-39 -1 -44 -3 -27 -3 -29 -1 c0 0 2 -203 3 -221 s6 -168 6 -175 c0 0 -26 -8 -68 -6 -42 2 -123 4 -132 3 0 0 -97 149 -125 196 S13 425 9 430 c0 0 -5 121 11 154 0 0 -6 9 68 10 s147 0 162 -3 c0 0 -7 99 -8 121 -2 22 -5 84 2 90 0 0 121 1 138 0 17 -1 42 -6 44 -12 3 -7 13 -163 14 -169 1 -6 -1 -14 -3 -15 0 0 30 -1 43 1 13 2 26 1 26 1 0 0 6 -162 6 -172 Zm-239 2 c-10 1 -100 -3 -100 -3 11 -1 39 -61 46 -78 8 -16 61 -125 61 -125 1 15 -8 207 -8 207 Z" transform="translate(554 0)"/>
<path d="M15 420 s21 6 97 2 145 -10 168 12 55 87 24 144 -68 42 -78 33 -21 -44 -20 -59 l-183 4 s-33 127 32 184 139 84 274 61 179 -115 184 -154 21 -159 -28 -262 -94 -113 -120 -127 -65 -17 -90 -18 -47 0 -51 0 -17 3 -18 -10 1 -24 1 -24 c0 0 50 5 120 4 s166 -4 174 -8 c0 0 2 -87 4 -98 s2 -61 -2 -66 -75 -4 -103 -4 -177 3 -213 4 -161 4 -171 4 c0 0 0 192 0 208 s0 172 0 172 Z" transform="translate(1080 0)"/>
<path d="M465 116 C394 31 297 11 210 33 c0 0 -158 46 -182 197 -12 25 -11 75 -13 176 -1 101 -2 235 57 302 59 68 139 115 268 76 s192 -254 197 -361 c5 -107 -2 -223 -73 -307 Zm-139 340 c-4 131 -26 153 -57 154 -32 1 -29 -11 -46 -55 -17 -43 -17 -154 -17 -154 11 -142 11 -194 64 -192 s61 115 57 247 Z" transform="translate(1606 0)"/>
<path d="M110 800 s52 2 76 -6 c0 0 5 -3 12 -26 s57 -142 72 -185 78 -229 91 -265 40 -113 48 -137 38 -122 38 -126 -4 -7 -6 -7 c0 0 3 -6 9 -7 0 0 -15 -15 -74 -13 s-86 -1 -97 -5 c0 0 -28 102 -41 136 s-28 83 -28 85 -9 34 -14 44 -65 177 -71 192 -38 108 -43 119 -42 112 -35 102 c0 0 -25 63 -24 73 s-3 26 12 26 74 -1 74 -1 Z" transform="translate(2160 0)"/>
<path d="M211 343 s10 -90 24 -109 57 -42 75 13 -2 102 -52 129 -76 51 -129 83 -74 59 -78 65 -24 36 -29 79 -10 187 -11 195 c0 0 15 4 30 5 s189 -5 212 -5 238 -3 246 -3 8 -6 8 -9 -3 -73 -1 -85 -3 -52 -10 -68 c0 0 -252 6 -279 2 0 0 35 -75 72 -97 s153 -76 185 -112 49 -59 49 -129 -4 -170 -92 -236 -270 -32 -320 2 S-10 187 21 344 c0 0 57 21 190 -1 Z" transform="translate(2621 0)"/>
<path d="M465 116 C394 31 297 11 210 33 c0 0 -158 46 -182 197 -12 25 -11 75 -13 176 -1 101 -2 235 57 302 59 68 139 115 268 76 s192 -254 197 -361 c5 -107 -2 -223 -73 -307 Zm-139 340 c-4 131 -26 153 -57 154 -32 1 -29 -11 -46 -55 -17 -43 -17 -154 -17 -154 11 -142 11 -194 64 -192 s61 115 57 247 Z" transform="translate(3161 0)"/>
<path d="M465 116 C394 31 297 11 210 33 c0 0 -158 46 -182 197 -12 25 -11 75 -13 176 -1 101 -2 235 57 302 59 68 139 115 268 76 s192 -254 197 -361 c5 -107 -2 -223 -73 -307 Zm-139 340 c-4 131 -26 153 -57 154 -32 1 -29 -11 -46 -55 -17 -43 -17 -154 -17 -154 11 -142 11 -194 64 -192 s61 115 57 247 Z" transform="translate(3715 0)"/>
<path d="M465 116 C394 31 297 11 210 33 c0 0 -158 46 -182 197 -12 25 -11 75 -13 176 -1 101 -2 235 57 302 59 68 139 115 268 76 s192 -254 197 -361 c5 -107 -2 -223 -73 -307 Zm-139 340 c-4 131 -26 153 -57 154 -32 1 -29 -11 -46 -55 -17 -43 -17 -154 -17 -154 11 -142 11 -194 64 -192 s61 115 57 247 Z" transform="translate(4269 0)"/>
</g>
</g>
</defs>
<use href="#circles450" />
</svg>
