<svg viewBox="0 0 1024 1024"  xmlns="http://www.w3.org/2000/svg">
<defs>
<g id="nouns533" transform="scale(3.2)" shape-rendering="crispEdges">
<rect width="140" height="10" x="90" y="210" fill="#ae3208" /><rect width="140" height="10" x="90" y="220" fill="#ae3208" /><rect width="140" height="10" x="90" y="230" fill="#ae3208" /><rect width="140" height="10" x="90" y="240" fill="#ae3208" /><rect width="20" height="10" x="90" y="250" fill="#ae3208" /><rect width="110" height="10" x="120" y="250" fill="#ae3208" /><rect width="20" height="10" x="90" y="260" fill="#ae3208" /><rect width="110" height="10" x="120" y="260" fill="#ae3208" /><rect width="20" height="10" x="90" y="270" fill="#ae3208" /><rect width="110" height="10" x="120" y="270" fill="#ae3208" /><rect width="20" height="10" x="90" y="280" fill="#ae3208" /><rect width="110" height="10" x="120" y="280" fill="#ae3208" /><rect width="20" height="10" x="90" y="290" fill="#ae3208" /><rect width="110" height="10" x="120" y="290" fill="#ae3208" /><rect width="20" height="10" x="90" y="300" fill="#ae3208" /><rect width="110" height="10" x="120" y="300" fill="#ae3208" /><rect width="20" height="10" x="90" y="310" fill="#ae3208" /><rect width="110" height="10" x="120" y="310" fill="#ae3208" /><rect width="140" height="10" x="90" y="210" fill="#d62149" /><rect width="140" height="10" x="90" y="220" fill="#d62149" /><rect width="140" height="10" x="90" y="230" fill="#d62149" /><rect width="140" height="10" x="90" y="240" fill="#b9185c" /><rect width="20" height="10" x="90" y="250" fill="#b9185c" /><rect width="110" height="10" x="120" y="250" fill="#b9185c" /><rect width="20" height="10" x="90" y="260" fill="#b9185c" /><rect width="110" height="10" x="120" y="260" fill="#b9185c" /><rect width="20" height="10" x="90" y="270" fill="#b9185c" /><rect width="110" height="10" x="120" y="270" fill="#b9185c" /><rect width="20" height="10" x="90" y="280" fill="#b9185c" /><rect width="110" height="10" x="120" y="280" fill="#b9185c" /><rect width="20" height="10" x="90" y="290" fill="#b9185c" /><rect width="110" height="10" x="120" y="290" fill="#b9185c" /><rect width="20" height="10" x="90" y="300" fill="#834398" /><rect width="110" height="10" x="120" y="300" fill="#834398" /><rect width="20" height="10" x="90" y="310" fill="#834398" /><rect width="110" height="10" x="120" y="310" fill="#834398" /><rect width="10" height="10" x="220" y="40" fill="#343235" /><rect width="60" height="10" x="130" y="50" fill="#343235" /><rect width="30" height="10" x="210" y="50" fill="#343235" /><rect width="20" height="10" x="240" y="50" fill="#cd916d" /><rect width="40" height="10" x="110" y="60" fill="#343235" /><rect width="10" height="10" x="150" y="60" fill="#abaaa8" /><rect width="90" height="10" x="160" y="60" fill="#343235" /><rect width="10" height="10" x="260" y="60" fill="#cd916d" /><rect width="20" height="10" x="100" y="70" fill="#343235" /><rect width="20" height="10" x="120" y="70" fill="#abaaa8" /><rect width="100" height="10" x="140" y="70" fill="#343235" /><rect width="10" height="10" x="270" y="70" fill="#cd916d" /><rect width="30" height="10" x="90" y="80" fill="#343235" /><rect width="20" height="10" x="120" y="80" fill="#abaaa8" /><rect width="90" height="10" x="140" y="80" fill="#343235" /><rect width="10" height="10" x="270" y="80" fill="#cd916d" /><rect width="160" height="10" x="80" y="90" fill="#343235" /><rect width="10" height="10" x="270" y="90" fill="#cd916d" /><rect width="160" height="10" x="80" y="100" fill="#343235" /><rect width="10" height="10" x="270" y="100" fill="#ffd067" /><rect width="180" height="10" x="70" y="110" fill="#343235" /><rect width="10" height="10" x="270" y="110" fill="#ff1a0b" /><rect width="180" height="10" x="70" y="120" fill="#343235" /><rect width="180" height="10" x="70" y="130" fill="#343235" /><rect width="180" height="10" x="70" y="140" fill="#343235" /><rect width="180" height="10" x="70" y="150" fill="#343235" /><rect width="180" height="10" x="70" y="160" fill="#343235" /><rect width="160" height="10" x="80" y="170" fill="#343235" /><rect width="160" height="10" x="80" y="180" fill="#343235" /><rect width="60" height="10" x="90" y="190" fill="#343235" /><rect width="50" height="10" x="150" y="190" fill="#abaaa8" /><rect width="30" height="10" x="200" y="190" fill="#343235" /><rect width="120" height="10" x="100" y="200" fill="#343235" /><rect width="100" height="10" x="110" y="210" fill="#343235" /><rect width="60" height="10" x="130" y="220" fill="#343235" /><rect width="60" height="10" x="100" y="110" fill="#9cb4b8" /><rect width="60" height="10" x="170" y="110" fill="#9cb4b8" /><rect width="10" height="10" x="100" y="120" fill="#9cb4b8" /><rect width="20" height="10" x="110" y="120" fill="#ffffff" /><rect width="20" height="10" x="130" y="120" fill="#000000" /><rect width="10" height="10" x="150" y="120" fill="#9cb4b8" /><rect width="10" height="10" x="170" y="120" fill="#9cb4b8" /><rect width="20" height="10" x="180" y="120" fill="#ffffff" /><rect width="20" height="10" x="200" y="120" fill="#000000" /><rect width="10" height="10" x="220" y="120" fill="#9cb4b8" /><rect width="40" height="10" x="70" y="130" fill="#9cb4b8" /><rect width="20" height="10" x="110" y="130" fill="#ffffff" /><rect width="20" height="10" x="130" y="130" fill="#000000" /><rect width="30" height="10" x="150" y="130" fill="#9cb4b8" /><rect width="20" height="10" x="180" y="130" fill="#ffffff" /><rect width="20" height="10" x="200" y="130" fill="#000000" /><rect width="10" height="10" x="220" y="130" fill="#9cb4b8" /><rect width="10" height="10" x="70" y="140" fill="#9cb4b8" /><rect width="10" height="10" x="100" y="140" fill="#9cb4b8" /><rect width="20" height="10" x="110" y="140" fill="#ffffff" /><rect width="20" height="10" x="130" y="140" fill="#000000" /><rect width="10" height="10" x="150" y="140" fill="#9cb4b8" /><rect width="10" height="10" x="170" y="140" fill="#9cb4b8" /><rect width="20" height="10" x="180" y="140" fill="#ffffff" /><rect width="20" height="10" x="200" y="140" fill="#000000" /><rect width="10" height="10" x="220" y="140" fill="#9cb4b8" /><rect width="10" height="10" x="70" y="150" fill="#9cb4b8" /><rect width="10" height="10" x="100" y="150" fill="#9cb4b8" /><rect width="20" height="10" x="110" y="150" fill="#ffffff" /><rect width="20" height="10" x="130" y="150" fill="#000000" /><rect width="10" height="10" x="150" y="150" fill="#9cb4b8" /><rect width="10" height="10" x="170" y="150" fill="#9cb4b8" /><rect width="20" height="10" x="180" y="150" fill="#ffffff" /><rect width="20" height="10" x="200" y="150" fill="#000000" /><rect width="10" height="10" x="220" y="150" fill="#9cb4b8" /><rect width="60" height="10" x="100" y="160" fill="#9cb4b8" /><rect width="60" height="10" x="170" y="160" fill="#9cb4b8" />
</g>
<g id="nouns534" transform="scale(3.2)" shape-rendering="crispEdges">
<rect width="140" height="10" x="90" y="210" fill="#fe500c" /><rect width="140" height="10" x="90" y="220" fill="#fe500c" /><rect width="140" height="10" x="90" y="230" fill="#fe500c" /><rect width="140" height="10" x="90" y="240" fill="#fe500c" /><rect width="20" height="10" x="90" y="250" fill="#fe500c" /><rect width="110" height="10" x="120" y="250" fill="#fe500c" /><rect width="20" height="10" x="90" y="260" fill="#fe500c" /><rect width="110" height="10" x="120" y="260" fill="#fe500c" /><rect width="20" height="10" x="90" y="270" fill="#fe500c" /><rect width="110" height="10" x="120" y="270" fill="#fe500c" /><rect width="20" height="10" x="90" y="280" fill="#fe500c" /><rect width="110" height="10" x="120" y="280" fill="#fe500c" /><rect width="20" height="10" x="90" y="290" fill="#fe500c" /><rect width="110" height="10" x="120" y="290" fill="#fe500c" /><rect width="20" height="10" x="90" y="300" fill="#fe500c" /><rect width="110" height="10" x="120" y="300" fill="#fe500c" /><rect width="20" height="10" x="90" y="310" fill="#fe500c" /><rect width="110" height="10" x="120" y="310" fill="#fe500c" /><rect width="140" height="10" x="90" y="210" fill="#6e3206" /><rect width="140" height="10" x="90" y="230" fill="#6e3206" /><rect width="20" height="10" x="90" y="250" fill="#6e3206" /><rect width="110" height="10" x="120" y="250" fill="#6e3206" /><rect width="20" height="10" x="90" y="270" fill="#6e3206" /><rect width="110" height="10" x="120" y="270" fill="#6e3206" /><rect width="20" height="10" x="90" y="290" fill="#6e3206" /><rect width="110" height="10" x="120" y="290" fill="#6e3206" /><rect width="60" height="10" x="130" y="20" fill="#f938d8" /><rect width="20" height="10" x="110" y="30" fill="#f938d8" /><rect width="60" height="10" x="130" y="30" fill="#410d66" /><rect width="20" height="10" x="190" y="30" fill="#f938d8" /><rect width="10" height="10" x="100" y="40" fill="#f938d8" /><rect width="100" height="10" x="110" y="40" fill="#410d66" /><rect width="10" height="10" x="210" y="40" fill="#f938d8" /><rect width="10" height="10" x="90" y="50" fill="#f938d8" /><rect width="70" height="10" x="100" y="50" fill="#410d66" /><rect width="10" height="10" x="170" y="50" fill="#f938d8" /><rect width="40" height="10" x="180" y="50" fill="#410d66" /><rect width="10" height="10" x="220" y="50" fill="#f938d8" /><rect width="10" height="10" x="80" y="60" fill="#f938d8" /><rect width="30" height="10" x="90" y="60" fill="#410d66" /><rect width="10" height="10" x="120" y="60" fill="#f938d8" /><rect width="100" height="10" x="130" y="60" fill="#410d66" /><rect width="10" height="10" x="230" y="60" fill="#f938d8" /><rect width="10" height="10" x="70" y="70" fill="#f938d8" /><rect width="30" height="10" x="80" y="70" fill="#410d66" /><rect width="10" height="10" x="110" y="70" fill="#f938d8" /><rect width="10" height="10" x="120" y="70" fill="#410d66" /><rect width="10" height="10" x="130" y="70" fill="#f938d8" /><rect width="50" height="10" x="140" y="70" fill="#410d66" /><rect width="10" height="10" x="190" y="70" fill="#f938d8" /><rect width="40" height="10" x="200" y="70" fill="#410d66" /><rect width="10" height="10" x="240" y="70" fill="#f938d8" /><rect width="10" height="10" x="70" y="80" fill="#f938d8" /><rect width="40" height="10" x="80" y="80" fill="#410d66" /><rect width="10" height="10" x="120" y="80" fill="#f938d8" /><rect width="50" height="10" x="130" y="80" fill="#410d66" /><rect width="30" height="10" x="180" y="80" fill="#f938d8" /><rect width="30" height="10" x="210" y="80" fill="#410d66" /><rect width="10" height="10" x="240" y="80" fill="#f938d8" /><rect width="10" height="10" x="60" y="90" fill="#f938d8" /><rect width="120" height="10" x="70" y="90" fill="#410d66" /><rect width="10" height="10" x="190" y="90" fill="#f938d8" /><rect width="50" height="10" x="200" y="90" fill="#410d66" /><rect width="10" height="10" x="250" y="90" fill="#f938d8" /><rect width="10" height="10" x="60" y="100" fill="#f938d8" /><rect width="70" height="10" x="70" y="100" fill="#410d66" /><rect width="10" height="10" x="140" y="100" fill="#f938d8" /><rect width="100" height="10" x="150" y="100" fill="#410d66" /><rect width="10" height="10" x="250" y="100" fill="#f938d8" /><rect width="10" height="10" x="60" y="110" fill="#f938d8" /><rect width="180" height="10" x="70" y="110" fill="#410d66" /><rect width="10" height="10" x="250" y="110" fill="#f938d8" /><rect width="10" height="10" x="60" y="120" fill="#f938d8" /><rect width="180" height="10" x="70" y="120" fill="#410d66" /><rect width="10" height="10" x="250" y="120" fill="#f938d8" /><rect width="10" height="10" x="60" y="130" fill="#f938d8" /><rect width="180" height="10" x="70" y="130" fill="#410d66" /><rect width="10" height="10" x="250" y="130" fill="#f938d8" /><rect width="10" height="10" x="60" y="140" fill="#f938d8" /><rect width="180" height="10" x="70" y="140" fill="#410d66" /><rect width="10" height="10" x="250" y="140" fill="#f938d8" /><rect width="10" height="10" x="70" y="150" fill="#f938d8" /><rect width="160" height="10" x="80" y="150" fill="#410d66" /><rect width="10" height="10" x="240" y="150" fill="#f938d8" /><rect width="10" height="10" x="70" y="160" fill="#f938d8" /><rect width="160" height="10" x="80" y="160" fill="#410d66" /><rect width="10" height="10" x="240" y="160" fill="#f938d8" /><rect width="10" height="10" x="80" y="170" fill="#f938d8" /><rect width="140" height="10" x="90" y="170" fill="#410d66" /><rect width="10" height="10" x="230" y="170" fill="#f938d8" /><rect width="160" height="10" x="80" y="180" fill="#552d1d" /><rect width="50" height="10" x="80" y="190" fill="#552d1d" /><rect width="70" height="10" x="130" y="190" fill="#000000" /><rect width="40" height="10" x="200" y="190" fill="#552d1d" /><rect width="160" height="10" x="80" y="200" fill="#552d1d" /><rect width="60" height="10" x="100" y="110" fill="#ffef16" /><rect width="60" height="10" x="170" y="110" fill="#ffef16" /><rect width="10" height="10" x="100" y="120" fill="#ffef16" /><rect width="20" height="10" x="110" y="120" fill="#ffffff" /><rect width="20" height="10" x="130" y="120" fill="#000000" /><rect width="10" height="10" x="150" y="120" fill="#ffef16" /><rect width="10" height="10" x="170" y="120" fill="#ffef16" /><rect width="20" height="10" x="180" y="120" fill="#ffffff" /><rect width="20" height="10" x="200" y="120" fill="#000000" /><rect width="10" height="10" x="220" y="120" fill="#ffef16" /><rect width="40" height="10" x="70" y="130" fill="#ffef16" /><rect width="20" height="10" x="110" y="130" fill="#ffffff" /><rect width="20" height="10" x="130" y="130" fill="#000000" /><rect width="30" height="10" x="150" y="130" fill="#ffef16" /><rect width="20" height="10" x="180" y="130" fill="#ffffff" /><rect width="20" height="10" x="200" y="130" fill="#000000" /><rect width="10" height="10" x="220" y="130" fill="#ffef16" /><rect width="10" height="10" x="70" y="140" fill="#ffef16" /><rect width="10" height="10" x="100" y="140" fill="#ffef16" /><rect width="20" height="10" x="110" y="140" fill="#ffffff" /><rect width="20" height="10" x="130" y="140" fill="#000000" /><rect width="10" height="10" x="150" y="140" fill="#ffef16" /><rect width="10" height="10" x="170" y="140" fill="#ffef16" /><rect width="20" height="10" x="180" y="140" fill="#ffffff" /><rect width="20" height="10" x="200" y="140" fill="#000000" /><rect width="10" height="10" x="220" y="140" fill="#ffef16" /><rect width="10" height="10" x="70" y="150" fill="#ffef16" /><rect width="10" height="10" x="100" y="150" fill="#ffef16" /><rect width="20" height="10" x="110" y="150" fill="#ffffff" /><rect width="20" height="10" x="130" y="150" fill="#000000" /><rect width="10" height="10" x="150" y="150" fill="#ffef16" /><rect width="10" height="10" x="170" y="150" fill="#ffef16" /><rect width="20" height="10" x="180" y="150" fill="#ffffff" /><rect width="20" height="10" x="200" y="150" fill="#000000" /><rect width="10" height="10" x="220" y="150" fill="#ffef16" /><rect width="60" height="10" x="100" y="160" fill="#ffef16" /><rect width="60" height="10" x="170" y="160" fill="#ffef16" />
</g>
<g id="nouns535" transform="scale(3.2)" shape-rendering="crispEdges">
<rect width="140" height="10" x="90" y="210" fill="#343235" /><rect width="140" height="10" x="90" y="220" fill="#343235" /><rect width="140" height="10" x="90" y="230" fill="#343235" /><rect width="140" height="10" x="90" y="240" fill="#343235" /><rect width="20" height="10" x="90" y="250" fill="#343235" /><rect width="110" height="10" x="120" y="250" fill="#343235" /><rect width="20" height="10" x="90" y="260" fill="#343235" /><rect width="110" height="10" x="120" y="260" fill="#343235" /><rect width="20" height="10" x="90" y="270" fill="#343235" /><rect width="110" height="10" x="120" y="270" fill="#343235" /><rect width="20" height="10" x="90" y="280" fill="#343235" /><rect width="110" height="10" x="120" y="280" fill="#343235" /><rect width="20" height="10" x="90" y="290" fill="#343235" /><rect width="110" height="10" x="120" y="290" fill="#343235" /><rect width="20" height="10" x="90" y="300" fill="#343235" /><rect width="110" height="10" x="120" y="300" fill="#343235" /><rect width="20" height="10" x="90" y="310" fill="#343235" /><rect width="110" height="10" x="120" y="310" fill="#343235" /><rect width="10" height="10" x="180" y="240" fill="#2b83f6" /><rect width="10" height="10" x="150" y="250" fill="#2b83f6" /><rect width="10" height="10" x="180" y="250" fill="#2b83f6" /><rect width="10" height="10" x="150" y="260" fill="#2b83f6" /><rect width="10" height="10" x="170" y="270" fill="#2b83f6" /><rect width="10" height="10" x="140" y="280" fill="#2b83f6" /><rect width="10" height="10" x="170" y="280" fill="#2b83f6" /><rect width="10" height="10" x="140" y="290" fill="#2b83f6" /><rect width="30" height="10" x="90" y="90" fill="#ffe939" /><rect width="50" height="10" x="120" y="90" fill="#abaaa8" /><rect width="90" height="10" x="170" y="90" fill="#58565c" /><rect width="20" height="10" x="260" y="90" fill="#f3322c" /><rect width="40" height="10" x="80" y="100" fill="#ffe939" /><rect width="20" height="10" x="120" y="100" fill="#abaaa8" /><rect width="10" height="10" x="140" y="100" fill="#9d8e6e" /><rect width="20" height="10" x="150" y="100" fill="#abaaa8" /><rect width="90" height="10" x="170" y="100" fill="#58565c" /><rect width="20" height="10" x="260" y="100" fill="#f3322c" /><rect width="40" height="10" x="80" y="110" fill="#ffe939" /><rect width="50" height="10" x="120" y="110" fill="#abaaa8" /><rect width="80" height="10" x="170" y="110" fill="#58565c" /><rect width="30" height="10" x="250" y="110" fill="#f3322c" /><rect width="90" height="10" x="30" y="120" fill="#ffe939" /><rect width="50" height="10" x="120" y="120" fill="#abaaa8" /><rect width="80" height="10" x="170" y="120" fill="#58565c" /><rect width="30" height="10" x="250" y="120" fill="#f3322c" /><rect width="100" height="10" x="20" y="130" fill="#ffe939" /><rect width="50" height="10" x="120" y="130" fill="#abaaa8" /><rect width="80" height="10" x="170" y="130" fill="#58565c" /><rect width="30" height="10" x="250" y="130" fill="#f3322c" /><rect width="100" height="10" x="20" y="140" fill="#ffe939" /><rect width="50" height="10" x="120" y="140" fill="#abaaa8" /><rect width="80" height="10" x="170" y="140" fill="#58565c" /><rect width="30" height="10" x="250" y="140" fill="#f3322c" /><rect width="100" height="10" x="20" y="150" fill="#ffe939" /><rect width="50" height="10" x="120" y="150" fill="#abaaa8" /><rect width="70" height="10" x="170" y="150" fill="#58565c" /><rect width="40" height="10" x="240" y="150" fill="#f3322c" /><rect width="100" height="10" x="20" y="160" fill="#ffe939" /><rect width="50" height="10" x="120" y="160" fill="#abaaa8" /><rect width="70" height="10" x="170" y="160" fill="#58565c" /><rect width="40" height="10" x="240" y="160" fill="#f3322c" /><rect width="90" height="10" x="30" y="170" fill="#ffe939" /><rect width="50" height="10" x="120" y="170" fill="#abaaa8" /><rect width="70" height="10" x="170" y="170" fill="#58565c" /><rect width="40" height="10" x="240" y="170" fill="#f3322c" /><rect width="40" height="10" x="80" y="180" fill="#ffe939" /><rect width="50" height="10" x="120" y="180" fill="#abaaa8" /><rect width="70" height="10" x="170" y="180" fill="#58565c" /><rect width="40" height="10" x="240" y="180" fill="#f3322c" /><rect width="30" height="10" x="80" y="190" fill="#ffe939" /><rect width="20" height="10" x="110" y="190" fill="#f3322c" /><rect width="10" height="10" x="130" y="190" fill="#abaaa8" /><rect width="10" height="10" x="140" y="190" fill="#9d8e6e" /><rect width="20" height="10" x="150" y="190" fill="#abaaa8" /><rect width="60" height="10" x="170" y="190" fill="#58565c" /><rect width="50" height="10" x="230" y="190" fill="#f3322c" /><rect width="30" height="10" x="90" y="200" fill="#ffe939" /><rect width="50" height="10" x="120" y="200" fill="#abaaa8" /><rect width="60" height="10" x="170" y="200" fill="#58565c" /><rect width="50" height="10" x="230" y="200" fill="#f3322c" /><rect width="10" height="10" x="240" y="210" fill="#f3322c" /><rect width="20" height="10" x="260" y="210" fill="#f3322c" /><rect width="20" height="10" x="260" y="220" fill="#f3322c" /><rect width="10" height="10" x="260" y="230" fill="#f3322c" /><rect width="10" height="10" x="260" y="240" fill="#f3322c" /><rect width="60" height="10" x="100" y="110" fill="#e8705b" /><rect width="60" height="10" x="170" y="110" fill="#e8705b" /><rect width="10" height="10" x="100" y="120" fill="#e8705b" /><rect width="20" height="10" x="110" y="120" fill="#ffffff" /><rect width="20" height="10" x="130" y="120" fill="#000000" /><rect width="10" height="10" x="150" y="120" fill="#e8705b" /><rect width="10" height="10" x="170" y="120" fill="#e8705b" /><rect width="20" height="10" x="180" y="120" fill="#ffffff" /><rect width="20" height="10" x="200" y="120" fill="#000000" /><rect width="10" height="10" x="220" y="120" fill="#e8705b" /><rect width="40" height="10" x="70" y="130" fill="#e8705b" /><rect width="20" height="10" x="110" y="130" fill="#ffffff" /><rect width="20" height="10" x="130" y="130" fill="#000000" /><rect width="30" height="10" x="150" y="130" fill="#e8705b" /><rect width="20" height="10" x="180" y="130" fill="#ffffff" /><rect width="20" height="10" x="200" y="130" fill="#000000" /><rect width="10" height="10" x="220" y="130" fill="#e8705b" /><rect width="10" height="10" x="70" y="140" fill="#e8705b" /><rect width="10" height="10" x="100" y="140" fill="#e8705b" /><rect width="20" height="10" x="110" y="140" fill="#ffffff" /><rect width="20" height="10" x="130" y="140" fill="#000000" /><rect width="10" height="10" x="150" y="140" fill="#e8705b" /><rect width="10" height="10" x="170" y="140" fill="#e8705b" /><rect width="20" height="10" x="180" y="140" fill="#ffffff" /><rect width="20" height="10" x="200" y="140" fill="#000000" /><rect width="10" height="10" x="220" y="140" fill="#e8705b" /><rect width="10" height="10" x="70" y="150" fill="#e8705b" /><rect width="10" height="10" x="100" y="150" fill="#e8705b" /><rect width="20" height="10" x="110" y="150" fill="#ffffff" /><rect width="20" height="10" x="130" y="150" fill="#000000" /><rect width="10" height="10" x="150" y="150" fill="#e8705b" /><rect width="10" height="10" x="170" y="150" fill="#e8705b" /><rect width="20" height="10" x="180" y="150" fill="#ffffff" /><rect width="20" height="10" x="200" y="150" fill="#000000" /><rect width="10" height="10" x="220" y="150" fill="#e8705b" /><rect width="60" height="10" x="100" y="160" fill="#e8705b" /><rect width="60" height="10" x="170" y="160" fill="#e8705b" />
</g>
<g x_x="x" id="circles533"><g x_x="x" transform="translate(102,204) scale(0.8)"><g x_x="x"><use href="#nouns533" transform="translate(635 79) scale(0.093) rotate(112,512,512)"/>
<circle cx="683" cy="127" r="52" fill="red" opacity="0.333"/>
</g>
<g x_x="x"><use href="#nouns534" transform="translate(278 832) scale(0.142) rotate(232,512,512)"/>
<circle cx="351" cy="905" r="80" fill="green" opacity="0.333"/>
</g>
<g x_x="x"><use href="#nouns535" transform="translate(445 -29) scale(0.142) rotate(15,512,512)"/>
<circle cx="518" cy="44" r="80" fill="yellow" opacity="0.333"/>
</g>
<g x_x="x"><use href="#nouns533" transform="translate(732 382) scale(0.138) rotate(400,512,512)"/>
<circle cx="803" cy="453" r="78" fill="blue" opacity="0.333"/>
</g>
<g x_x="x"><use href="#nouns534" transform="translate(174 592) scale(0.255) rotate(301,512,512)"/>
<circle cx="305" cy="723" r="144" fill="red" opacity="0.333"/>
</g>
<g x_x="x"><use href="#nouns535" transform="translate(416 173) scale(0.236) rotate(396,512,512)"/>
<circle cx="537" cy="294" r="133" fill="green" opacity="0.333"/>
</g>
<g x_x="x"><use href="#nouns533" transform="translate(319 615) scale(0.253) rotate(261,512,512)"/>
<circle cx="449" cy="745" r="143" fill="yellow" opacity="0.333"/>
</g>
<g x_x="x"><use href="#nouns534" transform="translate(386 250) scale(0.468) rotate(326,512,512)"/>
<circle cx="626" cy="490" r="264" fill="blue" opacity="0.333"/>
</g>
<g x_x="x"><use href="#nouns535" transform="translate(351 222) scale(0.476) rotate(385,512,512)"/>
<circle cx="595" cy="466" r="268" fill="red" opacity="0.333"/>
</g>
<g x_x="x"><use href="#nouns533" transform="translate(355 153) scale(0.367) rotate(334,512,512)"/>
<circle cx="543" cy="341" r="206" fill="green" opacity="0.333"/>
</g>
</g>
<g x_x="x" fill="#224455" transform="scale(0.348)"><path d="M485 491 c-17 -165 -78 -226 -180 -238 -101 -12 -94 11 -108 22 l-2 -24 s-60 -2 -82 -2 -81 1 -94 0 c0 0 0 395 5 482 5 86 1 257 1 284 0 0 59 8 94 7 s63 -8 72 -11 c0 0 14 -165 3 -221 0 0 137 29 202 -7 s106 -127 88 -291 Zm-261 171 c-40 -4 -31 -78 -32 -134 -4 -135 42 -138 66 -135 24 3 74 17 76 146 2 130 -69 126 -109 122 Z"/>
<path d="M31 43 s-9 170 -9 243 3 503 3 515 c0 0 65 3 83 6 s78 4 99 -7 c0 0 1 -286 1 -299 0 0 58 142 65 154 s67 148 67 148 c0 0 69 3 85 5 s70 1 78 -7 c0 0 1 -404 1 -434 s1 -316 0 -328 c0 0 -37 -11 -88 -11 s-93 8 -93 8 c0 0 -2 109 -1 145 s3 145 3 145 c0 0 -52 -116 -64 -147 s-53 -123 -58 -129 S110 24 31 43 Z" transform="translate(498 0)"/>
<path d="M434 288 c-59 -48 -100 -49 -175 -52 -75 -3 -153 6 -193 37 -40 31 -53 147 -47 257 6 110 8 179 56 226 48 47 111 56 204 55 60 -1 176 9 191 -132 15 -141 22 -343 -37 -391 Zm-120 255 c-5 52 4 111 -70 104 -74 -7 -50 -110 -50 -131 0 -88 15 -110 66 -105 51 5 59 79 54 132 Z" transform="translate(1024 0)"/>
<path d="M8 268 s5 143 1 233 -11 264 46 284 112 45 220 -18 c0 0 2 39 3 41 s19 9 92 4 80 -1 80 -1 c0 0 4 -306 0 -368 s-2 -185 -2 -185 c0 0 -58 3 -76 2 s-64 0 -88 10 c0 0 -11 105 -3 164 s17 185 -44 191 -54 -77 -58 -171 3 -149 -3 -193 c0 0 -69 -1 -86 -1 s-82 8 -82 8 Z" transform="translate(1522 0)"/>
<path d="M7 251 s-2 467 1 552 c0 0 65 -1 93 1 s63 -6 73 -10 c0 0 6 -136 -1 -222 s6 -135 47 -134 53 24 58 174 -1 165 3 188 c0 0 78 1 97 2 s58 -6 69 -7 c0 0 -4 -217 0 -283 s8 -202 -45 -235 -151 -23 -221 19 c0 0 1 -32 -5 -41 s-64 -3 -88 -1 -63 2 -82 -3 Z" transform="translate(1983 0)"/>
<path d="M5 624 s3 106 73 149 c70 44 225 71 329 11 105 -61 93 -231 24 -268 -69 -37 -142 -46 -175 -52 -33 -7 -52 -61 -34 -80 18 -20 39 -28 58 -18 19 11 30 32 27 59 0 0 55 18 117 14 62 -3 67 -10 67 -10 0 0 -1 -91 -36 -132 -35 -41 -47 -56 -173 -62 -126 -6 -163 13 -211 46 -48 34 -55 94 -55 120 -1 76 83 133 125 149 s121 26 150 49 c10 8 12 39 7 51 -6 13 -3 17 -21 25 -15 7 -75 9 -83 -53 0 0 -83 -5 -105 -3 -22 1 -71 1 -84 6 Z" transform="translate(2439 0)"/>
</g>
<g x_x="x" fill="#224455" transform="translate(545 922) scale(0.1)"><path d="M465 116 C394 31 297 11 210 33 c0 0 -158 46 -182 197 -12 25 -11 75 -13 176 -1 101 -2 235 57 302 59 68 139 115 268 76 s192 -254 197 -361 c5 -107 -2 -223 -73 -307 Zm-139 340 c-4 131 -26 153 -57 154 -32 1 -29 -11 -46 -55 -17 -43 -17 -154 -17 -154 11 -142 11 -194 64 -192 s61 115 57 247 Z"/>
<path d="M15 420 s21 6 97 2 145 -10 168 12 55 87 24 144 -68 42 -78 33 -21 -44 -20 -59 l-183 4 s-33 127 32 184 139 84 274 61 179 -115 184 -154 21 -159 -28 -262 -94 -113 -120 -127 -65 -17 -90 -18 -47 0 -51 0 -17 3 -18 -10 1 -24 1 -24 c0 0 50 5 120 4 s166 -4 174 -8 c0 0 2 -87 4 -98 s2 -61 -2 -66 -75 -4 -103 -4 -177 3 -213 4 -161 4 -171 4 c0 0 0 192 0 208 s0 172 0 172 Z" transform="translate(554 0)"/>
<path d="M187 271 s24 -50 76 -60 50 61 48 71 -3 34 -49 37 -86 6 -101 14 c0 0 4 60 -1 86 s9 68 13 72 c0 0 53 -13 79 -5 s54 13 61 59 -24 63 -40 67 -61 -13 -83 -67 c0 0 -57 -5 -87 1 s-82 4 -85 5 c0 0 -5 126 21 164 s27 46 105 71 203 15 251 -10 97 -72 105 -152 8 -323 7 -355 3 -105 -17 -147 S376 27 271 26 110 61 95 70 s-56 37 -73 88 -6 104 -7 115 c0 0 68 3 88 3 s81 -3 84 -5 Z" transform="translate(1080 0)"/>
<path d="M187 271 s24 -50 76 -60 50 61 48 71 -3 34 -49 37 -86 6 -101 14 c0 0 4 60 -1 86 s9 68 13 72 c0 0 53 -13 79 -5 s54 13 61 59 -24 63 -40 67 -61 -13 -83 -67 c0 0 -57 -5 -87 1 s-82 4 -85 5 c0 0 -5 126 21 164 s27 46 105 71 203 15 251 -10 97 -72 105 -152 8 -323 7 -355 3 -105 -17 -147 S376 27 271 26 110 61 95 70 s-56 37 -73 88 -6 104 -7 115 c0 0 68 3 88 3 s81 -3 84 -5 Z" transform="translate(1606 0)"/>
<path d="M110 800 s52 2 76 -6 c0 0 5 -3 12 -26 s57 -142 72 -185 78 -229 91 -265 40 -113 48 -137 38 -122 38 -126 -4 -7 -6 -7 c0 0 3 -6 9 -7 0 0 -15 -15 -74 -13 s-86 -1 -97 -5 c0 0 -28 102 -41 136 s-28 83 -28 85 -9 34 -14 44 -65 177 -71 192 -38 108 -43 119 -42 112 -35 102 c0 0 -25 63 -24 73 s-3 26 12 26 74 -1 74 -1 Z" transform="translate(2132 0)"/>
<path d="M211 343 s10 -90 24 -109 57 -42 75 13 -2 102 -52 129 -76 51 -129 83 -74 59 -78 65 -24 36 -29 79 -10 187 -11 195 c0 0 15 4 30 5 s189 -5 212 -5 238 -3 246 -3 8 -6 8 -9 -3 -73 -1 -85 -3 -52 -10 -68 c0 0 -252 6 -279 2 0 0 35 -75 72 -97 s153 -76 185 -112 49 -59 49 -129 -4 -170 -92 -236 -270 -32 -320 2 S-10 187 21 344 c0 0 57 21 190 -1 Z" transform="translate(2593 0)"/>
<path d="M465 116 C394 31 297 11 210 33 c0 0 -158 46 -182 197 -12 25 -11 75 -13 176 -1 101 -2 235 57 302 59 68 139 115 268 76 s192 -254 197 -361 c5 -107 -2 -223 -73 -307 Zm-139 340 c-4 131 -26 153 -57 154 -32 1 -29 -11 -46 -55 -17 -43 -17 -154 -17 -154 11 -142 11 -194 64 -192 s61 115 57 247 Z" transform="translate(3133 0)"/>
<path d="M465 116 C394 31 297 11 210 33 c0 0 -158 46 -182 197 -12 25 -11 75 -13 176 -1 101 -2 235 57 302 59 68 139 115 268 76 s192 -254 197 -361 c5 -107 -2 -223 -73 -307 Zm-139 340 c-4 131 -26 153 -57 154 -32 1 -29 -11 -46 -55 -17 -43 -17 -154 -17 -154 11 -142 11 -194 64 -192 s61 115 57 247 Z" transform="translate(3687 0)"/>
<path d="M465 116 C394 31 297 11 210 33 c0 0 -158 46 -182 197 -12 25 -11 75 -13 176 -1 101 -2 235 57 302 59 68 139 115 268 76 s192 -254 197 -361 c5 -107 -2 -223 -73 -307 Zm-139 340 c-4 131 -26 153 -57 154 -32 1 -29 -11 -46 -55 -17 -43 -17 -154 -17 -154 11 -142 11 -194 64 -192 s61 115 57 247 Z" transform="translate(4241 0)"/>
</g>
</g>
</defs>
<use href="#circles533" />
</svg>
