<svg viewBox="0 0 1024 1024"  xmlns="http://www.w3.org/2000/svg">
<defs>
<g id="nouns697" transform="scale(3.2)" shape-rendering="crispEdges">
<rect width="140" height="10" x="90" y="210" fill="#b9185c" /><rect width="140" height="10" x="90" y="220" fill="#b9185c" /><rect width="140" height="10" x="90" y="230" fill="#b9185c" /><rect width="140" height="10" x="90" y="240" fill="#b9185c" /><rect width="20" height="10" x="90" y="250" fill="#b9185c" /><rect width="110" height="10" x="120" y="250" fill="#b9185c" /><rect width="20" height="10" x="90" y="260" fill="#b9185c" /><rect width="110" height="10" x="120" y="260" fill="#b9185c" /><rect width="20" height="10" x="90" y="270" fill="#b9185c" /><rect width="110" height="10" x="120" y="270" fill="#b9185c" /><rect width="20" height="10" x="90" y="280" fill="#b9185c" /><rect width="110" height="10" x="120" y="280" fill="#b9185c" /><rect width="20" height="10" x="90" y="290" fill="#b9185c" /><rect width="110" height="10" x="120" y="290" fill="#b9185c" /><rect width="20" height="10" x="90" y="300" fill="#b9185c" /><rect width="110" height="10" x="120" y="300" fill="#b9185c" /><rect width="20" height="10" x="90" y="310" fill="#b9185c" /><rect width="110" height="10" x="120" y="310" fill="#b9185c" /><rect width="10" height="10" x="120" y="210" fill="#ffc110" /><rect width="10" height="10" x="190" y="210" fill="#ffc110" /><rect width="10" height="10" x="130" y="220" fill="#ffc110" /><rect width="10" height="10" x="180" y="220" fill="#ffc110" /><rect width="10" height="10" x="140" y="230" fill="#ffc110" /><rect width="10" height="10" x="170" y="230" fill="#ffc110" /><rect width="20" height="10" x="150" y="240" fill="#ffc110" /><rect width="20" height="10" x="150" y="250" fill="#ffc110" /><rect width="40" height="10" x="140" y="260" fill="#ffc110" /><rect width="40" height="10" x="140" y="270" fill="#ffc110" /><rect width="60" height="10" x="130" y="280" fill="#ffc110" /><rect width="60" height="10" x="130" y="290" fill="#ffc110" /><rect width="20" height="10" x="150" y="30" fill="#f3322c" /><rect width="20" height="10" x="150" y="40" fill="#f3322c" /><rect width="40" height="10" x="140" y="50" fill="#f3322c" /><rect width="40" height="10" x="140" y="60" fill="#f3322c" /><rect width="40" height="10" x="140" y="70" fill="#f3322c" /><rect width="60" height="10" x="130" y="80" fill="#f3322c" /><rect width="60" height="10" x="130" y="90" fill="#f9e8dd" /><rect width="60" height="10" x="130" y="100" fill="#f9e8dd" /><rect width="80" height="10" x="120" y="110" fill="#f9e8dd" /><rect width="80" height="10" x="120" y="120" fill="#f3322c" /><rect width="80" height="10" x="120" y="130" fill="#f3322c" /><rect width="100" height="10" x="110" y="140" fill="#f3322c" /><rect width="100" height="10" x="110" y="150" fill="#f9e8dd" /><rect width="100" height="10" x="110" y="160" fill="#f9e8dd" /><rect width="120" height="10" x="100" y="170" fill="#f9e8dd" /><rect width="120" height="10" x="100" y="180" fill="#f3322c" /><rect width="40" height="10" x="70" y="190" fill="#f3322c" /><rect width="120" height="10" x="110" y="190" fill="#bd2d24" /><rect width="20" height="10" x="230" y="190" fill="#f3322c" /><rect width="180" height="10" x="70" y="200" fill="#f3322c" /><rect width="60" height="10" x="100" y="110" fill="#d19a54" /><rect width="60" height="10" x="170" y="110" fill="#d19a54" /><rect width="10" height="10" x="100" y="120" fill="#d19a54" /><rect width="20" height="10" x="110" y="120" fill="#ffffff" /><rect width="20" height="10" x="130" y="120" fill="#000000" /><rect width="10" height="10" x="150" y="120" fill="#d19a54" /><rect width="10" height="10" x="170" y="120" fill="#d19a54" /><rect width="20" height="10" x="180" y="120" fill="#ffffff" /><rect width="20" height="10" x="200" y="120" fill="#000000" /><rect width="10" height="10" x="220" y="120" fill="#d19a54" /><rect width="40" height="10" x="70" y="130" fill="#d19a54" /><rect width="20" height="10" x="110" y="130" fill="#ffffff" /><rect width="20" height="10" x="130" y="130" fill="#000000" /><rect width="30" height="10" x="150" y="130" fill="#d19a54" /><rect width="20" height="10" x="180" y="130" fill="#ffffff" /><rect width="20" height="10" x="200" y="130" fill="#000000" /><rect width="10" height="10" x="220" y="130" fill="#d19a54" /><rect width="10" height="10" x="70" y="140" fill="#d19a54" /><rect width="10" height="10" x="100" y="140" fill="#d19a54" /><rect width="20" height="10" x="110" y="140" fill="#ffffff" /><rect width="20" height="10" x="130" y="140" fill="#000000" /><rect width="10" height="10" x="150" y="140" fill="#d19a54" /><rect width="10" height="10" x="170" y="140" fill="#d19a54" /><rect width="20" height="10" x="180" y="140" fill="#ffffff" /><rect width="20" height="10" x="200" y="140" fill="#000000" /><rect width="10" height="10" x="220" y="140" fill="#d19a54" /><rect width="10" height="10" x="70" y="150" fill="#d19a54" /><rect width="10" height="10" x="100" y="150" fill="#d19a54" /><rect width="20" height="10" x="110" y="150" fill="#ffffff" /><rect width="20" height="10" x="130" y="150" fill="#000000" /><rect width="10" height="10" x="150" y="150" fill="#d19a54" /><rect width="10" height="10" x="170" y="150" fill="#d19a54" /><rect width="20" height="10" x="180" y="150" fill="#ffffff" /><rect width="20" height="10" x="200" y="150" fill="#000000" /><rect width="10" height="10" x="220" y="150" fill="#d19a54" /><rect width="60" height="10" x="100" y="160" fill="#d19a54" /><rect width="60" height="10" x="170" y="160" fill="#d19a54" />
</g>
<g id="nouns698" transform="scale(3.2)" shape-rendering="crispEdges">
<rect width="140" height="10" x="90" y="210" fill="#d26451" /><rect width="140" height="10" x="90" y="220" fill="#d26451" /><rect width="140" height="10" x="90" y="230" fill="#d26451" /><rect width="140" height="10" x="90" y="240" fill="#d26451" /><rect width="20" height="10" x="90" y="250" fill="#d26451" /><rect width="110" height="10" x="120" y="250" fill="#d26451" /><rect width="20" height="10" x="90" y="260" fill="#d26451" /><rect width="110" height="10" x="120" y="260" fill="#d26451" /><rect width="20" height="10" x="90" y="270" fill="#d26451" /><rect width="110" height="10" x="120" y="270" fill="#d26451" /><rect width="20" height="10" x="90" y="280" fill="#d26451" /><rect width="110" height="10" x="120" y="280" fill="#d26451" /><rect width="20" height="10" x="90" y="290" fill="#d26451" /><rect width="110" height="10" x="120" y="290" fill="#d26451" /><rect width="20" height="10" x="90" y="300" fill="#d26451" /><rect width="110" height="10" x="120" y="300" fill="#d26451" /><rect width="20" height="10" x="90" y="310" fill="#d26451" /><rect width="110" height="10" x="120" y="310" fill="#d26451" /><rect width="140" height="10" x="90" y="210" fill="#ff3a0e" /><rect width="140" height="10" x="90" y="220" fill="#ff3a0e" /><rect width="140" height="10" x="90" y="230" fill="#d32a09" /><rect width="140" height="10" x="90" y="240" fill="#d32a09" /><rect width="20" height="10" x="90" y="250" fill="#ae3208" /><rect width="110" height="10" x="120" y="250" fill="#ae3208" /><rect width="20" height="10" x="90" y="260" fill="#ae3208" /><rect width="110" height="10" x="120" y="260" fill="#ae3208" /><rect width="20" height="10" x="90" y="270" fill="#903707" /><rect width="110" height="10" x="120" y="270" fill="#903707" /><rect width="20" height="10" x="90" y="280" fill="#903707" /><rect width="110" height="10" x="120" y="280" fill="#903707" /><rect width="20" height="10" x="90" y="290" fill="#6e3206" /><rect width="110" height="10" x="120" y="290" fill="#6e3206" /><rect width="20" height="10" x="90" y="300" fill="#6e3206" /><rect width="110" height="10" x="120" y="300" fill="#6e3206" /><rect width="20" height="10" x="90" y="310" fill="#552e05" /><rect width="110" height="10" x="120" y="310" fill="#552e05" /><rect width="40" height="10" x="90" y="50" fill="#6f597a" /><rect width="90" height="10" x="80" y="60" fill="#6f597a" /><rect width="140" height="10" x="70" y="70" fill="#6f597a" /><rect width="150" height="10" x="80" y="80" fill="#6f597a" /><rect width="160" height="10" x="70" y="90" fill="#6f597a" /><rect width="150" height="10" x="80" y="100" fill="#6f597a" /><rect width="150" height="10" x="80" y="110" fill="#6f597a" /><rect width="10" height="10" x="80" y="120" fill="#6f597a" /><rect width="140" height="10" x="90" y="120" fill="#d4b7b2" /><rect width="10" height="10" x="80" y="130" fill="#6f597a" /><rect width="140" height="10" x="90" y="130" fill="#d4b7b2" /><rect width="10" height="10" x="80" y="140" fill="#6f597a" /><rect width="140" height="10" x="90" y="140" fill="#d4b7b2" /><rect width="10" height="10" x="80" y="150" fill="#6f597a" /><rect width="140" height="10" x="90" y="150" fill="#d4b7b2" /><rect width="30" height="10" x="60" y="160" fill="#6f597a" /><rect width="140" height="10" x="90" y="160" fill="#d4b7b2" /><rect width="10" height="10" x="60" y="170" fill="#6f597a" /><rect width="10" height="10" x="70" y="170" fill="#d4b7b2" /><rect width="10" height="10" x="80" y="170" fill="#6f597a" /><rect width="150" height="10" x="90" y="170" fill="#d4b7b2" /><rect width="10" height="10" x="60" y="180" fill="#6f597a" /><rect width="10" height="10" x="70" y="180" fill="#d4b7b2" /><rect width="30" height="10" x="80" y="180" fill="#6f597a" /><rect width="130" height="10" x="110" y="180" fill="#d18687" /><rect width="10" height="10" x="240" y="180" fill="#6f597a" /><rect width="50" height="10" x="60" y="190" fill="#6f597a" /><rect width="130" height="10" x="110" y="190" fill="#d4b7b2" /><rect width="10" height="10" x="240" y="190" fill="#6f597a" /><rect width="170" height="10" x="80" y="200" fill="#6f597a" /><rect width="60" height="10" x="100" y="110" fill="#b9185c" /><rect width="60" height="10" x="170" y="110" fill="#b9185c" /><rect width="10" height="10" x="100" y="120" fill="#b9185c" /><rect width="20" height="10" x="110" y="120" fill="#ffffff" /><rect width="20" height="10" x="130" y="120" fill="#000000" /><rect width="10" height="10" x="150" y="120" fill="#b9185c" /><rect width="10" height="10" x="170" y="120" fill="#b9185c" /><rect width="20" height="10" x="180" y="120" fill="#ffffff" /><rect width="20" height="10" x="200" y="120" fill="#000000" /><rect width="10" height="10" x="220" y="120" fill="#b9185c" /><rect width="40" height="10" x="70" y="130" fill="#b9185c" /><rect width="20" height="10" x="110" y="130" fill="#ffffff" /><rect width="20" height="10" x="130" y="130" fill="#000000" /><rect width="30" height="10" x="150" y="130" fill="#b9185c" /><rect width="20" height="10" x="180" y="130" fill="#ffffff" /><rect width="20" height="10" x="200" y="130" fill="#000000" /><rect width="10" height="10" x="220" y="130" fill="#b9185c" /><rect width="10" height="10" x="70" y="140" fill="#b9185c" /><rect width="10" height="10" x="100" y="140" fill="#b9185c" /><rect width="20" height="10" x="110" y="140" fill="#ffffff" /><rect width="20" height="10" x="130" y="140" fill="#000000" /><rect width="10" height="10" x="150" y="140" fill="#b9185c" /><rect width="10" height="10" x="170" y="140" fill="#b9185c" /><rect width="20" height="10" x="180" y="140" fill="#ffffff" /><rect width="20" height="10" x="200" y="140" fill="#000000" /><rect width="10" height="10" x="220" y="140" fill="#b9185c" /><rect width="10" height="10" x="70" y="150" fill="#b9185c" /><rect width="10" height="10" x="100" y="150" fill="#b9185c" /><rect width="20" height="10" x="110" y="150" fill="#ffffff" /><rect width="20" height="10" x="130" y="150" fill="#000000" /><rect width="10" height="10" x="150" y="150" fill="#b9185c" /><rect width="10" height="10" x="170" y="150" fill="#b9185c" /><rect width="20" height="10" x="180" y="150" fill="#ffffff" /><rect width="20" height="10" x="200" y="150" fill="#000000" /><rect width="10" height="10" x="220" y="150" fill="#b9185c" /><rect width="60" height="10" x="100" y="160" fill="#b9185c" /><rect width="60" height="10" x="170" y="160" fill="#b9185c" />
</g>
<g id="nouns699" transform="scale(3.2)" shape-rendering="crispEdges">
<rect width="140" height="10" x="90" y="210" fill="#1f1d29" /><rect width="140" height="10" x="90" y="220" fill="#1f1d29" /><rect width="140" height="10" x="90" y="230" fill="#1f1d29" /><rect width="140" height="10" x="90" y="240" fill="#1f1d29" /><rect width="20" height="10" x="90" y="250" fill="#1f1d29" /><rect width="110" height="10" x="120" y="250" fill="#1f1d29" /><rect width="20" height="10" x="90" y="260" fill="#1f1d29" /><rect width="110" height="10" x="120" y="260" fill="#1f1d29" /><rect width="20" height="10" x="90" y="270" fill="#1f1d29" /><rect width="110" height="10" x="120" y="270" fill="#1f1d29" /><rect width="20" height="10" x="90" y="280" fill="#1f1d29" /><rect width="110" height="10" x="120" y="280" fill="#1f1d29" /><rect width="20" height="10" x="90" y="290" fill="#1f1d29" /><rect width="110" height="10" x="120" y="290" fill="#1f1d29" /><rect width="20" height="10" x="90" y="300" fill="#1f1d29" /><rect width="110" height="10" x="120" y="300" fill="#1f1d29" /><rect width="20" height="10" x="90" y="310" fill="#1f1d29" /><rect width="110" height="10" x="120" y="310" fill="#1f1d29" /><rect width="30" height="10" x="140" y="230" fill="#26b1f3" /><rect width="20" height="10" x="130" y="240" fill="#26b1f3" /><rect width="10" height="10" x="170" y="240" fill="#26b1f3" /><rect width="10" height="10" x="150" y="250" fill="#26b1f3" /><rect width="10" height="10" x="180" y="250" fill="#26b1f3" /><rect width="10" height="10" x="150" y="260" fill="#26b1f3" /><rect width="20" height="10" x="190" y="260" fill="#26b1f3" /><rect width="10" height="10" x="140" y="270" fill="#26b1f3" /><rect width="60" height="10" x="130" y="10" fill="#ff0e0e" /><rect width="100" height="10" x="110" y="20" fill="#ff0e0e" /><rect width="120" height="10" x="100" y="30" fill="#ff0e0e" /><rect width="140" height="10" x="90" y="40" fill="#ff0e0e" /><rect width="140" height="10" x="90" y="50" fill="#ff0e0e" /><rect width="160" height="10" x="80" y="60" fill="#ff0e0e" /><rect width="10" height="10" x="80" y="70" fill="#ff0e0e" /><rect width="60" height="10" x="90" y="70" fill="#ffef16" /><rect width="20" height="10" x="150" y="70" fill="#ff0e0e" /><rect width="60" height="10" x="170" y="70" fill="#ff1ad2" /><rect width="10" height="10" x="230" y="70" fill="#ff0e0e" /><rect width="10" height="10" x="70" y="80" fill="#0adc4d" /><rect width="70" height="10" x="80" y="80" fill="#ffef16" /><rect width="20" height="10" x="150" y="80" fill="#ffffff" /><rect width="70" height="10" x="170" y="80" fill="#ff1ad2" /><rect width="10" height="10" x="240" y="80" fill="#1929f4" /><rect width="20" height="10" x="60" y="90" fill="#0adc4d" /><rect width="60" height="10" x="80" y="90" fill="#ffef16" /><rect width="40" height="10" x="140" y="90" fill="#ffffff" /><rect width="60" height="10" x="180" y="90" fill="#ff1ad2" /><rect width="20" height="10" x="240" y="90" fill="#1929f4" /><rect width="30" height="10" x="50" y="100" fill="#0adc4d" /><rect width="50" height="10" x="80" y="100" fill="#ffef16" /><rect width="60" height="10" x="130" y="100" fill="#ffffff" /><rect width="50" height="10" x="190" y="100" fill="#ff1ad2" /><rect width="30" height="10" x="240" y="100" fill="#1929f4" /><rect width="30" height="10" x="50" y="110" fill="#0adc4d" /><rect width="50" height="10" x="80" y="110" fill="#ffef16" /><rect width="60" height="10" x="130" y="110" fill="#ffffff" /><rect width="50" height="10" x="190" y="110" fill="#ff1ad2" /><rect width="30" height="10" x="240" y="110" fill="#1929f4" /><rect width="50" height="10" x="40" y="120" fill="#0adc4d" /><rect width="30" height="10" x="90" y="120" fill="#ffef16" /><rect width="80" height="10" x="120" y="120" fill="#ffffff" /><rect width="30" height="10" x="200" y="120" fill="#ff1ad2" /><rect width="50" height="10" x="230" y="120" fill="#1929f4" /><rect width="50" height="10" x="40" y="130" fill="#0adc4d" /><rect width="30" height="10" x="90" y="130" fill="#ffef16" /><rect width="80" height="10" x="120" y="130" fill="#ffffff" /><rect width="30" height="10" x="200" y="130" fill="#ff1ad2" /><rect width="50" height="10" x="230" y="130" fill="#1929f4" /><rect width="60" height="10" x="40" y="140" fill="#0adc4d" /><rect width="20" height="10" x="100" y="140" fill="#ffef16" /><rect width="80" height="10" x="120" y="140" fill="#ffffff" /><rect width="20" height="10" x="200" y="140" fill="#ff1ad2" /><rect width="60" height="10" x="220" y="140" fill="#1929f4" /><rect width="70" height="10" x="40" y="150" fill="#0adc4d" /><rect width="10" height="10" x="110" y="150" fill="#ffef16" /><rect width="80" height="10" x="120" y="150" fill="#ffffff" /><rect width="10" height="10" x="200" y="150" fill="#ff1ad2" /><rect width="70" height="10" x="210" y="150" fill="#1929f4" /><rect width="80" height="10" x="40" y="160" fill="#0adc4d" /><rect width="10" height="10" x="120" y="160" fill="#00fcff" /><rect width="60" height="10" x="130" y="160" fill="#ffffff" /><rect width="10" height="10" x="190" y="160" fill="#00fcff" /><rect width="80" height="10" x="200" y="160" fill="#1929f4" /><rect width="80" height="10" x="40" y="170" fill="#0adc4d" /><rect width="80" height="10" x="120" y="170" fill="#00fcff" /><rect width="80" height="10" x="200" y="170" fill="#1929f4" /><rect width="80" height="10" x="50" y="180" fill="#0adc4d" /><rect width="60" height="10" x="130" y="180" fill="#00fcff" /><rect width="80" height="10" x="190" y="180" fill="#1929f4" /><rect width="80" height="10" x="50" y="190" fill="#0adc4d" /><rect width="60" height="10" x="130" y="190" fill="#00fcff" /><rect width="80" height="10" x="190" y="190" fill="#1929f4" /><rect width="80" height="10" x="60" y="200" fill="#0adc4d" /><rect width="40" height="10" x="140" y="200" fill="#00fcff" /><rect width="80" height="10" x="180" y="200" fill="#1929f4" /><rect width="80" height="10" x="70" y="210" fill="#0adc4d" /><rect width="20" height="10" x="150" y="210" fill="#00fcff" /><rect width="80" height="10" x="170" y="210" fill="#1929f4" /><rect width="60" height="10" x="90" y="220" fill="#0adc4d" /><rect width="60" height="10" x="170" y="220" fill="#1929f4" /><rect width="60" height="10" x="100" y="110" fill="#ffc110" /><rect width="60" height="10" x="170" y="110" fill="#f98f30" /><rect width="10" height="10" x="100" y="120" fill="#ffc110" /><rect width="20" height="10" x="110" y="120" fill="#ffffff" /><rect width="20" height="10" x="130" y="120" fill="#000000" /><rect width="10" height="10" x="150" y="120" fill="#ffc110" /><rect width="10" height="10" x="170" y="120" fill="#f98f30" /><rect width="20" height="10" x="180" y="120" fill="#ffffff" /><rect width="20" height="10" x="200" y="120" fill="#000000" /><rect width="10" height="10" x="220" y="120" fill="#f98f30" /><rect width="30" height="10" x="70" y="130" fill="#f78a18" /><rect width="10" height="10" x="100" y="130" fill="#ffc110" /><rect width="20" height="10" x="110" y="130" fill="#ffffff" /><rect width="20" height="10" x="130" y="130" fill="#000000" /><rect width="10" height="10" x="150" y="130" fill="#ffc110" /><rect width="10" height="10" x="160" y="130" fill="#f78a18" /><rect width="10" height="10" x="170" y="130" fill="#f98f30" /><rect width="20" height="10" x="180" y="130" fill="#ffffff" /><rect width="20" height="10" x="200" y="130" fill="#000000" /><rect width="10" height="10" x="220" y="130" fill="#f98f30" /><rect width="10" height="10" x="70" y="140" fill="#ffc110" /><rect width="10" height="10" x="100" y="140" fill="#ffc110" /><rect width="20" height="10" x="110" y="140" fill="#ffffff" /><rect width="20" height="10" x="130" y="140" fill="#000000" /><rect width="10" height="10" x="150" y="140" fill="#ffc110" /><rect width="10" height="10" x="170" y="140" fill="#f98f30" /><rect width="20" height="10" x="180" y="140" fill="#ffffff" /><rect width="20" height="10" x="200" y="140" fill="#000000" /><rect width="10" height="10" x="220" y="140" fill="#f98f30" /><rect width="10" height="10" x="70" y="150" fill="#ffc110" /><rect width="10" height="10" x="100" y="150" fill="#ffc110" /><rect width="20" height="10" x="110" y="150" fill="#ffffff" /><rect width="20" height="10" x="130" y="150" fill="#000000" /><rect width="10" height="10" x="150" y="150" fill="#ffc110" /><rect width="10" height="10" x="170" y="150" fill="#f98f30" /><rect width="20" height="10" x="180" y="150" fill="#ffffff" /><rect width="20" height="10" x="200" y="150" fill="#000000" /><rect width="10" height="10" x="220" y="150" fill="#f98f30" /><rect width="60" height="10" x="100" y="160" fill="#ffc110" /><rect width="60" height="10" x="170" y="160" fill="#f98f30" />
</g>
<g x_x="x" id="circles697"><g x_x="x" transform="translate(102,204) scale(0.8)"><g x_x="x"><use href="#nouns697" transform="translate(832 457) scale(0.119) rotate(13,512,512)"/>
<circle cx="893" cy="518" r="67" fill="red" opacity="0.333"/>
</g>
<g x_x="x"><use href="#nouns698" transform="translate(883 647) scale(0.093) rotate(135,512,512)"/>
<circle cx="931" cy="695" r="52" fill="green" opacity="0.333"/>
</g>
<g x_x="x"><use href="#nouns699" transform="translate(264 10) scale(0.126) rotate(8,512,512)"/>
<circle cx="329" cy="75" r="71" fill="yellow" opacity="0.333"/>
</g>
<g x_x="x"><use href="#nouns697" transform="translate(184 310) scale(0.208) rotate(313,512,512)"/>
<circle cx="291" cy="417" r="117" fill="blue" opacity="0.333"/>
</g>
<g x_x="x"><use href="#nouns698" transform="translate(284 196) scale(0.267) rotate(443,512,512)"/>
<circle cx="421" cy="333" r="150" fill="red" opacity="0.333"/>
</g>
<g x_x="x"><use href="#nouns699" transform="translate(529 130) scale(0.244) rotate(364,512,512)"/>
<circle cx="654" cy="255" r="137" fill="green" opacity="0.333"/>
</g>
<g x_x="x"><use href="#nouns697" transform="translate(609 563) scale(0.156) rotate(404,512,512)"/>
<circle cx="689" cy="643" r="88" fill="yellow" opacity="0.333"/>
</g>
<g x_x="x"><use href="#nouns698" transform="translate(220 273) scale(0.437) rotate(344,512,512)"/>
<circle cx="444" cy="497" r="246" fill="blue" opacity="0.333"/>
</g>
<g x_x="x"><use href="#nouns699" transform="translate(279 272) scale(0.470) rotate(324,512,512)"/>
<circle cx="520" cy="513" r="265" fill="red" opacity="0.333"/>
</g>
<g x_x="x"><use href="#nouns697" transform="translate(414 294) scale(0.351) rotate(336,512,512)"/>
<circle cx="594" cy="474" r="198" fill="green" opacity="0.333"/>
</g>
</g>
<g x_x="x" fill="#224455" transform="scale(0.348)"><path d="M485 491 c-17 -165 -78 -226 -180 -238 -101 -12 -94 11 -108 22 l-2 -24 s-60 -2 -82 -2 -81 1 -94 0 c0 0 0 395 5 482 5 86 1 257 1 284 0 0 59 8 94 7 s63 -8 72 -11 c0 0 14 -165 3 -221 0 0 137 29 202 -7 s106 -127 88 -291 Zm-261 171 c-40 -4 -31 -78 -32 -134 -4 -135 42 -138 66 -135 24 3 74 17 76 146 2 130 -69 126 -109 122 Z"/>
<path d="M31 43 s-9 170 -9 243 3 503 3 515 c0 0 65 3 83 6 s78 4 99 -7 c0 0 1 -286 1 -299 0 0 58 142 65 154 s67 148 67 148 c0 0 69 3 85 5 s70 1 78 -7 c0 0 1 -404 1 -434 s1 -316 0 -328 c0 0 -37 -11 -88 -11 s-93 8 -93 8 c0 0 -2 109 -1 145 s3 145 3 145 c0 0 -52 -116 -64 -147 s-53 -123 -58 -129 S110 24 31 43 Z" transform="translate(498 0)"/>
<path d="M434 288 c-59 -48 -100 -49 -175 -52 -75 -3 -153 6 -193 37 -40 31 -53 147 -47 257 6 110 8 179 56 226 48 47 111 56 204 55 60 -1 176 9 191 -132 15 -141 22 -343 -37 -391 Zm-120 255 c-5 52 4 111 -70 104 -74 -7 -50 -110 -50 -131 0 -88 15 -110 66 -105 51 5 59 79 54 132 Z" transform="translate(1024 0)"/>
<path d="M8 268 s5 143 1 233 -11 264 46 284 112 45 220 -18 c0 0 2 39 3 41 s19 9 92 4 80 -1 80 -1 c0 0 4 -306 0 -368 s-2 -185 -2 -185 c0 0 -58 3 -76 2 s-64 0 -88 10 c0 0 -11 105 -3 164 s17 185 -44 191 -54 -77 -58 -171 3 -149 -3 -193 c0 0 -69 -1 -86 -1 s-82 8 -82 8 Z" transform="translate(1522 0)"/>
<path d="M7 251 s-2 467 1 552 c0 0 65 -1 93 1 s63 -6 73 -10 c0 0 6 -136 -1 -222 s6 -135 47 -134 53 24 58 174 -1 165 3 188 c0 0 78 1 97 2 s58 -6 69 -7 c0 0 -4 -217 0 -283 s8 -202 -45 -235 -151 -23 -221 19 c0 0 1 -32 -5 -41 s-64 -3 -88 -1 -63 2 -82 -3 Z" transform="translate(1983 0)"/>
<path d="M5 624 s3 106 73 149 c70 44 225 71 329 11 105 -61 93 -231 24 -268 -69 -37 -142 -46 -175 -52 -33 -7 -52 -61 -34 -80 18 -20 39 -28 58 -18 19 11 30 32 27 59 0 0 55 18 117 14 62 -3 67 -10 67 -10 0 0 -1 -91 -36 -132 -35 -41 -47 -56 -173 -62 -126 -6 -163 13 -211 46 -48 34 -55 94 -55 120 -1 76 83 133 125 149 s121 26 150 49 c10 8 12 39 7 51 -6 13 -3 17 -21 25 -15 7 -75 9 -83 -53 0 0 -83 -5 -105 -3 -22 1 -71 1 -84 6 Z" transform="translate(2439 0)"/>
</g>
<g x_x="x" fill="#224455" transform="translate(544 922) scale(0.1)"><path d="M465 116 C394 31 297 11 210 33 c0 0 -158 46 -182 197 -12 25 -11 75 -13 176 -1 101 -2 235 57 302 59 68 139 115 268 76 s192 -254 197 -361 c5 -107 -2 -223 -73 -307 Zm-139 340 c-4 131 -26 153 -57 154 -32 1 -29 -11 -46 -55 -17 -43 -17 -154 -17 -154 11 -142 11 -194 64 -192 s61 115 57 247 Z"/>
<path d="M510 513 c-17 -58 -69 -97 -131 -108 -62 -12 -156 21 -156 21 2 -12 -6 -109 -6 -121 0 -12 1 -61 21 -87 20 -26 44 -32 64 -9 20 23 19 76 19 76 0 0 51 -1 89 -1 s86 -8 86 -8 c0 0 35 -96 -40 -181 C382 9 268 15 161 55 54 96 27 164 22 176 c-5 12 -8 57 -8 62 0 5 -4 64 -5 77 s-4 115 -3 148 8 158 49 236 114 112 224 103 c110 -9 170 -50 211 -102 s38 -130 21 -188 Zm-166 103 c-26 21 -57 8 -57 8 -9 -7 -16 -20 -19 -37 -3 -17 16 -46 53 -54 37 -8 39 21 39 26 0 5 10 36 -16 57 Z" transform="translate(554 0)"/>
<path d="M525 472 c-1 -24 -4 -160 -4 -186 1 -26 -1 -123 -24 -169 s-37 -54 -45 -60 c-8 -6 -25 -19 -80 -25 -55 -6 -82 -4 -92 -5 s-66 -1 -128 19 S47 105 24 163 c-23 58 -19 164 14 215 s58 71 104 93 c46 22 112 28 164 13 0 0 2 42 -5 66 s-15 48 -42 49 c-27 1 -47 -43 -48 -49 0 0 -44 -7 -91 -4 -48 3 -104 5 -108 5 0 0 -5 45 0 77 s21 99 114 141 c94 43 172 44 252 24 s117 -82 137 -153 c20 -71 12 -144 11 -168 Zm-200 -204 c-3 22 -6 45 -39 54 -33 9 -54 -30 -54 -30 -7 -39 -3 -54 0 -60 s33 -28 60 -19 c27 9 36 33 33 55 Z" transform="translate(1080 0)"/>
<path d="M12 187 s261 8 276 9 c0 0 -89 197 -106 229 s-91 194 -118 244 S7 788 7 788 c0 0 26 12 88 10 s30 -5 102 -5 c0 0 137 -246 149 -269 s88 -160 105 -195 66 -131 68 -142 c0 0 -3 -84 -2 -95 s1 -58 1 -58 c0 0 -59 -6 -105 -8 s-91 -1 -122 -1 -159 3 -171 3 -98 1 -102 2 c0 0 -1 64 -1 75 s-3 74 -5 83 Z" transform="translate(1615 0)"/>
<path d="M110 800 s52 2 76 -6 c0 0 5 -3 12 -26 s57 -142 72 -185 78 -229 91 -265 40 -113 48 -137 38 -122 38 -126 -4 -7 -6 -7 c0 0 3 -6 9 -7 0 0 -15 -15 -74 -13 s-86 -1 -97 -5 c0 0 -28 102 -41 136 s-28 83 -28 85 -9 34 -14 44 -65 177 -71 192 -38 108 -43 119 -42 112 -35 102 c0 0 -25 63 -24 73 s-3 26 12 26 74 -1 74 -1 Z" transform="translate(2141 0)"/>
<path d="M211 343 s10 -90 24 -109 57 -42 75 13 -2 102 -52 129 -76 51 -129 83 -74 59 -78 65 -24 36 -29 79 -10 187 -11 195 c0 0 15 4 30 5 s189 -5 212 -5 238 -3 246 -3 8 -6 8 -9 -3 -73 -1 -85 -3 -52 -10 -68 c0 0 -252 6 -279 2 0 0 35 -75 72 -97 s153 -76 185 -112 49 -59 49 -129 -4 -170 -92 -236 -270 -32 -320 2 S-10 187 21 344 c0 0 57 21 190 -1 Z" transform="translate(2602 0)"/>
<path d="M465 116 C394 31 297 11 210 33 c0 0 -158 46 -182 197 -12 25 -11 75 -13 176 -1 101 -2 235 57 302 59 68 139 115 268 76 s192 -254 197 -361 c5 -107 -2 -223 -73 -307 Zm-139 340 c-4 131 -26 153 -57 154 -32 1 -29 -11 -46 -55 -17 -43 -17 -154 -17 -154 11 -142 11 -194 64 -192 s61 115 57 247 Z" transform="translate(3142 0)"/>
<path d="M465 116 C394 31 297 11 210 33 c0 0 -158 46 -182 197 -12 25 -11 75 -13 176 -1 101 -2 235 57 302 59 68 139 115 268 76 s192 -254 197 -361 c5 -107 -2 -223 -73 -307 Zm-139 340 c-4 131 -26 153 -57 154 -32 1 -29 -11 -46 -55 -17 -43 -17 -154 -17 -154 11 -142 11 -194 64 -192 s61 115 57 247 Z" transform="translate(3696 0)"/>
<path d="M465 116 C394 31 297 11 210 33 c0 0 -158 46 -182 197 -12 25 -11 75 -13 176 -1 101 -2 235 57 302 59 68 139 115 268 76 s192 -254 197 -361 c5 -107 -2 -223 -73 -307 Zm-139 340 c-4 131 -26 153 -57 154 -32 1 -29 -11 -46 -55 -17 -43 -17 -154 -17 -154 11 -142 11 -194 64 -192 s61 115 57 247 Z" transform="translate(4250 0)"/>
</g>
</g>
</defs>
<use href="#circles697" />
</svg>
